M48
METRIC,LZ,000.000
;FILE_FORMAT=3:3
;TYPE=PLATED
;Layer: PTH_Through_Via
;EasyEDA v6.5.23, 2023-05-23 22:52:14
;b64d56a2c64b479e9c3a0f4ea2cfd69e,619bf967d5dd4da89e17e2f86567f5d7,10
;Gerber Generator version 0.2
;Holesize 1 = 0.305 mm
T01C0.305
%
G05
G90
T01
X047498Y076073
X047498Y074041
X059182Y060706
X056261Y059817
X053721Y058928
X051308Y058039
X027305Y084201
X035052Y070231
X025654Y080137
X024384Y078486
X033147Y071120
X033909Y073914
X024257Y066421
X061341Y057912
X037211Y049276
X050673Y052451
X035814Y077978
X047498Y077978
X025146Y048260
X048260Y045085
X048260Y043688
X054483Y041275
X044704Y080518
X047244Y083185
X045720Y079248
X050800Y084328
X040640Y037465
X040640Y036322
M30
