G04 Layer: TopLayer*
G04 EasyEDA v6.5.23, 2023-05-23 22:52:14*
G04 b64d56a2c64b479e9c3a0f4ea2cfd69e,619bf967d5dd4da89e17e2f86567f5d7,10*
G04 Gerber Generator version 0.2*
G04 Scale: 100 percent, Rotated: No, Reflected: No *
G04 Dimensions in millimeters *
G04 leading zeros omitted , absolute positions ,4 integer and 5 decimal *
%FSLAX45Y45*%
%MOMM*%

%AMMACRO1*21,1,$1,$2,0,0,$3*%
%ADD10C,1.0000*%
%ADD11C,0.4000*%
%ADD12MACRO1,0.864X0.8065X90.0000*%
%ADD13MACRO1,0.864X0.8065X0.0000*%
%ADD14R,0.8640X0.8065*%
%ADD15R,1.7000X0.6000*%
%ADD16R,2.7000X1.0000*%
%ADD17O,3.9999919999999998X1.5999968*%
%ADD18O,3.936492X1.524*%
%ADD19R,1.0000X3.0000*%
%ADD20C,2.2000*%
%ADD21C,2.5000*%
%ADD22C,0.6096*%
%ADD23C,0.0146*%

%LPD*%
G36*
X736092Y3125978D02*
G01*
X732180Y3126740D01*
X728929Y3128975D01*
X726694Y3132226D01*
X725932Y3136138D01*
X725932Y9363964D01*
X726694Y9367875D01*
X728929Y9371126D01*
X732180Y9373362D01*
X736092Y9374124D01*
X8263890Y9374124D01*
X8267801Y9373362D01*
X8271052Y9371126D01*
X8273288Y9367875D01*
X8274050Y9363964D01*
X8274050Y3136138D01*
X8273288Y3132226D01*
X8271052Y3128975D01*
X8267801Y3126740D01*
X8263890Y3125978D01*
G37*

%LPC*%
G36*
X7874000Y3301492D02*
G01*
X7889392Y3302457D01*
X7904530Y3305200D01*
X7919212Y3309772D01*
X7933232Y3316122D01*
X7946440Y3324098D01*
X7958531Y3333597D01*
X7969402Y3344468D01*
X7978902Y3356559D01*
X7986877Y3369767D01*
X7993227Y3383787D01*
X7997799Y3398469D01*
X8000542Y3413607D01*
X8001508Y3429000D01*
X8000542Y3444392D01*
X7997799Y3459530D01*
X7993227Y3474212D01*
X7986877Y3488232D01*
X7978902Y3501440D01*
X7969402Y3513531D01*
X7958531Y3524402D01*
X7946440Y3533901D01*
X7933232Y3541877D01*
X7919212Y3548227D01*
X7904530Y3552799D01*
X7889392Y3555542D01*
X7874000Y3556508D01*
X7858607Y3555542D01*
X7843469Y3552799D01*
X7828788Y3548227D01*
X7814767Y3541877D01*
X7801559Y3533901D01*
X7789468Y3524402D01*
X7778597Y3513531D01*
X7769098Y3501440D01*
X7761122Y3488232D01*
X7754772Y3474212D01*
X7750200Y3459530D01*
X7747457Y3444392D01*
X7746492Y3429000D01*
X7747457Y3413607D01*
X7750200Y3398469D01*
X7754772Y3383787D01*
X7761122Y3369767D01*
X7769098Y3356559D01*
X7778597Y3344468D01*
X7789468Y3333597D01*
X7801559Y3324098D01*
X7814767Y3316122D01*
X7828788Y3309772D01*
X7843469Y3305200D01*
X7858607Y3302457D01*
G37*
G36*
X1143000Y3301492D02*
G01*
X1158392Y3302457D01*
X1173530Y3305200D01*
X1188212Y3309772D01*
X1202232Y3316122D01*
X1215440Y3324098D01*
X1227531Y3333597D01*
X1238402Y3344468D01*
X1247902Y3356559D01*
X1255877Y3369767D01*
X1262227Y3383787D01*
X1266799Y3398469D01*
X1269542Y3413607D01*
X1270508Y3429000D01*
X1269542Y3444392D01*
X1266799Y3459530D01*
X1262227Y3474212D01*
X1255877Y3488232D01*
X1247902Y3501440D01*
X1238402Y3513531D01*
X1227531Y3524402D01*
X1215440Y3533901D01*
X1202232Y3541877D01*
X1188212Y3548227D01*
X1173530Y3552799D01*
X1158392Y3555542D01*
X1143000Y3556508D01*
X1127607Y3555542D01*
X1112469Y3552799D01*
X1097788Y3548227D01*
X1083767Y3541877D01*
X1070559Y3533901D01*
X1058468Y3524402D01*
X1047597Y3513531D01*
X1038098Y3501440D01*
X1030122Y3488232D01*
X1023772Y3474212D01*
X1019200Y3459530D01*
X1016457Y3444392D01*
X1015492Y3429000D01*
X1016457Y3413607D01*
X1019200Y3398469D01*
X1023772Y3383787D01*
X1030122Y3369767D01*
X1038098Y3356559D01*
X1047597Y3344468D01*
X1058468Y3333597D01*
X1070559Y3324098D01*
X1083767Y3316122D01*
X1097788Y3309772D01*
X1112469Y3305200D01*
X1127607Y3302457D01*
G37*
G36*
X1854911Y3573576D02*
G01*
X4028744Y3586073D01*
X4031792Y3585616D01*
X4035806Y3583381D01*
X4044746Y3579266D01*
X4054195Y3576726D01*
X4064000Y3575862D01*
X4073804Y3576726D01*
X4083253Y3579266D01*
X4092194Y3583381D01*
X4100220Y3589020D01*
X4107179Y3595979D01*
X4112818Y3604006D01*
X4116933Y3612946D01*
X4119473Y3622395D01*
X4120337Y3632200D01*
X4119473Y3642004D01*
X4116933Y3651453D01*
X4112818Y3660394D01*
X4107179Y3668420D01*
X4100220Y3675379D01*
X4092143Y3681018D01*
X4089450Y3683812D01*
X4087977Y3687419D01*
X4087977Y3691280D01*
X4089450Y3694887D01*
X4092143Y3697681D01*
X4100220Y3703320D01*
X4107179Y3710279D01*
X4112818Y3718306D01*
X4116933Y3727246D01*
X4119473Y3736695D01*
X4120337Y3746500D01*
X4119473Y3756304D01*
X4116933Y3765753D01*
X4112818Y3774694D01*
X4107179Y3782720D01*
X4100220Y3789679D01*
X4092194Y3795318D01*
X4083253Y3799433D01*
X4073804Y3801973D01*
X4064000Y3802837D01*
X4054195Y3801973D01*
X4044746Y3799433D01*
X4035806Y3795318D01*
X4031538Y3792880D01*
X4028490Y3792423D01*
X1915515Y3792423D01*
X1911654Y3793185D01*
X1908352Y3795369D01*
X1889099Y3814622D01*
X1886864Y3818026D01*
X1886102Y3822039D01*
X1886966Y3825951D01*
X1889353Y3829253D01*
X1892807Y3831386D01*
X1896821Y3831996D01*
X1909521Y3828389D01*
X1918411Y3827576D01*
X4243578Y3840327D01*
X4252315Y3841546D01*
X4260342Y3844239D01*
X4267708Y3848354D01*
X4274616Y3854094D01*
X4605680Y4185208D01*
X4611014Y4192270D01*
X4614773Y4199839D01*
X4617059Y4207967D01*
X4617923Y4216857D01*
X4617923Y7889290D01*
X4618380Y7892338D01*
X4620818Y7896606D01*
X4624933Y7905546D01*
X4627473Y7914995D01*
X4628337Y7924800D01*
X4627473Y7934604D01*
X4624933Y7944053D01*
X4620818Y7952994D01*
X4615180Y7961020D01*
X4608220Y7967980D01*
X4600194Y7973618D01*
X4591253Y7977733D01*
X4581804Y7980273D01*
X4572000Y7981137D01*
X4562195Y7980273D01*
X4552746Y7977733D01*
X4543806Y7973618D01*
X4535779Y7967980D01*
X4533646Y7965846D01*
X4530344Y7963611D01*
X4526483Y7962849D01*
X4522571Y7963611D01*
X4519269Y7965846D01*
X4517085Y7969148D01*
X4516323Y7973009D01*
X4516323Y8016290D01*
X4516780Y8019338D01*
X4519218Y8023606D01*
X4523333Y8032546D01*
X4525873Y8041995D01*
X4526737Y8051800D01*
X4525873Y8061604D01*
X4523333Y8071053D01*
X4519218Y8079994D01*
X4514342Y8086902D01*
X4512665Y8090966D01*
X4512868Y8095386D01*
X4514900Y8099247D01*
X4518355Y8101939D01*
X4522673Y8102904D01*
X5577738Y8102904D01*
X5581650Y8102142D01*
X5584952Y8099907D01*
X5650433Y8034426D01*
X5652617Y8031124D01*
X5653379Y8027263D01*
X5653379Y7679334D01*
X5654192Y7670495D01*
X5654598Y7668056D01*
X5656732Y7659420D01*
X5660898Y7648854D01*
X5662015Y7646670D01*
X5666638Y7639050D01*
X5673699Y7630210D01*
X6159398Y7144512D01*
X6168237Y7137450D01*
X6175857Y7132828D01*
X6178042Y7131710D01*
X6186271Y7128306D01*
X6188608Y7127544D01*
X6197244Y7125411D01*
X6199682Y7125004D01*
X6208522Y7124192D01*
X6839203Y7124141D01*
X6843064Y7123379D01*
X6846366Y7121144D01*
X6848551Y7117842D01*
X6849364Y7113981D01*
X6848551Y7110069D01*
X6845401Y7105802D01*
X6841744Y7100011D01*
X6839508Y7097471D01*
X6836511Y7095845D01*
X6833158Y7095286D01*
X6476085Y7095236D01*
X6467348Y7094016D01*
X6459321Y7091324D01*
X6451955Y7087209D01*
X6445046Y7081469D01*
X6095593Y6731965D01*
X6090310Y6724954D01*
X6086551Y6717385D01*
X6084214Y6709206D01*
X6083401Y6700316D01*
X6083401Y6560108D01*
X6082741Y6556451D01*
X6080810Y6553352D01*
X6077915Y6551066D01*
X6073546Y6549898D01*
X6068110Y6548018D01*
X6063183Y6544919D01*
X6059119Y6540804D01*
X6056020Y6535928D01*
X6054090Y6530441D01*
X6053378Y6524142D01*
X6053378Y6225286D01*
X6054090Y6218986D01*
X6056020Y6213500D01*
X6059119Y6208623D01*
X6063183Y6204508D01*
X6068110Y6201410D01*
X6077915Y6198362D01*
X6080810Y6196076D01*
X6082741Y6192977D01*
X6083401Y6189319D01*
X6083401Y5817514D01*
X6082436Y5813247D01*
X6081166Y5810453D01*
X6078626Y5801004D01*
X6077762Y5791200D01*
X6078626Y5781395D01*
X6081166Y5771946D01*
X6085281Y5763006D01*
X6090920Y5754979D01*
X6097879Y5748020D01*
X6105906Y5742381D01*
X6114846Y5738266D01*
X6124295Y5735726D01*
X6134100Y5734862D01*
X6143904Y5735726D01*
X6153353Y5738266D01*
X6162294Y5742381D01*
X6170320Y5748020D01*
X6177280Y5754979D01*
X6182918Y5763006D01*
X6187033Y5771946D01*
X6189573Y5781395D01*
X6190437Y5791200D01*
X6189573Y5801004D01*
X6187033Y5810453D01*
X6182918Y5819394D01*
X6177026Y5827725D01*
X6175654Y5830519D01*
X6175197Y5833567D01*
X6175197Y6189319D01*
X6175857Y6192977D01*
X6177788Y6196076D01*
X6180683Y6198362D01*
X6185052Y6199530D01*
X6190488Y6201410D01*
X6195415Y6204508D01*
X6199479Y6208623D01*
X6202578Y6213500D01*
X6204508Y6218986D01*
X6205220Y6225286D01*
X6205220Y6524142D01*
X6204508Y6530441D01*
X6202578Y6535928D01*
X6199479Y6540804D01*
X6195415Y6544919D01*
X6190488Y6548018D01*
X6180683Y6551066D01*
X6177788Y6553352D01*
X6175857Y6556451D01*
X6175197Y6560108D01*
X6175197Y6677558D01*
X6175959Y6681470D01*
X6178194Y6684772D01*
X6493916Y7000494D01*
X6497218Y7002678D01*
X6501079Y7003440D01*
X6833158Y7003440D01*
X6836511Y7002881D01*
X6839508Y7001256D01*
X6841794Y6998716D01*
X6845401Y6992924D01*
X6849465Y6988860D01*
X6854393Y6985762D01*
X6859828Y6983831D01*
X6866178Y6983120D01*
X6951421Y6983120D01*
X6957771Y6983831D01*
X6963206Y6985762D01*
X6968134Y6988860D01*
X6972198Y6992924D01*
X6975297Y6997852D01*
X6977481Y7004151D01*
X6979564Y7007606D01*
X6982815Y7009993D01*
X6986727Y7010908D01*
X6990740Y7010247D01*
X6994144Y7008063D01*
X6996430Y7004710D01*
X6997242Y7000748D01*
X6997242Y4654194D01*
X6996480Y4650333D01*
X6994245Y4647031D01*
X6990943Y4644847D01*
X6987082Y4644034D01*
X6983171Y4644847D01*
X6978802Y4648098D01*
X6973925Y4651197D01*
X6968439Y4653076D01*
X6962140Y4653788D01*
X6882638Y4653788D01*
X6876288Y4653076D01*
X6870852Y4651197D01*
X6865924Y4648098D01*
X6861860Y4644034D01*
X6858762Y4639106D01*
X6858152Y4637430D01*
X6856018Y4633874D01*
X6852666Y4631436D01*
X6848602Y4630623D01*
X6792722Y4630572D01*
X6783984Y4629353D01*
X6775958Y4626660D01*
X6768592Y4622546D01*
X6761683Y4616805D01*
X6697878Y4553000D01*
X6694576Y4550765D01*
X6690664Y4550003D01*
X6591706Y4550003D01*
X6587845Y4550765D01*
X6584543Y4553000D01*
X6583222Y4554321D01*
X6577330Y4557979D01*
X6574383Y4560824D01*
X6572808Y4564583D01*
X6572808Y4568647D01*
X6574383Y4572406D01*
X6577330Y4575200D01*
X6583222Y4578908D01*
X6587286Y4582972D01*
X6590385Y4587900D01*
X6592316Y4593336D01*
X6593027Y4599686D01*
X6593027Y4607763D01*
X6530949Y4607763D01*
X6530949Y4570171D01*
X6530187Y4566259D01*
X6527952Y4563008D01*
X6524701Y4560773D01*
X6520789Y4560011D01*
X6443421Y4560011D01*
X6439509Y4560773D01*
X6436207Y4563008D01*
X6434023Y4566259D01*
X6433261Y4570171D01*
X6433261Y4607763D01*
X6371183Y4607763D01*
X6371183Y4599686D01*
X6371894Y4593336D01*
X6373825Y4587900D01*
X6376873Y4582972D01*
X6380988Y4578908D01*
X6386880Y4575200D01*
X6389827Y4572355D01*
X6391402Y4568647D01*
X6391402Y4564532D01*
X6389827Y4560824D01*
X6386880Y4557979D01*
X6383629Y4555947D01*
X6381038Y4554829D01*
X6378244Y4554423D01*
X4861509Y4554423D01*
X4858461Y4554880D01*
X4854194Y4557318D01*
X4845253Y4561433D01*
X4835804Y4563973D01*
X4826000Y4564837D01*
X4816195Y4563973D01*
X4806746Y4561433D01*
X4797806Y4557318D01*
X4789779Y4551680D01*
X4782820Y4544720D01*
X4777181Y4536694D01*
X4773066Y4527753D01*
X4770526Y4518304D01*
X4769662Y4508500D01*
X4770526Y4498695D01*
X4773066Y4489246D01*
X4777181Y4480306D01*
X4782820Y4472279D01*
X4789779Y4465320D01*
X4797806Y4459681D01*
X4806746Y4455566D01*
X4816195Y4453026D01*
X4826000Y4452162D01*
X4835804Y4453026D01*
X4845253Y4455566D01*
X4854194Y4459681D01*
X4858461Y4462119D01*
X4861509Y4462576D01*
X6368389Y4462576D01*
X6371691Y4462018D01*
X6374638Y4460443D01*
X6380988Y4453890D01*
X6386880Y4450181D01*
X6389827Y4447387D01*
X6391402Y4443628D01*
X6391402Y4439564D01*
X6389776Y4435805D01*
X6386880Y4433011D01*
X6380988Y4429302D01*
X6379667Y4427982D01*
X6376365Y4425746D01*
X6372453Y4424984D01*
X4836668Y4424984D01*
X4830978Y4424730D01*
X4826000Y4425137D01*
X4816195Y4424273D01*
X4806746Y4421733D01*
X4797806Y4417618D01*
X4789779Y4411980D01*
X4782820Y4405020D01*
X4777181Y4396994D01*
X4773066Y4388053D01*
X4770526Y4378604D01*
X4769662Y4368800D01*
X4770526Y4358995D01*
X4773066Y4349546D01*
X4777181Y4340606D01*
X4782820Y4332579D01*
X4789779Y4325620D01*
X4797806Y4319981D01*
X4806746Y4315866D01*
X4816195Y4313326D01*
X4826000Y4312462D01*
X4835804Y4313326D01*
X4845253Y4315866D01*
X4854194Y4319981D01*
X4862220Y4325620D01*
X4866792Y4330192D01*
X4870094Y4332427D01*
X4873955Y4333189D01*
X6372504Y4333189D01*
X6376365Y4332427D01*
X6379667Y4330192D01*
X6380988Y4328871D01*
X6386880Y4325213D01*
X6389827Y4322368D01*
X6391402Y4318609D01*
X6391402Y4314545D01*
X6389827Y4310786D01*
X6386880Y4307992D01*
X6380988Y4304284D01*
X6376873Y4300220D01*
X6373825Y4295292D01*
X6371894Y4289856D01*
X6371183Y4283506D01*
X6371183Y4275429D01*
X6433261Y4275429D01*
X6433261Y4313021D01*
X6434023Y4316933D01*
X6436207Y4320235D01*
X6439509Y4322419D01*
X6443421Y4323181D01*
X6520789Y4323181D01*
X6524701Y4322419D01*
X6527952Y4320235D01*
X6530187Y4316933D01*
X6530949Y4313021D01*
X6530949Y4275429D01*
X6593027Y4275429D01*
X6593027Y4283506D01*
X6592316Y4289856D01*
X6590385Y4295292D01*
X6587286Y4300220D01*
X6583222Y4304284D01*
X6577330Y4307992D01*
X6574383Y4310837D01*
X6572808Y4314545D01*
X6572808Y4318660D01*
X6574383Y4322368D01*
X6577330Y4325213D01*
X6583222Y4328871D01*
X6585203Y4330903D01*
X6588506Y4333087D01*
X6592366Y4333900D01*
X6848652Y4335221D01*
X6852767Y4334357D01*
X6856171Y4331970D01*
X6858762Y4327093D01*
X6861860Y4322165D01*
X6865924Y4318101D01*
X6870852Y4315002D01*
X6876288Y4313123D01*
X6882638Y4312412D01*
X6962140Y4312412D01*
X6968439Y4313123D01*
X6973925Y4315002D01*
X6978802Y4318101D01*
X6982917Y4322165D01*
X6985965Y4327093D01*
X6988098Y4333138D01*
X6990232Y4336694D01*
X6993636Y4339132D01*
X6997700Y4339945D01*
X7001764Y4339132D01*
X7005167Y4336694D01*
X7007301Y4333138D01*
X7009434Y4327093D01*
X7012482Y4322165D01*
X7016597Y4318101D01*
X7021474Y4315002D01*
X7026960Y4313123D01*
X7033259Y4312412D01*
X7039914Y4312412D01*
X7056272Y4307535D01*
X7067448Y4305808D01*
X7078827Y4305808D01*
X7090003Y4307535D01*
X7100874Y4310888D01*
X7104075Y4312158D01*
X7106361Y4312412D01*
X7112762Y4312412D01*
X7119112Y4313123D01*
X7124547Y4315002D01*
X7129475Y4318101D01*
X7133539Y4322165D01*
X7136638Y4327093D01*
X7138568Y4332528D01*
X7139279Y4338878D01*
X7139584Y4344568D01*
X7141514Y4348581D01*
X7145629Y4359148D01*
X7148169Y4370171D01*
X7149033Y4381855D01*
X7149033Y7199833D01*
X7148830Y7205725D01*
X7148220Y7211364D01*
X7147153Y7216902D01*
X7145680Y7222388D01*
X7143800Y7227773D01*
X7141514Y7232954D01*
X7138873Y7237984D01*
X7135875Y7242809D01*
X7132472Y7247381D01*
X7128764Y7251649D01*
X7124750Y7255662D01*
X7120483Y7259370D01*
X7115911Y7262723D01*
X7111085Y7265771D01*
X7106056Y7268413D01*
X7100874Y7270699D01*
X7095490Y7272578D01*
X7090054Y7274052D01*
X7084466Y7275068D01*
X7078827Y7275728D01*
X7072934Y7275931D01*
X6246825Y7275931D01*
X6242913Y7276693D01*
X6239611Y7278928D01*
X5808116Y7710424D01*
X5805881Y7713776D01*
X5805119Y7717739D01*
X5805170Y8065516D01*
X5804154Y8075422D01*
X5804611Y8079536D01*
X5806643Y8083092D01*
X5809945Y8085581D01*
X5813958Y8086598D01*
X5818022Y8085886D01*
X5821476Y8083600D01*
X5855360Y8049717D01*
X5857341Y8046923D01*
X5858256Y8043672D01*
X5858103Y8040268D01*
X5856020Y8035899D01*
X5854090Y8030413D01*
X5853379Y8024114D01*
X5853379Y7725257D01*
X5854090Y7718958D01*
X5856020Y7713472D01*
X5859119Y7708595D01*
X5863183Y7704480D01*
X5868111Y7701381D01*
X5873546Y7699502D01*
X5879846Y7698790D01*
X5978753Y7698790D01*
X5985052Y7699502D01*
X5990488Y7701381D01*
X5995416Y7704480D01*
X5999480Y7708595D01*
X6002578Y7713472D01*
X6004509Y7718958D01*
X6005220Y7725257D01*
X6005220Y8024114D01*
X6004509Y8030413D01*
X6002578Y8035899D01*
X5999480Y8040776D01*
X5995416Y8044891D01*
X5990488Y8047990D01*
X5985052Y8049869D01*
X5980582Y8050377D01*
X5977077Y8051444D01*
X5974181Y8053679D01*
X5972251Y8056778D01*
X5971387Y8059013D01*
X5967120Y8066633D01*
X5961430Y8073491D01*
X5682691Y8352180D01*
X5675630Y8357514D01*
X5668060Y8361273D01*
X5659932Y8363559D01*
X5651042Y8364423D01*
X5112004Y8364423D01*
X5107736Y8365337D01*
X5104282Y8367979D01*
X5102199Y8371789D01*
X5101945Y8376158D01*
X5103520Y8380222D01*
X5106670Y8383219D01*
X5110175Y8385403D01*
X5112766Y8386521D01*
X5115509Y8386876D01*
X5729884Y8386876D01*
X5733745Y8386114D01*
X5737047Y8383930D01*
X6062472Y8058505D01*
X6064656Y8055203D01*
X6065418Y8051342D01*
X6064656Y8047431D01*
X6062472Y8044180D01*
X6059119Y8040776D01*
X6056020Y8035899D01*
X6054090Y8030413D01*
X6053378Y8024114D01*
X6053378Y7725257D01*
X6054090Y7718958D01*
X6056020Y7713472D01*
X6059119Y7708595D01*
X6063183Y7704480D01*
X6068110Y7701381D01*
X6073546Y7699502D01*
X6079845Y7698790D01*
X6178753Y7698790D01*
X6185052Y7699502D01*
X6190488Y7701381D01*
X6195415Y7704480D01*
X6199479Y7708595D01*
X6202578Y7713472D01*
X6204508Y7718958D01*
X6205220Y7725257D01*
X6205220Y8024114D01*
X6204508Y8030413D01*
X6202578Y8035899D01*
X6199479Y8040776D01*
X6195415Y8044891D01*
X6190488Y8047990D01*
X6179870Y8051444D01*
X6176670Y8054543D01*
X6175095Y8058708D01*
X6173927Y8067090D01*
X6171234Y8075117D01*
X6167120Y8082534D01*
X6161430Y8089392D01*
X5784291Y8466480D01*
X5777230Y8471814D01*
X5769660Y8475573D01*
X5761532Y8477859D01*
X5752642Y8478723D01*
X5115509Y8478723D01*
X5112461Y8479180D01*
X5108194Y8481618D01*
X5099253Y8485733D01*
X5089804Y8488273D01*
X5080000Y8489137D01*
X5070195Y8488273D01*
X5060746Y8485733D01*
X5051806Y8481618D01*
X5043779Y8475980D01*
X5036820Y8469020D01*
X5031181Y8460994D01*
X5027066Y8452053D01*
X5024526Y8442604D01*
X5023662Y8432800D01*
X5024526Y8422995D01*
X5027066Y8413546D01*
X5031181Y8404606D01*
X5036820Y8396579D01*
X5043779Y8389620D01*
X5055463Y8381492D01*
X5057495Y8378139D01*
X5058156Y8374329D01*
X5057343Y8370519D01*
X5055108Y8367318D01*
X5051856Y8365134D01*
X5047996Y8364423D01*
X4759909Y8364423D01*
X4756861Y8364880D01*
X4752594Y8367318D01*
X4743653Y8371433D01*
X4734204Y8373973D01*
X4724400Y8374837D01*
X4714595Y8373973D01*
X4705146Y8371433D01*
X4696206Y8367318D01*
X4688179Y8361680D01*
X4681220Y8354720D01*
X4675581Y8346694D01*
X4671466Y8337753D01*
X4668926Y8328304D01*
X4668062Y8318500D01*
X4668926Y8308695D01*
X4671466Y8299246D01*
X4675581Y8290306D01*
X4681220Y8282279D01*
X4688179Y8275320D01*
X4691227Y8273186D01*
X4694123Y8270087D01*
X4695494Y8266023D01*
X4695088Y8261807D01*
X4693005Y8258098D01*
X4689551Y8255609D01*
X4685436Y8254695D01*
X4299610Y8254695D01*
X4296054Y8255355D01*
X4292904Y8257235D01*
X4286554Y8262823D01*
X4275023Y8270494D01*
X4262628Y8276640D01*
X4249521Y8281060D01*
X4235907Y8283803D01*
X4221784Y8284718D01*
X3982415Y8284718D01*
X3968292Y8283803D01*
X3954678Y8281060D01*
X3941572Y8276640D01*
X3929176Y8270494D01*
X3917645Y8262823D01*
X3907231Y8253679D01*
X3898087Y8243265D01*
X3890416Y8231733D01*
X3884269Y8219338D01*
X3879799Y8206181D01*
X3877106Y8192617D01*
X3876192Y8178800D01*
X3877106Y8164982D01*
X3879799Y8151418D01*
X3884269Y8138261D01*
X3890416Y8125866D01*
X3898087Y8114334D01*
X3907231Y8103920D01*
X3917645Y8094776D01*
X3929176Y8087106D01*
X3941572Y8080959D01*
X3954678Y8076539D01*
X3968292Y8073796D01*
X3982415Y8072881D01*
X4221784Y8072881D01*
X4235907Y8073796D01*
X4249521Y8076539D01*
X4262628Y8080959D01*
X4275023Y8087106D01*
X4286554Y8094776D01*
X4292904Y8100364D01*
X4296054Y8102244D01*
X4299610Y8102904D01*
X4418126Y8102904D01*
X4422444Y8101939D01*
X4425899Y8099247D01*
X4427931Y8095386D01*
X4428134Y8090966D01*
X4426458Y8086902D01*
X4421581Y8079994D01*
X4417466Y8071053D01*
X4414926Y8061604D01*
X4414062Y8051800D01*
X4414926Y8041995D01*
X4417466Y8032546D01*
X4421581Y8023606D01*
X4424019Y8019338D01*
X4424476Y8016290D01*
X4424476Y4290415D01*
X4423714Y4286554D01*
X4421530Y4283252D01*
X4314647Y4176369D01*
X4311345Y4174185D01*
X4307484Y4173423D01*
X3617315Y4173423D01*
X3613454Y4174185D01*
X3610152Y4176369D01*
X2621991Y5164480D01*
X2614930Y5169814D01*
X2607360Y5173573D01*
X2599232Y5175859D01*
X2590342Y5176723D01*
X2291588Y5176723D01*
X2287879Y5177383D01*
X2284730Y5179364D01*
X2274112Y5195265D01*
X2264968Y5205679D01*
X2254554Y5214823D01*
X2243023Y5222494D01*
X2230628Y5228640D01*
X2217521Y5233060D01*
X2203907Y5235803D01*
X2189784Y5236718D01*
X1950415Y5236718D01*
X1936292Y5235803D01*
X1922678Y5233060D01*
X1909572Y5228640D01*
X1897176Y5222494D01*
X1885645Y5214823D01*
X1875231Y5205679D01*
X1866087Y5195265D01*
X1858416Y5183733D01*
X1852269Y5171338D01*
X1847799Y5158181D01*
X1845106Y5144617D01*
X1844192Y5130800D01*
X1845106Y5116982D01*
X1847799Y5103418D01*
X1852269Y5090261D01*
X1858416Y5077866D01*
X1866087Y5066334D01*
X1875231Y5055920D01*
X1885645Y5046776D01*
X1897176Y5039106D01*
X1909572Y5032959D01*
X1922678Y5028539D01*
X1936292Y5025796D01*
X1950415Y5024882D01*
X2189784Y5024882D01*
X2203907Y5025796D01*
X2217521Y5028539D01*
X2230628Y5032959D01*
X2243023Y5039106D01*
X2254554Y5046776D01*
X2264968Y5055920D01*
X2274112Y5066334D01*
X2284730Y5082235D01*
X2287879Y5084216D01*
X2291588Y5084876D01*
X2567584Y5084876D01*
X2571445Y5084114D01*
X2574747Y5081930D01*
X3562908Y4093819D01*
X3569970Y4088485D01*
X3577539Y4084726D01*
X3585667Y4082440D01*
X3594557Y4081576D01*
X4332478Y4081627D01*
X4341215Y4082846D01*
X4348886Y4085437D01*
X4353356Y4085894D01*
X4357573Y4084370D01*
X4360722Y4081119D01*
X4362196Y4076903D01*
X4361688Y4072432D01*
X4359300Y4068622D01*
X4225645Y3934968D01*
X4222343Y3932783D01*
X4218482Y3931970D01*
X1940864Y3919524D01*
X1936953Y3920286D01*
X1933600Y3922522D01*
X1737969Y4118152D01*
X1735785Y4121454D01*
X1735023Y4125315D01*
X1735023Y5171084D01*
X1735785Y5174945D01*
X1737969Y5178247D01*
X1865528Y5305806D01*
X1868678Y5307939D01*
X1872386Y5308752D01*
X1876145Y5308193D01*
X1879396Y5306263D01*
X1885645Y5300776D01*
X1897176Y5293106D01*
X1909572Y5286959D01*
X1922678Y5282539D01*
X1936292Y5279796D01*
X1950415Y5278882D01*
X2189784Y5278882D01*
X2203907Y5279796D01*
X2217521Y5282539D01*
X2230628Y5286959D01*
X2243023Y5293106D01*
X2254554Y5300776D01*
X2264968Y5309920D01*
X2274112Y5320334D01*
X2281783Y5331866D01*
X2287930Y5344261D01*
X2292400Y5357418D01*
X2295093Y5370982D01*
X2296007Y5384800D01*
X2295093Y5398617D01*
X2292400Y5412181D01*
X2287930Y5425338D01*
X2281783Y5437733D01*
X2274112Y5449265D01*
X2264968Y5459679D01*
X2254554Y5468823D01*
X2243023Y5476494D01*
X2230628Y5482640D01*
X2217521Y5487060D01*
X2203907Y5489803D01*
X2189784Y5490718D01*
X1950415Y5490718D01*
X1936292Y5489803D01*
X1922678Y5487060D01*
X1909572Y5482640D01*
X1897176Y5476494D01*
X1885645Y5468823D01*
X1875231Y5459679D01*
X1866087Y5449265D01*
X1858416Y5437733D01*
X1852269Y5425338D01*
X1850440Y5420766D01*
X1847037Y5417159D01*
X1655419Y5225491D01*
X1651660Y5220512D01*
X1648510Y5217769D01*
X1644497Y5216550D01*
X1640332Y5217007D01*
X1636725Y5219141D01*
X1634286Y5222544D01*
X1633423Y5226659D01*
X1633423Y5590184D01*
X1634185Y5594045D01*
X1636369Y5597347D01*
X1760880Y5721908D01*
X1766214Y5728970D01*
X1769973Y5736539D01*
X1772259Y5744667D01*
X1773123Y5753557D01*
X1773123Y6707784D01*
X1773885Y6711645D01*
X1776069Y6714947D01*
X1879904Y6818782D01*
X1882749Y6820763D01*
X1886102Y6821728D01*
X1889556Y6821474D01*
X1892757Y6820052D01*
X1897176Y6817106D01*
X1909572Y6810959D01*
X1922678Y6806539D01*
X1936292Y6803796D01*
X1950415Y6802881D01*
X2189784Y6802881D01*
X2203907Y6803796D01*
X2217521Y6806539D01*
X2230628Y6810959D01*
X2243023Y6817106D01*
X2254554Y6824776D01*
X2264968Y6833920D01*
X2274112Y6844334D01*
X2281783Y6855866D01*
X2287930Y6868261D01*
X2292400Y6881418D01*
X2295093Y6894982D01*
X2296007Y6908800D01*
X2295093Y6922617D01*
X2292400Y6936181D01*
X2287930Y6949338D01*
X2281783Y6961733D01*
X2274112Y6973265D01*
X2264968Y6983679D01*
X2254554Y6992823D01*
X2243023Y7000494D01*
X2230628Y7006640D01*
X2217521Y7011060D01*
X2203907Y7013803D01*
X2189784Y7014718D01*
X1950415Y7014718D01*
X1936292Y7013803D01*
X1922678Y7011060D01*
X1909572Y7006640D01*
X1897176Y7000494D01*
X1885645Y6992823D01*
X1875231Y6983679D01*
X1866087Y6973265D01*
X1858416Y6961733D01*
X1852269Y6949338D01*
X1847799Y6936181D01*
X1845106Y6922617D01*
X1844751Y6917029D01*
X1843887Y6913524D01*
X1841804Y6910527D01*
X1693519Y6762191D01*
X1689760Y6757212D01*
X1686610Y6754469D01*
X1682597Y6753250D01*
X1678432Y6753707D01*
X1674825Y6755841D01*
X1672386Y6759244D01*
X1671523Y6763359D01*
X1671523Y6974484D01*
X1672285Y6978345D01*
X1674469Y6981647D01*
X1806752Y7113930D01*
X1810054Y7116114D01*
X1813915Y7116876D01*
X1848612Y7116876D01*
X1852320Y7116216D01*
X1855470Y7114235D01*
X1866087Y7098334D01*
X1875231Y7087920D01*
X1885645Y7078776D01*
X1897176Y7071106D01*
X1909572Y7064959D01*
X1922678Y7060539D01*
X1936292Y7057796D01*
X1950415Y7056881D01*
X2189784Y7056881D01*
X2203907Y7057796D01*
X2217521Y7060539D01*
X2230628Y7064959D01*
X2243023Y7071106D01*
X2254554Y7078776D01*
X2264968Y7087920D01*
X2274112Y7098334D01*
X2281783Y7109866D01*
X2287930Y7122261D01*
X2292400Y7135418D01*
X2295093Y7148982D01*
X2296007Y7162800D01*
X2295093Y7176617D01*
X2292400Y7190181D01*
X2287930Y7203338D01*
X2281783Y7215733D01*
X2274112Y7227265D01*
X2264968Y7237679D01*
X2254554Y7246823D01*
X2243023Y7254494D01*
X2230628Y7260640D01*
X2217521Y7265060D01*
X2203907Y7267803D01*
X2189784Y7268718D01*
X1950415Y7268718D01*
X1936292Y7267803D01*
X1922678Y7265060D01*
X1909572Y7260640D01*
X1897176Y7254494D01*
X1885645Y7246823D01*
X1875231Y7237679D01*
X1866087Y7227265D01*
X1855470Y7211364D01*
X1852320Y7209383D01*
X1848612Y7208723D01*
X1788922Y7208672D01*
X1780184Y7207453D01*
X1772157Y7204760D01*
X1764792Y7200646D01*
X1757883Y7194905D01*
X1591919Y7028891D01*
X1586585Y7021830D01*
X1582826Y7014260D01*
X1580540Y7006132D01*
X1579676Y6997242D01*
X1579676Y5827115D01*
X1578914Y5823254D01*
X1576730Y5819952D01*
X1452219Y5695391D01*
X1446885Y5688330D01*
X1443126Y5680760D01*
X1440840Y5672632D01*
X1439976Y5663742D01*
X1440027Y3986022D01*
X1441246Y3977284D01*
X1443939Y3969258D01*
X1448054Y3961892D01*
X1453794Y3954983D01*
X1823212Y3585616D01*
X1830273Y3580384D01*
X1837893Y3576624D01*
X1846021Y3574389D01*
G37*
G36*
X6027674Y3868165D02*
G01*
X6296507Y3868165D01*
X6302857Y3868928D01*
X6308293Y3870807D01*
X6313220Y3873906D01*
X6317284Y3877970D01*
X6320383Y3882898D01*
X6322314Y3888333D01*
X6323025Y3894683D01*
X6323025Y3993540D01*
X6322314Y3999839D01*
X6320383Y4005326D01*
X6317284Y4010202D01*
X6313220Y4014317D01*
X6308293Y4017365D01*
X6302857Y4019296D01*
X6296507Y4020007D01*
X6027674Y4020007D01*
X6021374Y4019296D01*
X6015888Y4017365D01*
X6011011Y4014317D01*
X6006896Y4010202D01*
X6003798Y4005326D01*
X6001918Y3999839D01*
X6001207Y3993540D01*
X6001207Y3894683D01*
X6001918Y3888333D01*
X6003798Y3882898D01*
X6006896Y3877970D01*
X6011011Y3873906D01*
X6015888Y3870807D01*
X6021374Y3868928D01*
G37*
G36*
X5448808Y4051604D02*
G01*
X6481826Y4053128D01*
X6493510Y4053992D01*
X6504533Y4056532D01*
X6515100Y4060698D01*
X6524904Y4066387D01*
X6530644Y4070959D01*
X6533642Y4072636D01*
X6536994Y4073194D01*
X6566509Y4073194D01*
X6572859Y4073906D01*
X6578295Y4075836D01*
X6583222Y4078884D01*
X6587286Y4082999D01*
X6590385Y4087876D01*
X6592316Y4093362D01*
X6593027Y4099661D01*
X6593027Y4158538D01*
X6592316Y4164837D01*
X6590385Y4170324D01*
X6587286Y4175201D01*
X6583222Y4179315D01*
X6577330Y4183024D01*
X6574383Y4185818D01*
X6572808Y4189577D01*
X6572808Y4193641D01*
X6574383Y4197400D01*
X6577330Y4200194D01*
X6583222Y4203903D01*
X6587286Y4207967D01*
X6590385Y4212894D01*
X6592316Y4218330D01*
X6593027Y4224680D01*
X6593027Y4232757D01*
X6530949Y4232757D01*
X6530949Y4205782D01*
X6530085Y4201617D01*
X6527596Y4198213D01*
X6523939Y4196130D01*
X6519722Y4195673D01*
X6504330Y4201566D01*
X6493256Y4204055D01*
X6481572Y4204919D01*
X6443421Y4204868D01*
X6439509Y4205630D01*
X6436207Y4207865D01*
X6434023Y4211167D01*
X6433261Y4215028D01*
X6433261Y4232757D01*
X6371183Y4232757D01*
X6371183Y4224680D01*
X6372504Y4214469D01*
X6371590Y4210710D01*
X6369354Y4207560D01*
X6366154Y4205478D01*
X6362344Y4204766D01*
X5448554Y4203395D01*
X5436870Y4202531D01*
X5425846Y4199991D01*
X5415280Y4195826D01*
X5405475Y4190136D01*
X5396585Y4183024D01*
X5388914Y4174744D01*
X5382514Y4165346D01*
X5377637Y4155135D01*
X5374284Y4144264D01*
X5372608Y4133037D01*
X5372658Y4121708D01*
X5374335Y4110482D01*
X5377688Y4099661D01*
X5382666Y4089450D01*
X5389067Y4080103D01*
X5396788Y4071823D01*
X5405628Y4064762D01*
X5415483Y4059072D01*
X5426049Y4054957D01*
X5437124Y4052468D01*
G37*
G36*
X1950415Y4262882D02*
G01*
X2189784Y4262882D01*
X2203907Y4263796D01*
X2217521Y4266539D01*
X2230628Y4270959D01*
X2243023Y4277106D01*
X2254554Y4284776D01*
X2264968Y4293920D01*
X2274112Y4304334D01*
X2281783Y4315866D01*
X2287930Y4328261D01*
X2292400Y4341418D01*
X2295093Y4354982D01*
X2296007Y4368800D01*
X2295093Y4382617D01*
X2292400Y4396181D01*
X2287930Y4409338D01*
X2281783Y4421733D01*
X2274112Y4433265D01*
X2264968Y4443679D01*
X2254554Y4452823D01*
X2243023Y4460494D01*
X2230628Y4466640D01*
X2217521Y4471060D01*
X2203907Y4473803D01*
X2189784Y4474718D01*
X1950415Y4474718D01*
X1936292Y4473803D01*
X1922678Y4471060D01*
X1909572Y4466640D01*
X1897176Y4460494D01*
X1885645Y4452823D01*
X1875231Y4443679D01*
X1866087Y4433265D01*
X1858416Y4421733D01*
X1852269Y4409338D01*
X1847799Y4396181D01*
X1845106Y4382617D01*
X1844192Y4368800D01*
X1845106Y4354982D01*
X1847799Y4341418D01*
X1852269Y4328261D01*
X1858416Y4315866D01*
X1866087Y4304334D01*
X1875231Y4293920D01*
X1885645Y4284776D01*
X1897176Y4277106D01*
X1909572Y4270959D01*
X1922678Y4266539D01*
X1936292Y4263796D01*
G37*
G36*
X3982415Y4262882D02*
G01*
X4221784Y4262882D01*
X4235907Y4263796D01*
X4249521Y4266539D01*
X4262628Y4270959D01*
X4275023Y4277106D01*
X4286554Y4284776D01*
X4296968Y4293920D01*
X4306112Y4304334D01*
X4313783Y4315866D01*
X4319930Y4328261D01*
X4324400Y4341418D01*
X4327093Y4354982D01*
X4328007Y4368800D01*
X4327093Y4382617D01*
X4324400Y4396181D01*
X4319930Y4409338D01*
X4313783Y4421733D01*
X4306112Y4433265D01*
X4296968Y4443679D01*
X4286554Y4452823D01*
X4275023Y4460494D01*
X4262628Y4466640D01*
X4249521Y4471060D01*
X4235907Y4473803D01*
X4221784Y4474718D01*
X3982415Y4474718D01*
X3968292Y4473803D01*
X3954678Y4471060D01*
X3941572Y4466640D01*
X3929176Y4460494D01*
X3917645Y4452823D01*
X3907231Y4443679D01*
X3898087Y4433265D01*
X3890416Y4421733D01*
X3884269Y4409338D01*
X3879799Y4396181D01*
X3877106Y4382617D01*
X3876192Y4368800D01*
X3877106Y4354982D01*
X3879799Y4341418D01*
X3884269Y4328261D01*
X3890416Y4315866D01*
X3898087Y4304334D01*
X3907231Y4293920D01*
X3917645Y4284776D01*
X3929176Y4277106D01*
X3941572Y4270959D01*
X3954678Y4266539D01*
X3968292Y4263796D01*
G37*
G36*
X3982415Y4516882D02*
G01*
X4221784Y4516882D01*
X4235907Y4517796D01*
X4249521Y4520539D01*
X4262628Y4524959D01*
X4275023Y4531106D01*
X4286554Y4538776D01*
X4296968Y4547920D01*
X4306112Y4558334D01*
X4313783Y4569866D01*
X4319930Y4582261D01*
X4324400Y4595418D01*
X4327093Y4608982D01*
X4328007Y4622800D01*
X4327093Y4636617D01*
X4324400Y4650181D01*
X4319930Y4663338D01*
X4313783Y4675733D01*
X4306112Y4687265D01*
X4296968Y4697679D01*
X4286554Y4706823D01*
X4275023Y4714494D01*
X4262628Y4720640D01*
X4249521Y4725060D01*
X4235907Y4727803D01*
X4221784Y4728718D01*
X3982415Y4728718D01*
X3968292Y4727803D01*
X3954678Y4725060D01*
X3941572Y4720640D01*
X3929176Y4714494D01*
X3917645Y4706823D01*
X3907231Y4697679D01*
X3898087Y4687265D01*
X3890416Y4675733D01*
X3884269Y4663338D01*
X3879799Y4650181D01*
X3877106Y4636617D01*
X3876192Y4622800D01*
X3877106Y4608982D01*
X3879799Y4595418D01*
X3884269Y4582261D01*
X3890416Y4569866D01*
X3898087Y4558334D01*
X3907231Y4547920D01*
X3917645Y4538776D01*
X3929176Y4531106D01*
X3941572Y4524959D01*
X3954678Y4520539D01*
X3968292Y4517796D01*
G37*
G36*
X1950415Y4516882D02*
G01*
X2189784Y4516882D01*
X2203907Y4517796D01*
X2217521Y4520539D01*
X2230628Y4524959D01*
X2243023Y4531106D01*
X2254554Y4538776D01*
X2264968Y4547920D01*
X2274112Y4558334D01*
X2284730Y4574235D01*
X2287879Y4576216D01*
X2291537Y4576876D01*
X2313279Y4576927D01*
X2321915Y4578146D01*
X2329942Y4580839D01*
X2337308Y4584954D01*
X2344216Y4590694D01*
X2521966Y4768443D01*
X2524099Y4770069D01*
X2526538Y4771085D01*
X2533853Y4773066D01*
X2542794Y4777181D01*
X2550820Y4782820D01*
X2557780Y4789779D01*
X2563418Y4797806D01*
X2567533Y4806746D01*
X2570073Y4816195D01*
X2570937Y4826000D01*
X2570073Y4835804D01*
X2567533Y4845253D01*
X2563418Y4854194D01*
X2557780Y4862220D01*
X2550820Y4869180D01*
X2542794Y4874818D01*
X2533853Y4878933D01*
X2524404Y4881473D01*
X2514600Y4882337D01*
X2504795Y4881473D01*
X2495346Y4878933D01*
X2486406Y4874818D01*
X2478379Y4869180D01*
X2471420Y4862220D01*
X2465781Y4854194D01*
X2461666Y4845253D01*
X2459685Y4837938D01*
X2458669Y4835499D01*
X2457043Y4833366D01*
X2297633Y4673955D01*
X2293874Y4671568D01*
X2289454Y4671009D01*
X2285187Y4672380D01*
X2281986Y4675479D01*
X2274112Y4687265D01*
X2264968Y4697679D01*
X2254554Y4706823D01*
X2243023Y4714494D01*
X2230628Y4720640D01*
X2217521Y4725060D01*
X2203907Y4727803D01*
X2189784Y4728718D01*
X1950415Y4728718D01*
X1936292Y4727803D01*
X1922678Y4725060D01*
X1909572Y4720640D01*
X1897176Y4714494D01*
X1885645Y4706823D01*
X1875231Y4697679D01*
X1866087Y4687265D01*
X1858416Y4675733D01*
X1852269Y4663338D01*
X1847799Y4650181D01*
X1845106Y4636617D01*
X1844192Y4622800D01*
X1845106Y4608982D01*
X1847799Y4595418D01*
X1852269Y4582261D01*
X1858416Y4569866D01*
X1866087Y4558334D01*
X1875231Y4547920D01*
X1885645Y4538776D01*
X1897176Y4531106D01*
X1909572Y4524959D01*
X1922678Y4520539D01*
X1936292Y4517796D01*
G37*
G36*
X6371183Y4650435D02*
G01*
X6433261Y4650435D01*
X6433261Y4688027D01*
X6434023Y4691938D01*
X6436207Y4695240D01*
X6439509Y4697425D01*
X6443421Y4698187D01*
X6520789Y4698187D01*
X6524701Y4697425D01*
X6527952Y4695240D01*
X6530187Y4691938D01*
X6530949Y4688027D01*
X6530949Y4650435D01*
X6593027Y4650435D01*
X6593027Y4658512D01*
X6592316Y4664862D01*
X6590385Y4670298D01*
X6587286Y4675225D01*
X6583222Y4679289D01*
X6577330Y4682998D01*
X6574383Y4685842D01*
X6572808Y4689551D01*
X6572808Y4693666D01*
X6574383Y4697374D01*
X6577330Y4700219D01*
X6583222Y4703876D01*
X6587286Y4707991D01*
X6590385Y4712868D01*
X6592316Y4718354D01*
X6593027Y4724654D01*
X6593027Y4783531D01*
X6592316Y4789830D01*
X6590385Y4795316D01*
X6587286Y4800193D01*
X6583222Y4804308D01*
X6578295Y4807407D01*
X6572859Y4809286D01*
X6566509Y4809998D01*
X6397650Y4809998D01*
X6391351Y4809286D01*
X6385864Y4807407D01*
X6380988Y4804308D01*
X6376873Y4800193D01*
X6373825Y4795316D01*
X6371894Y4789830D01*
X6371183Y4783531D01*
X6371183Y4724654D01*
X6371894Y4718354D01*
X6373825Y4712868D01*
X6376873Y4707991D01*
X6380988Y4703876D01*
X6386880Y4700168D01*
X6389827Y4697374D01*
X6391402Y4693615D01*
X6391402Y4689551D01*
X6389776Y4685792D01*
X6386880Y4682998D01*
X6380988Y4679289D01*
X6376873Y4675225D01*
X6373825Y4670298D01*
X6371894Y4664862D01*
X6371183Y4658512D01*
G37*
G36*
X1950415Y4770882D02*
G01*
X1963775Y4770882D01*
X1963775Y4830470D01*
X1855165Y4830470D01*
X1858416Y4823866D01*
X1866087Y4812334D01*
X1875231Y4801920D01*
X1885645Y4792776D01*
X1897176Y4785106D01*
X1909572Y4778959D01*
X1922678Y4774539D01*
X1936292Y4771796D01*
G37*
G36*
X3982415Y4770882D02*
G01*
X3995775Y4770882D01*
X3995775Y4830470D01*
X3887165Y4830470D01*
X3890416Y4823866D01*
X3898087Y4812334D01*
X3907231Y4801920D01*
X3917645Y4792776D01*
X3929176Y4785106D01*
X3941572Y4778959D01*
X3954678Y4774539D01*
X3968292Y4771796D01*
G37*
G36*
X2176475Y4770882D02*
G01*
X2189784Y4770882D01*
X2203907Y4771796D01*
X2217521Y4774539D01*
X2230628Y4778959D01*
X2243023Y4785106D01*
X2254554Y4792776D01*
X2264968Y4801920D01*
X2274112Y4812334D01*
X2281783Y4823866D01*
X2285034Y4830470D01*
X2176475Y4830470D01*
G37*
G36*
X4208475Y4770882D02*
G01*
X4221784Y4770882D01*
X4235907Y4771796D01*
X4249521Y4774539D01*
X4262628Y4778959D01*
X4275023Y4785106D01*
X4286554Y4792776D01*
X4296968Y4801920D01*
X4306112Y4812334D01*
X4313783Y4823866D01*
X4317034Y4830470D01*
X4208475Y4830470D01*
G37*
G36*
X3715410Y4851908D02*
G01*
X3726789Y4851908D01*
X3737965Y4853635D01*
X3748836Y4856988D01*
X3759047Y4861864D01*
X3768394Y4868265D01*
X3776726Y4875987D01*
X3783787Y4884877D01*
X3789476Y4894681D01*
X3793591Y4905248D01*
X3796131Y4916271D01*
X3796995Y4927955D01*
X3796995Y8727338D01*
X3797757Y8731250D01*
X3799992Y8734552D01*
X3914495Y8849055D01*
X3917340Y8851036D01*
X3920693Y8852001D01*
X3924147Y8851747D01*
X3927348Y8850325D01*
X3929176Y8849106D01*
X3941572Y8842959D01*
X3954678Y8838539D01*
X3968292Y8835796D01*
X3982415Y8834882D01*
X4221784Y8834882D01*
X4235907Y8835796D01*
X4249521Y8838539D01*
X4262628Y8842959D01*
X4275023Y8849106D01*
X4286554Y8856776D01*
X4296968Y8865920D01*
X4306112Y8876334D01*
X4313783Y8887866D01*
X4319930Y8900261D01*
X4324400Y8913418D01*
X4327093Y8926982D01*
X4328007Y8940800D01*
X4327093Y8954617D01*
X4324400Y8968181D01*
X4319930Y8981338D01*
X4313783Y8993733D01*
X4306112Y9005265D01*
X4296968Y9015679D01*
X4286554Y9024823D01*
X4275023Y9032494D01*
X4262628Y9038640D01*
X4249521Y9043060D01*
X4235907Y9045803D01*
X4221784Y9046718D01*
X3982415Y9046718D01*
X3968292Y9045803D01*
X3954678Y9043060D01*
X3941572Y9038640D01*
X3929176Y9032494D01*
X3917645Y9024823D01*
X3911295Y9019235D01*
X3908196Y9017355D01*
X3904640Y9016695D01*
X3896207Y9016644D01*
X3887419Y9015831D01*
X3884980Y9015425D01*
X3876344Y9013291D01*
X3874008Y9012529D01*
X3865778Y9009126D01*
X3863594Y9008008D01*
X3855974Y9003385D01*
X3847134Y8996324D01*
X3665575Y8814765D01*
X3658514Y8805926D01*
X3653891Y8798306D01*
X3652774Y8796121D01*
X3649370Y8787892D01*
X3648608Y8785555D01*
X3646474Y8776919D01*
X3646068Y8774480D01*
X3645255Y8765641D01*
X3645204Y7836763D01*
X3644290Y7832648D01*
X3641801Y7829194D01*
X3638092Y7827111D01*
X3633876Y7826705D01*
X3629812Y7828076D01*
X3626713Y7830972D01*
X3624579Y7834020D01*
X3617620Y7840980D01*
X3609594Y7846618D01*
X3600653Y7850733D01*
X3591204Y7853273D01*
X3581400Y7854137D01*
X3571595Y7853273D01*
X3562146Y7850733D01*
X3553206Y7846618D01*
X3545179Y7840980D01*
X3538220Y7834020D01*
X3532581Y7825994D01*
X3528466Y7817053D01*
X3525926Y7807604D01*
X3525062Y7797800D01*
X3525926Y7787995D01*
X3528466Y7778546D01*
X3532581Y7769606D01*
X3535019Y7765338D01*
X3535476Y7762290D01*
X3535476Y7653781D01*
X3534714Y7649870D01*
X3532530Y7646568D01*
X3529228Y7644384D01*
X3525316Y7643622D01*
X3521456Y7644384D01*
X3518154Y7646568D01*
X3460191Y7704480D01*
X3453129Y7709814D01*
X3445560Y7713573D01*
X3437432Y7715859D01*
X3428542Y7716723D01*
X2291588Y7716723D01*
X2287879Y7717383D01*
X2284730Y7719364D01*
X2274112Y7735265D01*
X2264968Y7745679D01*
X2254554Y7754823D01*
X2243023Y7762494D01*
X2230628Y7768640D01*
X2217521Y7773060D01*
X2203907Y7775803D01*
X2189784Y7776718D01*
X1950415Y7776718D01*
X1936292Y7775803D01*
X1922678Y7773060D01*
X1909572Y7768640D01*
X1897176Y7762494D01*
X1885645Y7754823D01*
X1875231Y7745679D01*
X1866087Y7735265D01*
X1858416Y7723733D01*
X1852269Y7711338D01*
X1847799Y7698181D01*
X1845106Y7684617D01*
X1844192Y7670800D01*
X1845106Y7656982D01*
X1847799Y7643418D01*
X1852269Y7630261D01*
X1858416Y7617866D01*
X1866087Y7606334D01*
X1875231Y7595920D01*
X1885645Y7586776D01*
X1897176Y7579106D01*
X1909572Y7572959D01*
X1922678Y7568539D01*
X1936292Y7565796D01*
X1950415Y7564881D01*
X2189784Y7564881D01*
X2203907Y7565796D01*
X2217521Y7568539D01*
X2230628Y7572959D01*
X2243023Y7579106D01*
X2254554Y7586776D01*
X2264968Y7595920D01*
X2274112Y7606334D01*
X2284730Y7622235D01*
X2287879Y7624216D01*
X2291588Y7624876D01*
X3405784Y7624876D01*
X3409645Y7624114D01*
X3412947Y7621930D01*
X3456330Y7578547D01*
X3458514Y7575245D01*
X3459276Y7571384D01*
X3459276Y7423403D01*
X3458565Y7419543D01*
X3456381Y7416292D01*
X3453180Y7414056D01*
X3449370Y7413244D01*
X3445560Y7413904D01*
X3442208Y7415936D01*
X3434079Y7427620D01*
X3427120Y7434580D01*
X3419094Y7440218D01*
X3410153Y7444333D01*
X3400704Y7446873D01*
X3390900Y7447737D01*
X3381095Y7446873D01*
X3371646Y7444333D01*
X3362706Y7440218D01*
X3354679Y7434580D01*
X3347720Y7427620D01*
X3342081Y7419594D01*
X3337966Y7410653D01*
X3335426Y7401204D01*
X3334562Y7391400D01*
X3335426Y7381595D01*
X3337966Y7372146D01*
X3342081Y7363206D01*
X3344519Y7358938D01*
X3344976Y7355890D01*
X3344976Y7175246D01*
X3344316Y7171588D01*
X3342386Y7168438D01*
X3339439Y7166203D01*
X3335883Y7165136D01*
X3332226Y7165441D01*
X3324504Y7167473D01*
X3314700Y7168337D01*
X3304895Y7167473D01*
X3295446Y7164933D01*
X3286506Y7160818D01*
X3278479Y7155180D01*
X3271520Y7148220D01*
X3265881Y7140194D01*
X3261766Y7131253D01*
X3259785Y7123938D01*
X3258769Y7121499D01*
X3257143Y7119366D01*
X2587447Y6449669D01*
X2584145Y6447485D01*
X2580284Y6446723D01*
X2291588Y6446723D01*
X2287879Y6447383D01*
X2284730Y6449364D01*
X2274112Y6465265D01*
X2264968Y6475679D01*
X2254554Y6484823D01*
X2243023Y6492494D01*
X2230628Y6498640D01*
X2217521Y6503060D01*
X2203907Y6505803D01*
X2189784Y6506718D01*
X1950415Y6506718D01*
X1936292Y6505803D01*
X1922678Y6503060D01*
X1909572Y6498640D01*
X1897176Y6492494D01*
X1885645Y6484823D01*
X1875231Y6475679D01*
X1866087Y6465265D01*
X1858416Y6453733D01*
X1852269Y6441338D01*
X1847799Y6428181D01*
X1845106Y6414617D01*
X1844192Y6400800D01*
X1845106Y6386982D01*
X1847799Y6373418D01*
X1852269Y6360261D01*
X1858416Y6347866D01*
X1866087Y6336334D01*
X1875231Y6325920D01*
X1885645Y6316776D01*
X1897176Y6309106D01*
X1909572Y6302959D01*
X1922678Y6298539D01*
X1936292Y6295796D01*
X1950415Y6294882D01*
X2189784Y6294882D01*
X2203907Y6295796D01*
X2217521Y6298539D01*
X2230628Y6302959D01*
X2243023Y6309106D01*
X2254554Y6316776D01*
X2264968Y6325920D01*
X2274112Y6336334D01*
X2284730Y6352235D01*
X2287879Y6354216D01*
X2291588Y6354876D01*
X2605278Y6354927D01*
X2614015Y6356146D01*
X2622042Y6358839D01*
X2629408Y6362954D01*
X2636316Y6368694D01*
X3322065Y7054443D01*
X3324199Y7056069D01*
X3326637Y7057085D01*
X3332226Y7058558D01*
X3335883Y7058863D01*
X3339439Y7057796D01*
X3342386Y7055561D01*
X3344316Y7052411D01*
X3344976Y7048753D01*
X3344976Y6881215D01*
X3344214Y6877354D01*
X3342030Y6874052D01*
X2409647Y5941669D01*
X2406345Y5939485D01*
X2402484Y5938723D01*
X2291588Y5938723D01*
X2287879Y5939383D01*
X2284730Y5941364D01*
X2274112Y5957265D01*
X2264968Y5967679D01*
X2254554Y5976823D01*
X2243023Y5984494D01*
X2230628Y5990640D01*
X2217521Y5995060D01*
X2203907Y5997803D01*
X2189784Y5998718D01*
X1950415Y5998718D01*
X1936292Y5997803D01*
X1922678Y5995060D01*
X1909572Y5990640D01*
X1897176Y5984494D01*
X1885645Y5976823D01*
X1875231Y5967679D01*
X1866087Y5957265D01*
X1858416Y5945733D01*
X1852269Y5933338D01*
X1847799Y5920181D01*
X1845106Y5906617D01*
X1844192Y5892800D01*
X1845106Y5878982D01*
X1847799Y5865418D01*
X1852269Y5852261D01*
X1858416Y5839866D01*
X1866087Y5828334D01*
X1875231Y5817920D01*
X1885645Y5808776D01*
X1897176Y5801106D01*
X1909572Y5794959D01*
X1922678Y5790539D01*
X1936292Y5787796D01*
X1950415Y5786882D01*
X2189784Y5786882D01*
X2203907Y5787796D01*
X2217521Y5790539D01*
X2230628Y5794959D01*
X2243023Y5801106D01*
X2254554Y5808776D01*
X2264968Y5817920D01*
X2274112Y5828334D01*
X2284730Y5844235D01*
X2287879Y5846216D01*
X2291588Y5846876D01*
X2427478Y5846927D01*
X2436215Y5848146D01*
X2444242Y5850839D01*
X2451608Y5854954D01*
X2458516Y5860694D01*
X3424580Y6826808D01*
X3429914Y6833870D01*
X3433673Y6841439D01*
X3435959Y6849567D01*
X3436823Y6858457D01*
X3436823Y6991096D01*
X3437534Y6994956D01*
X3439718Y6998208D01*
X3442919Y7000443D01*
X3446729Y7001256D01*
X3450539Y7000595D01*
X3453892Y6998563D01*
X3462020Y6986879D01*
X3468979Y6979920D01*
X3477006Y6974281D01*
X3485946Y6970166D01*
X3495395Y6967626D01*
X3505200Y6966762D01*
X3515004Y6967626D01*
X3522726Y6969658D01*
X3526383Y6969963D01*
X3529939Y6968896D01*
X3532886Y6966661D01*
X3534816Y6963511D01*
X3535476Y6959853D01*
X3535476Y6817715D01*
X3534714Y6813854D01*
X3532530Y6810552D01*
X2409647Y5687669D01*
X2406345Y5685485D01*
X2402484Y5684723D01*
X2291588Y5684723D01*
X2287879Y5685383D01*
X2284730Y5687364D01*
X2274112Y5703265D01*
X2264968Y5713679D01*
X2254554Y5722823D01*
X2243023Y5730494D01*
X2230628Y5736640D01*
X2217521Y5741060D01*
X2203907Y5743803D01*
X2189784Y5744718D01*
X1950415Y5744718D01*
X1936292Y5743803D01*
X1922678Y5741060D01*
X1909572Y5736640D01*
X1897176Y5730494D01*
X1885645Y5722823D01*
X1875231Y5713679D01*
X1866087Y5703265D01*
X1858416Y5691733D01*
X1852269Y5679338D01*
X1847799Y5666181D01*
X1845106Y5652617D01*
X1844192Y5638800D01*
X1845106Y5624982D01*
X1847799Y5611418D01*
X1852269Y5598261D01*
X1858416Y5585866D01*
X1866087Y5574334D01*
X1875231Y5563920D01*
X1885645Y5554776D01*
X1897176Y5547106D01*
X1909572Y5540959D01*
X1922678Y5536539D01*
X1936292Y5533796D01*
X1950415Y5532882D01*
X2189784Y5532882D01*
X2203907Y5533796D01*
X2217521Y5536539D01*
X2230628Y5540959D01*
X2243023Y5547106D01*
X2254554Y5554776D01*
X2264968Y5563920D01*
X2274112Y5574334D01*
X2284730Y5590235D01*
X2287879Y5592216D01*
X2291588Y5592876D01*
X2427478Y5592927D01*
X2436215Y5594146D01*
X2444242Y5596839D01*
X2451608Y5600954D01*
X2458516Y5606694D01*
X3615080Y6763308D01*
X3620414Y6770370D01*
X3624173Y6777939D01*
X3625240Y6781749D01*
X3627170Y6785406D01*
X3630371Y6788048D01*
X3634384Y6789115D01*
X3638448Y6788556D01*
X3641953Y6786422D01*
X3644341Y6783019D01*
X3645204Y6779006D01*
X3645204Y4927955D01*
X3646068Y4916271D01*
X3648608Y4905248D01*
X3652723Y4894681D01*
X3658412Y4884877D01*
X3665474Y4875987D01*
X3673805Y4868265D01*
X3683152Y4861864D01*
X3693363Y4856988D01*
X3704234Y4853635D01*
G37*
G36*
X6027674Y4863185D02*
G01*
X6296507Y4863185D01*
X6302857Y4863896D01*
X6308293Y4865827D01*
X6313220Y4868875D01*
X6317284Y4872990D01*
X6320383Y4877866D01*
X6322314Y4883353D01*
X6323025Y4889652D01*
X6323025Y4988509D01*
X6322314Y4994859D01*
X6320383Y5000294D01*
X6317284Y5005222D01*
X6313220Y5009286D01*
X6308293Y5012385D01*
X6302857Y5014315D01*
X6296507Y5015026D01*
X6027674Y5015026D01*
X6021374Y5014315D01*
X6015888Y5012385D01*
X6011011Y5009286D01*
X6006896Y5005222D01*
X6003798Y5000294D01*
X6001918Y4994859D01*
X6001207Y4988509D01*
X6001207Y4889652D01*
X6001918Y4883353D01*
X6003798Y4877866D01*
X6006896Y4872990D01*
X6011011Y4868875D01*
X6015888Y4865827D01*
X6021374Y4863896D01*
G37*
G36*
X2176475Y4923129D02*
G01*
X2285034Y4923129D01*
X2281783Y4929733D01*
X2274112Y4941265D01*
X2264968Y4951679D01*
X2254554Y4960823D01*
X2243023Y4968494D01*
X2230628Y4974640D01*
X2217521Y4979060D01*
X2203907Y4981803D01*
X2189784Y4982718D01*
X2176475Y4982718D01*
G37*
G36*
X1855165Y4923129D02*
G01*
X1963775Y4923129D01*
X1963775Y4982718D01*
X1950415Y4982718D01*
X1936292Y4981803D01*
X1922678Y4979060D01*
X1909572Y4974640D01*
X1897176Y4968494D01*
X1885645Y4960823D01*
X1875231Y4951679D01*
X1866087Y4941265D01*
X1858416Y4929733D01*
G37*
G36*
X3887165Y4923129D02*
G01*
X3995775Y4923129D01*
X3995775Y4982718D01*
X3982415Y4982718D01*
X3968292Y4981803D01*
X3954678Y4979060D01*
X3941572Y4974640D01*
X3929176Y4968494D01*
X3917645Y4960823D01*
X3907231Y4951679D01*
X3898087Y4941265D01*
X3890416Y4929733D01*
G37*
G36*
X4208475Y4923129D02*
G01*
X4317034Y4923129D01*
X4313783Y4929733D01*
X4306112Y4941265D01*
X4296968Y4951679D01*
X4286554Y4960823D01*
X4275023Y4968494D01*
X4262628Y4974640D01*
X4249521Y4979060D01*
X4235907Y4981803D01*
X4221784Y4982718D01*
X4208475Y4982718D01*
G37*
G36*
X3982415Y5024882D02*
G01*
X4221784Y5024882D01*
X4235907Y5025796D01*
X4249521Y5028539D01*
X4262628Y5032959D01*
X4275023Y5039106D01*
X4286554Y5046776D01*
X4296968Y5055920D01*
X4306112Y5066334D01*
X4313783Y5077866D01*
X4319930Y5090261D01*
X4324400Y5103418D01*
X4327093Y5116982D01*
X4328007Y5130800D01*
X4327093Y5144617D01*
X4324400Y5158181D01*
X4319930Y5171338D01*
X4313783Y5183733D01*
X4306112Y5195265D01*
X4296968Y5205679D01*
X4286554Y5214823D01*
X4275023Y5222494D01*
X4262628Y5228640D01*
X4249521Y5233060D01*
X4235907Y5235803D01*
X4221784Y5236718D01*
X3982415Y5236718D01*
X3968292Y5235803D01*
X3954678Y5233060D01*
X3941572Y5228640D01*
X3929176Y5222494D01*
X3917645Y5214823D01*
X3907231Y5205679D01*
X3898087Y5195265D01*
X3890416Y5183733D01*
X3884269Y5171338D01*
X3879799Y5158181D01*
X3877106Y5144617D01*
X3876192Y5130800D01*
X3877106Y5116982D01*
X3879799Y5103418D01*
X3884269Y5090261D01*
X3890416Y5077866D01*
X3898087Y5066334D01*
X3907231Y5055920D01*
X3917645Y5046776D01*
X3929176Y5039106D01*
X3941572Y5032959D01*
X3954678Y5028539D01*
X3968292Y5025796D01*
G37*
G36*
X5067300Y5188762D02*
G01*
X5077104Y5189626D01*
X5086553Y5192166D01*
X5095494Y5196281D01*
X5099761Y5198719D01*
X5102809Y5199176D01*
X5780278Y5199227D01*
X5789015Y5200446D01*
X5797042Y5203139D01*
X5804408Y5207254D01*
X5811316Y5212994D01*
X6363004Y5764733D01*
X6368288Y5771743D01*
X6372047Y5779312D01*
X6374384Y5787491D01*
X6375196Y5796381D01*
X6375196Y6189319D01*
X6375857Y6192977D01*
X6377787Y6196076D01*
X6380683Y6198362D01*
X6385052Y6199530D01*
X6390487Y6201410D01*
X6395415Y6204508D01*
X6399479Y6208623D01*
X6402578Y6213500D01*
X6404508Y6218986D01*
X6405219Y6225286D01*
X6405219Y6524142D01*
X6404508Y6530441D01*
X6402578Y6535928D01*
X6399479Y6540804D01*
X6395415Y6544919D01*
X6390487Y6548018D01*
X6385052Y6549898D01*
X6378752Y6550609D01*
X6279845Y6550609D01*
X6273546Y6549898D01*
X6268110Y6548018D01*
X6263182Y6544919D01*
X6259118Y6540804D01*
X6256020Y6535928D01*
X6254089Y6530441D01*
X6253378Y6524142D01*
X6253378Y6225286D01*
X6254089Y6218986D01*
X6256020Y6213500D01*
X6259118Y6208623D01*
X6263182Y6204508D01*
X6268110Y6201410D01*
X6277914Y6198362D01*
X6280810Y6196076D01*
X6282740Y6192977D01*
X6283401Y6189319D01*
X6283401Y5819140D01*
X6282639Y5815228D01*
X6280404Y5811926D01*
X5762447Y5293969D01*
X5759145Y5291785D01*
X5755284Y5291023D01*
X5102809Y5291023D01*
X5099761Y5291480D01*
X5095494Y5293918D01*
X5086553Y5298033D01*
X5077104Y5300573D01*
X5067300Y5301437D01*
X5057495Y5300573D01*
X5048046Y5298033D01*
X5039106Y5293918D01*
X5031079Y5288280D01*
X5024120Y5281320D01*
X5018481Y5273294D01*
X5014366Y5264353D01*
X5011826Y5254904D01*
X5010962Y5245100D01*
X5011826Y5235295D01*
X5014366Y5225846D01*
X5018481Y5216906D01*
X5024120Y5208879D01*
X5031079Y5201920D01*
X5039106Y5196281D01*
X5048046Y5192166D01*
X5057495Y5189626D01*
G37*
G36*
X3982415Y5278882D02*
G01*
X4221784Y5278882D01*
X4235907Y5279796D01*
X4249521Y5282539D01*
X4262628Y5286959D01*
X4275023Y5293106D01*
X4286554Y5300776D01*
X4296968Y5309920D01*
X4306112Y5320334D01*
X4313783Y5331866D01*
X4319930Y5344261D01*
X4324400Y5357418D01*
X4327093Y5370982D01*
X4328007Y5384800D01*
X4327093Y5398617D01*
X4324400Y5412181D01*
X4319930Y5425338D01*
X4313783Y5437733D01*
X4306112Y5449265D01*
X4296968Y5459679D01*
X4286554Y5468823D01*
X4275023Y5476494D01*
X4262628Y5482640D01*
X4249521Y5487060D01*
X4235907Y5489803D01*
X4221784Y5490718D01*
X3982415Y5490718D01*
X3968292Y5489803D01*
X3954678Y5487060D01*
X3941572Y5482640D01*
X3929176Y5476494D01*
X3917645Y5468823D01*
X3907231Y5459679D01*
X3898087Y5449265D01*
X3890416Y5437733D01*
X3884269Y5425338D01*
X3879799Y5412181D01*
X3877106Y5398617D01*
X3876192Y5384800D01*
X3877106Y5370982D01*
X3879799Y5357418D01*
X3884269Y5344261D01*
X3890416Y5331866D01*
X3898087Y5320334D01*
X3907231Y5309920D01*
X3917645Y5300776D01*
X3929176Y5293106D01*
X3941572Y5286959D01*
X3954678Y5282539D01*
X3968292Y5279796D01*
G37*
G36*
X3982415Y5532882D02*
G01*
X4221784Y5532882D01*
X4235907Y5533796D01*
X4249521Y5536539D01*
X4262628Y5540959D01*
X4275023Y5547106D01*
X4286554Y5554776D01*
X4296968Y5563920D01*
X4306112Y5574334D01*
X4313783Y5585866D01*
X4319930Y5598261D01*
X4324400Y5611418D01*
X4327093Y5624982D01*
X4328007Y5638800D01*
X4327093Y5652617D01*
X4324400Y5666181D01*
X4319930Y5679338D01*
X4313783Y5691733D01*
X4306112Y5703265D01*
X4296968Y5713679D01*
X4286554Y5722823D01*
X4275023Y5730494D01*
X4262628Y5736640D01*
X4249521Y5741060D01*
X4235907Y5743803D01*
X4221784Y5744718D01*
X3982415Y5744718D01*
X3968292Y5743803D01*
X3954678Y5741060D01*
X3941572Y5736640D01*
X3929176Y5730494D01*
X3917645Y5722823D01*
X3907231Y5713679D01*
X3898087Y5703265D01*
X3890416Y5691733D01*
X3884269Y5679338D01*
X3879799Y5666181D01*
X3877106Y5652617D01*
X3876192Y5638800D01*
X3877106Y5624982D01*
X3879799Y5611418D01*
X3884269Y5598261D01*
X3890416Y5585866D01*
X3898087Y5574334D01*
X3907231Y5563920D01*
X3917645Y5554776D01*
X3929176Y5547106D01*
X3941572Y5540959D01*
X3954678Y5536539D01*
X3968292Y5533796D01*
G37*
G36*
X5130800Y5747562D02*
G01*
X5140604Y5748426D01*
X5150053Y5750966D01*
X5158994Y5755081D01*
X5167020Y5760720D01*
X5173980Y5767679D01*
X5179618Y5775706D01*
X5183733Y5784646D01*
X5185714Y5791962D01*
X5186730Y5794400D01*
X5188356Y5796534D01*
X5298998Y5907176D01*
X5302453Y5909411D01*
X5306466Y5910122D01*
X5310479Y5909208D01*
X5313781Y5906719D01*
X5315813Y5903163D01*
X5316321Y5899099D01*
X5315762Y5892800D01*
X5316626Y5882995D01*
X5319166Y5873546D01*
X5323281Y5864606D01*
X5328920Y5856579D01*
X5335879Y5849620D01*
X5343906Y5843981D01*
X5352846Y5839866D01*
X5362295Y5837326D01*
X5372100Y5836462D01*
X5381904Y5837326D01*
X5391353Y5839866D01*
X5400294Y5843981D01*
X5408320Y5849620D01*
X5415280Y5856579D01*
X5420918Y5864606D01*
X5425033Y5873546D01*
X5427014Y5880862D01*
X5428030Y5883300D01*
X5429656Y5885434D01*
X5556808Y6012586D01*
X5560161Y6014821D01*
X5564124Y6015583D01*
X5568086Y6014720D01*
X5571388Y6012434D01*
X5573522Y6009030D01*
X5574182Y6005017D01*
X5570626Y5991504D01*
X5569762Y5981700D01*
X5570626Y5971895D01*
X5573166Y5962446D01*
X5577281Y5953506D01*
X5582920Y5945479D01*
X5589879Y5938520D01*
X5597906Y5932881D01*
X5606846Y5928766D01*
X5616295Y5926226D01*
X5626100Y5925362D01*
X5635904Y5926226D01*
X5645353Y5928766D01*
X5654294Y5932881D01*
X5662320Y5938520D01*
X5669280Y5945479D01*
X5674918Y5953506D01*
X5679033Y5962446D01*
X5681014Y5969762D01*
X5682030Y5972200D01*
X5683656Y5974334D01*
X5763006Y6053734D01*
X5768289Y6060744D01*
X5772048Y6068314D01*
X5774385Y6076492D01*
X5775198Y6085382D01*
X5775198Y6189319D01*
X5775858Y6192977D01*
X5777788Y6196076D01*
X5780684Y6198362D01*
X5785053Y6199530D01*
X5790488Y6201410D01*
X5795416Y6204508D01*
X5799480Y6208623D01*
X5802579Y6213500D01*
X5804509Y6218986D01*
X5805220Y6225286D01*
X5805220Y6524142D01*
X5804509Y6530441D01*
X5802579Y6535928D01*
X5799480Y6540804D01*
X5795416Y6544919D01*
X5790488Y6548018D01*
X5785053Y6549898D01*
X5778754Y6550609D01*
X5679846Y6550609D01*
X5673547Y6549898D01*
X5668111Y6548018D01*
X5663184Y6544919D01*
X5659120Y6540804D01*
X5656021Y6535928D01*
X5654090Y6530441D01*
X5653379Y6524142D01*
X5653379Y6225286D01*
X5654090Y6218986D01*
X5656021Y6213500D01*
X5659120Y6208623D01*
X5663184Y6204508D01*
X5668111Y6201410D01*
X5677916Y6198362D01*
X5680811Y6196076D01*
X5682742Y6192977D01*
X5683402Y6189319D01*
X5683402Y6108141D01*
X5682640Y6104229D01*
X5680405Y6100927D01*
X5618734Y6039256D01*
X5616600Y6037630D01*
X5614162Y6036614D01*
X5606846Y6034633D01*
X5597906Y6030518D01*
X5585510Y6021832D01*
X5581142Y6021273D01*
X5576925Y6022644D01*
X5573674Y6025692D01*
X5572048Y6029756D01*
X5572302Y6034176D01*
X5574385Y6041593D01*
X5575198Y6050483D01*
X5575198Y6189319D01*
X5575858Y6192977D01*
X5577789Y6196076D01*
X5580684Y6198362D01*
X5585053Y6199530D01*
X5590489Y6201410D01*
X5595416Y6204508D01*
X5599480Y6208623D01*
X5602579Y6213500D01*
X5604510Y6218986D01*
X5605221Y6225286D01*
X5605221Y6524142D01*
X5604510Y6530441D01*
X5602579Y6535928D01*
X5599480Y6540804D01*
X5595416Y6544919D01*
X5590489Y6548018D01*
X5585053Y6549898D01*
X5578754Y6550609D01*
X5479846Y6550609D01*
X5473547Y6549898D01*
X5468112Y6548018D01*
X5463184Y6544919D01*
X5459120Y6540804D01*
X5456021Y6535928D01*
X5454091Y6530441D01*
X5453380Y6524142D01*
X5453380Y6225286D01*
X5454091Y6218986D01*
X5456021Y6213500D01*
X5459120Y6208623D01*
X5463184Y6204508D01*
X5468112Y6201410D01*
X5477916Y6198362D01*
X5480812Y6196076D01*
X5482742Y6192977D01*
X5483402Y6189319D01*
X5483402Y6073241D01*
X5482640Y6069330D01*
X5480405Y6066028D01*
X5388203Y5973826D01*
X5384800Y5971590D01*
X5380786Y5970828D01*
X5376824Y5971743D01*
X5373573Y5974130D01*
X5371439Y5977585D01*
X5370880Y5981598D01*
X5374386Y5993993D01*
X5375198Y6002883D01*
X5375198Y6189319D01*
X5375859Y6192977D01*
X5377789Y6196076D01*
X5380685Y6198362D01*
X5385054Y6199530D01*
X5390489Y6201410D01*
X5395417Y6204508D01*
X5399481Y6208623D01*
X5402580Y6213500D01*
X5404510Y6218986D01*
X5405221Y6225286D01*
X5405221Y6524142D01*
X5404510Y6530441D01*
X5402580Y6535928D01*
X5399481Y6540804D01*
X5395417Y6544919D01*
X5390489Y6548018D01*
X5385054Y6549898D01*
X5378754Y6550609D01*
X5279847Y6550609D01*
X5273548Y6549898D01*
X5268112Y6548018D01*
X5263184Y6544919D01*
X5259120Y6540804D01*
X5256022Y6535928D01*
X5254091Y6530441D01*
X5253380Y6524142D01*
X5253380Y6225286D01*
X5254091Y6218986D01*
X5256022Y6213500D01*
X5259120Y6208623D01*
X5263184Y6204508D01*
X5268112Y6201410D01*
X5277916Y6198362D01*
X5280812Y6196076D01*
X5282742Y6192977D01*
X5283403Y6189319D01*
X5283403Y6025642D01*
X5282641Y6021730D01*
X5280406Y6018428D01*
X5123434Y5861456D01*
X5121300Y5859830D01*
X5118862Y5858814D01*
X5111546Y5856833D01*
X5102606Y5852718D01*
X5094579Y5847080D01*
X5087620Y5840120D01*
X5081981Y5832094D01*
X5077866Y5823153D01*
X5075326Y5813704D01*
X5074462Y5803900D01*
X5075326Y5794095D01*
X5077866Y5784646D01*
X5081981Y5775706D01*
X5087620Y5767679D01*
X5094579Y5760720D01*
X5102606Y5755081D01*
X5111546Y5750966D01*
X5120995Y5748426D01*
G37*
G36*
X3982415Y5786882D02*
G01*
X4221784Y5786882D01*
X4235907Y5787796D01*
X4249521Y5790539D01*
X4262628Y5794959D01*
X4275023Y5801106D01*
X4286554Y5808776D01*
X4296968Y5817920D01*
X4306112Y5828334D01*
X4313783Y5839866D01*
X4319930Y5852261D01*
X4324400Y5865418D01*
X4327093Y5878982D01*
X4328007Y5892800D01*
X4327093Y5906617D01*
X4324400Y5920181D01*
X4319930Y5933338D01*
X4313783Y5945733D01*
X4306112Y5957265D01*
X4296968Y5967679D01*
X4286554Y5976823D01*
X4275023Y5984494D01*
X4262628Y5990640D01*
X4249521Y5995060D01*
X4235907Y5997803D01*
X4221784Y5998718D01*
X3982415Y5998718D01*
X3968292Y5997803D01*
X3954678Y5995060D01*
X3941572Y5990640D01*
X3929176Y5984494D01*
X3917645Y5976823D01*
X3907231Y5967679D01*
X3898087Y5957265D01*
X3890416Y5945733D01*
X3884269Y5933338D01*
X3879799Y5920181D01*
X3877106Y5906617D01*
X3876192Y5892800D01*
X3877106Y5878982D01*
X3879799Y5865418D01*
X3884269Y5852261D01*
X3890416Y5839866D01*
X3898087Y5828334D01*
X3907231Y5817920D01*
X3917645Y5808776D01*
X3929176Y5801106D01*
X3941572Y5794959D01*
X3954678Y5790539D01*
X3968292Y5787796D01*
G37*
G36*
X5918200Y6014262D02*
G01*
X5928004Y6015126D01*
X5937453Y6017666D01*
X5946394Y6021781D01*
X5954420Y6027420D01*
X5961380Y6034379D01*
X5967018Y6042406D01*
X5971133Y6051346D01*
X5973673Y6060795D01*
X5974537Y6070600D01*
X5974435Y6073800D01*
X5975197Y6082182D01*
X5975197Y6189319D01*
X5975858Y6192977D01*
X5977788Y6196076D01*
X5980684Y6198362D01*
X5985052Y6199530D01*
X5990488Y6201410D01*
X5995416Y6204508D01*
X5999480Y6208623D01*
X6002578Y6213500D01*
X6004509Y6218986D01*
X6005220Y6225286D01*
X6005220Y6524142D01*
X6004509Y6530441D01*
X6002578Y6535928D01*
X5999480Y6540804D01*
X5995416Y6544919D01*
X5990488Y6548018D01*
X5985052Y6549898D01*
X5978753Y6550609D01*
X5879846Y6550609D01*
X5873546Y6549898D01*
X5868111Y6548018D01*
X5863183Y6544919D01*
X5859119Y6540804D01*
X5856020Y6535928D01*
X5854090Y6530441D01*
X5853379Y6524142D01*
X5853379Y6225286D01*
X5854090Y6218986D01*
X5856020Y6213500D01*
X5859119Y6208623D01*
X5863183Y6204508D01*
X5868111Y6201410D01*
X5877915Y6198362D01*
X5880811Y6196076D01*
X5882741Y6192977D01*
X5883402Y6189319D01*
X5883402Y6119368D01*
X5882640Y6115507D01*
X5880404Y6112205D01*
X5875020Y6106820D01*
X5869381Y6098794D01*
X5865266Y6089853D01*
X5862726Y6080404D01*
X5861862Y6070600D01*
X5862726Y6060795D01*
X5865266Y6051346D01*
X5869381Y6042406D01*
X5875020Y6034379D01*
X5881979Y6027420D01*
X5890006Y6021781D01*
X5898946Y6017666D01*
X5908395Y6015126D01*
G37*
G36*
X1950415Y6040882D02*
G01*
X1963775Y6040882D01*
X1963775Y6100470D01*
X1855165Y6100470D01*
X1858416Y6093866D01*
X1866087Y6082334D01*
X1875231Y6071920D01*
X1885645Y6062776D01*
X1897176Y6055106D01*
X1909572Y6048959D01*
X1922678Y6044539D01*
X1936292Y6041796D01*
G37*
G36*
X3982415Y6040882D02*
G01*
X3995775Y6040882D01*
X3995775Y6100470D01*
X3887165Y6100470D01*
X3890416Y6093866D01*
X3898087Y6082334D01*
X3907231Y6071920D01*
X3917645Y6062776D01*
X3929176Y6055106D01*
X3941572Y6048959D01*
X3954678Y6044539D01*
X3968292Y6041796D01*
G37*
G36*
X2176475Y6040882D02*
G01*
X2189784Y6040882D01*
X2203907Y6041796D01*
X2217521Y6044539D01*
X2230628Y6048959D01*
X2243023Y6055106D01*
X2254554Y6062776D01*
X2264968Y6071920D01*
X2274112Y6082334D01*
X2281783Y6093866D01*
X2285034Y6100470D01*
X2176475Y6100470D01*
G37*
G36*
X4208475Y6040882D02*
G01*
X4221784Y6040882D01*
X4235907Y6041796D01*
X4249521Y6044539D01*
X4262628Y6048959D01*
X4275023Y6055106D01*
X4286554Y6062776D01*
X4296968Y6071920D01*
X4306112Y6082334D01*
X4313783Y6093866D01*
X4317034Y6100470D01*
X4208475Y6100470D01*
G37*
G36*
X1855165Y6193129D02*
G01*
X1963775Y6193129D01*
X1963775Y6252718D01*
X1950415Y6252718D01*
X1936292Y6251803D01*
X1922678Y6249060D01*
X1909572Y6244640D01*
X1897176Y6238494D01*
X1885645Y6230823D01*
X1875231Y6221679D01*
X1866087Y6211265D01*
X1858416Y6199733D01*
G37*
G36*
X4208475Y6193129D02*
G01*
X4317034Y6193129D01*
X4313783Y6199733D01*
X4306112Y6211265D01*
X4296968Y6221679D01*
X4286554Y6230823D01*
X4275023Y6238494D01*
X4262628Y6244640D01*
X4249521Y6249060D01*
X4235907Y6251803D01*
X4221784Y6252718D01*
X4208475Y6252718D01*
G37*
G36*
X2176475Y6193129D02*
G01*
X2285034Y6193129D01*
X2281783Y6199733D01*
X2274112Y6211265D01*
X2264968Y6221679D01*
X2254554Y6230823D01*
X2243023Y6238494D01*
X2230628Y6244640D01*
X2217521Y6249060D01*
X2203907Y6251803D01*
X2189784Y6252718D01*
X2176475Y6252718D01*
G37*
G36*
X3887165Y6193129D02*
G01*
X3995775Y6193129D01*
X3995775Y6252718D01*
X3982415Y6252718D01*
X3968292Y6251803D01*
X3954678Y6249060D01*
X3941572Y6244640D01*
X3929176Y6238494D01*
X3917645Y6230823D01*
X3907231Y6221679D01*
X3898087Y6211265D01*
X3890416Y6199733D01*
G37*
G36*
X5160670Y6198819D02*
G01*
X5178755Y6198819D01*
X5185054Y6199530D01*
X5190490Y6201410D01*
X5195417Y6204508D01*
X5199481Y6208623D01*
X5202580Y6213500D01*
X5204510Y6218986D01*
X5205222Y6225286D01*
X5205222Y6293358D01*
X5160670Y6293358D01*
G37*
G36*
X6479844Y6198819D02*
G01*
X6497929Y6198819D01*
X6497929Y6293358D01*
X6453378Y6293358D01*
X6453378Y6225286D01*
X6454089Y6218986D01*
X6456019Y6213500D01*
X6459118Y6208623D01*
X6463182Y6204508D01*
X6468110Y6201410D01*
X6473545Y6199530D01*
G37*
G36*
X6560667Y6198819D02*
G01*
X6578752Y6198819D01*
X6585051Y6199530D01*
X6590487Y6201410D01*
X6595414Y6204508D01*
X6599478Y6208623D01*
X6602577Y6213500D01*
X6604508Y6218986D01*
X6605219Y6225286D01*
X6605219Y6293358D01*
X6560667Y6293358D01*
G37*
G36*
X5079847Y6198819D02*
G01*
X5097932Y6198819D01*
X5097932Y6293358D01*
X5053380Y6293358D01*
X5053380Y6225286D01*
X5054092Y6218986D01*
X5056022Y6213500D01*
X5059121Y6208623D01*
X5063185Y6204508D01*
X5068112Y6201410D01*
X5073548Y6199530D01*
G37*
G36*
X3982415Y6294882D02*
G01*
X4221784Y6294882D01*
X4235907Y6295796D01*
X4249521Y6298539D01*
X4262628Y6302959D01*
X4275023Y6309106D01*
X4286554Y6316776D01*
X4296968Y6325920D01*
X4306112Y6336334D01*
X4313783Y6347866D01*
X4319930Y6360261D01*
X4324400Y6373418D01*
X4327093Y6386982D01*
X4328007Y6400800D01*
X4327093Y6414617D01*
X4324400Y6428181D01*
X4319930Y6441338D01*
X4313783Y6453733D01*
X4306112Y6465265D01*
X4296968Y6475679D01*
X4286554Y6484823D01*
X4275023Y6492494D01*
X4262628Y6498640D01*
X4249521Y6503060D01*
X4235907Y6505803D01*
X4221784Y6506718D01*
X3982415Y6506718D01*
X3968292Y6505803D01*
X3954678Y6503060D01*
X3941572Y6498640D01*
X3929176Y6492494D01*
X3917645Y6484823D01*
X3907231Y6475679D01*
X3898087Y6465265D01*
X3890416Y6453733D01*
X3884269Y6441338D01*
X3879799Y6428181D01*
X3877106Y6414617D01*
X3876192Y6400800D01*
X3877106Y6386982D01*
X3879799Y6373418D01*
X3884269Y6360261D01*
X3890416Y6347866D01*
X3898087Y6336334D01*
X3907231Y6325920D01*
X3917645Y6316776D01*
X3929176Y6309106D01*
X3941572Y6302959D01*
X3954678Y6298539D01*
X3968292Y6295796D01*
G37*
G36*
X6560667Y6456070D02*
G01*
X6605219Y6456070D01*
X6605219Y6524142D01*
X6604508Y6530441D01*
X6602577Y6535928D01*
X6599478Y6540804D01*
X6595414Y6544919D01*
X6590487Y6548018D01*
X6585051Y6549898D01*
X6578752Y6550609D01*
X6560667Y6550609D01*
G37*
G36*
X5160670Y6456070D02*
G01*
X5205222Y6456070D01*
X5205222Y6524142D01*
X5204510Y6530441D01*
X5202580Y6535928D01*
X5199481Y6540804D01*
X5195417Y6544919D01*
X5190490Y6548018D01*
X5185054Y6549898D01*
X5178755Y6550609D01*
X5160670Y6550609D01*
G37*
G36*
X6453378Y6456070D02*
G01*
X6497929Y6456070D01*
X6497929Y6550609D01*
X6479844Y6550609D01*
X6473545Y6549898D01*
X6468110Y6548018D01*
X6463182Y6544919D01*
X6459118Y6540804D01*
X6456019Y6535928D01*
X6454089Y6530441D01*
X6453378Y6524142D01*
G37*
G36*
X5053380Y6456070D02*
G01*
X5097932Y6456070D01*
X5097932Y6550609D01*
X5079847Y6550609D01*
X5073548Y6549898D01*
X5068112Y6548018D01*
X5063185Y6544919D01*
X5059121Y6540804D01*
X5056022Y6535928D01*
X5054092Y6530441D01*
X5053380Y6524142D01*
G37*
G36*
X3982415Y6548881D02*
G01*
X4221784Y6548881D01*
X4235907Y6549796D01*
X4249521Y6552539D01*
X4262628Y6556959D01*
X4275023Y6563106D01*
X4286554Y6570776D01*
X4296968Y6579920D01*
X4306112Y6590334D01*
X4313783Y6601866D01*
X4319930Y6614261D01*
X4324400Y6627418D01*
X4327093Y6640982D01*
X4328007Y6654800D01*
X4327093Y6668617D01*
X4324400Y6682181D01*
X4319930Y6695338D01*
X4313783Y6707733D01*
X4306112Y6719265D01*
X4296968Y6729679D01*
X4286554Y6738823D01*
X4275023Y6746494D01*
X4262628Y6752640D01*
X4249521Y6757060D01*
X4235907Y6759803D01*
X4221784Y6760718D01*
X3982415Y6760718D01*
X3968292Y6759803D01*
X3954678Y6757060D01*
X3941572Y6752640D01*
X3929176Y6746494D01*
X3917645Y6738823D01*
X3907231Y6729679D01*
X3898087Y6719265D01*
X3890416Y6707733D01*
X3884269Y6695338D01*
X3879799Y6682181D01*
X3877106Y6668617D01*
X3876192Y6654800D01*
X3877106Y6640982D01*
X3879799Y6627418D01*
X3884269Y6614261D01*
X3890416Y6601866D01*
X3898087Y6590334D01*
X3907231Y6579920D01*
X3917645Y6570776D01*
X3929176Y6563106D01*
X3941572Y6556959D01*
X3954678Y6552539D01*
X3968292Y6549796D01*
G37*
G36*
X1950415Y6548881D02*
G01*
X2189784Y6548881D01*
X2203907Y6549796D01*
X2217521Y6552539D01*
X2230628Y6556959D01*
X2243023Y6563106D01*
X2254554Y6570776D01*
X2264968Y6579920D01*
X2277262Y6594094D01*
X2280158Y6595668D01*
X2283460Y6596176D01*
X2390190Y6596176D01*
X2393238Y6595719D01*
X2397506Y6593281D01*
X2406446Y6589166D01*
X2415895Y6586626D01*
X2425700Y6585762D01*
X2435504Y6586626D01*
X2444953Y6589166D01*
X2453894Y6593281D01*
X2461920Y6598920D01*
X2468880Y6605879D01*
X2474518Y6613906D01*
X2478633Y6622846D01*
X2481173Y6632295D01*
X2482037Y6642100D01*
X2481173Y6651904D01*
X2478633Y6661353D01*
X2474518Y6670294D01*
X2468880Y6678320D01*
X2461920Y6685280D01*
X2453894Y6690918D01*
X2444953Y6695033D01*
X2435504Y6697573D01*
X2425700Y6698437D01*
X2415895Y6697573D01*
X2406446Y6695033D01*
X2397506Y6690918D01*
X2393238Y6688480D01*
X2390190Y6688023D01*
X2297684Y6688023D01*
X2293620Y6688886D01*
X2290216Y6691325D01*
X2287930Y6695338D01*
X2281783Y6707733D01*
X2274112Y6719265D01*
X2264968Y6729679D01*
X2254554Y6738823D01*
X2243023Y6746494D01*
X2230628Y6752640D01*
X2217521Y6757060D01*
X2203907Y6759803D01*
X2189784Y6760718D01*
X1950415Y6760718D01*
X1936292Y6759803D01*
X1922678Y6757060D01*
X1909572Y6752640D01*
X1897176Y6746494D01*
X1885645Y6738823D01*
X1875231Y6729679D01*
X1866087Y6719265D01*
X1858416Y6707733D01*
X1852269Y6695338D01*
X1847799Y6682181D01*
X1845106Y6668617D01*
X1844192Y6654800D01*
X1845106Y6640982D01*
X1847799Y6627418D01*
X1852269Y6614261D01*
X1858416Y6601866D01*
X1866087Y6590334D01*
X1875231Y6579920D01*
X1885645Y6570776D01*
X1897176Y6563106D01*
X1909572Y6556959D01*
X1922678Y6552539D01*
X1936292Y6549796D01*
G37*
G36*
X3982415Y6802881D02*
G01*
X4221784Y6802881D01*
X4235907Y6803796D01*
X4249521Y6806539D01*
X4262628Y6810959D01*
X4275023Y6817106D01*
X4286554Y6824776D01*
X4296968Y6833920D01*
X4306112Y6844334D01*
X4313783Y6855866D01*
X4319930Y6868261D01*
X4324400Y6881418D01*
X4327093Y6894982D01*
X4328007Y6908800D01*
X4327093Y6922617D01*
X4324400Y6936181D01*
X4319930Y6949338D01*
X4313783Y6961733D01*
X4306112Y6973265D01*
X4296968Y6983679D01*
X4286554Y6992823D01*
X4275023Y7000494D01*
X4262628Y7006640D01*
X4249521Y7011060D01*
X4235907Y7013803D01*
X4221784Y7014718D01*
X3982415Y7014718D01*
X3968292Y7013803D01*
X3954678Y7011060D01*
X3941572Y7006640D01*
X3929176Y7000494D01*
X3917645Y6992823D01*
X3907231Y6983679D01*
X3898087Y6973265D01*
X3890416Y6961733D01*
X3884269Y6949338D01*
X3879799Y6936181D01*
X3877106Y6922617D01*
X3876192Y6908800D01*
X3877106Y6894982D01*
X3879799Y6881418D01*
X3884269Y6868261D01*
X3890416Y6855866D01*
X3898087Y6844334D01*
X3907231Y6833920D01*
X3917645Y6824776D01*
X3929176Y6817106D01*
X3941572Y6810959D01*
X3954678Y6806539D01*
X3968292Y6803796D01*
G37*
G36*
X3982415Y7056881D02*
G01*
X4221784Y7056881D01*
X4235907Y7057796D01*
X4249521Y7060539D01*
X4262628Y7064959D01*
X4275023Y7071106D01*
X4286554Y7078776D01*
X4296968Y7087920D01*
X4306112Y7098334D01*
X4313783Y7109866D01*
X4319930Y7122261D01*
X4324400Y7135418D01*
X4327093Y7148982D01*
X4328007Y7162800D01*
X4327093Y7176617D01*
X4324400Y7190181D01*
X4319930Y7203338D01*
X4313783Y7215733D01*
X4306112Y7227265D01*
X4296968Y7237679D01*
X4286554Y7246823D01*
X4275023Y7254494D01*
X4262628Y7260640D01*
X4249521Y7265060D01*
X4235907Y7267803D01*
X4221784Y7268718D01*
X3982415Y7268718D01*
X3968292Y7267803D01*
X3954678Y7265060D01*
X3941572Y7260640D01*
X3929176Y7254494D01*
X3917645Y7246823D01*
X3907231Y7237679D01*
X3898087Y7227265D01*
X3890416Y7215733D01*
X3884269Y7203338D01*
X3879799Y7190181D01*
X3877106Y7176617D01*
X3876192Y7162800D01*
X3877106Y7148982D01*
X3879799Y7135418D01*
X3884269Y7122261D01*
X3890416Y7109866D01*
X3898087Y7098334D01*
X3907231Y7087920D01*
X3917645Y7078776D01*
X3929176Y7071106D01*
X3941572Y7064959D01*
X3954678Y7060539D01*
X3968292Y7057796D01*
G37*
G36*
X1950415Y7310881D02*
G01*
X1963775Y7310881D01*
X1963775Y7370470D01*
X1855165Y7370470D01*
X1858416Y7363866D01*
X1866087Y7352334D01*
X1875231Y7341920D01*
X1885645Y7332776D01*
X1897176Y7325106D01*
X1909572Y7318959D01*
X1922678Y7314539D01*
X1936292Y7311796D01*
G37*
G36*
X2176475Y7310881D02*
G01*
X2189784Y7310881D01*
X2203907Y7311796D01*
X2217521Y7314539D01*
X2230628Y7318959D01*
X2243023Y7325106D01*
X2254554Y7332776D01*
X2264968Y7341920D01*
X2274112Y7352334D01*
X2281783Y7363866D01*
X2285034Y7370470D01*
X2176475Y7370470D01*
G37*
G36*
X3982415Y7310881D02*
G01*
X4221784Y7310881D01*
X4235907Y7311796D01*
X4249521Y7314539D01*
X4262628Y7318959D01*
X4275023Y7325106D01*
X4286554Y7332776D01*
X4296968Y7341920D01*
X4306112Y7352334D01*
X4313783Y7363866D01*
X4319930Y7376261D01*
X4324400Y7389418D01*
X4327093Y7402982D01*
X4328007Y7416800D01*
X4327093Y7430617D01*
X4324400Y7444181D01*
X4319930Y7457338D01*
X4313783Y7469733D01*
X4306112Y7481265D01*
X4296968Y7491679D01*
X4286554Y7500823D01*
X4275023Y7508494D01*
X4262628Y7514640D01*
X4249521Y7519060D01*
X4235907Y7521803D01*
X4221784Y7522718D01*
X3982415Y7522718D01*
X3968292Y7521803D01*
X3954678Y7519060D01*
X3941572Y7514640D01*
X3929176Y7508494D01*
X3917645Y7500823D01*
X3907231Y7491679D01*
X3898087Y7481265D01*
X3890416Y7469733D01*
X3884269Y7457338D01*
X3879799Y7444181D01*
X3877106Y7430617D01*
X3876192Y7416800D01*
X3877106Y7402982D01*
X3879799Y7389418D01*
X3884269Y7376261D01*
X3890416Y7363866D01*
X3898087Y7352334D01*
X3907231Y7341920D01*
X3917645Y7332776D01*
X3929176Y7325106D01*
X3941572Y7318959D01*
X3954678Y7314539D01*
X3968292Y7311796D01*
G37*
G36*
X4749800Y7347762D02*
G01*
X4759604Y7348626D01*
X4769053Y7351166D01*
X4777994Y7355281D01*
X4782261Y7357719D01*
X4785309Y7358176D01*
X5335778Y7358227D01*
X5344515Y7359446D01*
X5352542Y7362139D01*
X5359908Y7366253D01*
X5366816Y7371994D01*
X5563006Y7568234D01*
X5568289Y7575245D01*
X5572048Y7582814D01*
X5574385Y7590993D01*
X5575198Y7599883D01*
X5575198Y7689291D01*
X5575858Y7692948D01*
X5577789Y7696047D01*
X5580684Y7698333D01*
X5585053Y7699502D01*
X5590489Y7701381D01*
X5595416Y7704480D01*
X5599480Y7708595D01*
X5602579Y7713472D01*
X5604510Y7718958D01*
X5605221Y7725257D01*
X5605221Y8024114D01*
X5604510Y8030413D01*
X5602579Y8035899D01*
X5599480Y8040776D01*
X5595416Y8044891D01*
X5590489Y8047990D01*
X5585053Y8049869D01*
X5578754Y8050580D01*
X5479846Y8050580D01*
X5473547Y8049869D01*
X5468112Y8047990D01*
X5463184Y8044891D01*
X5459120Y8040776D01*
X5456021Y8035899D01*
X5454091Y8030413D01*
X5453380Y8024114D01*
X5453380Y7725257D01*
X5454091Y7718958D01*
X5456021Y7713472D01*
X5459120Y7708595D01*
X5463184Y7704480D01*
X5468112Y7701381D01*
X5477916Y7698333D01*
X5480812Y7696047D01*
X5482742Y7692948D01*
X5483402Y7689291D01*
X5483402Y7622641D01*
X5482640Y7618730D01*
X5480405Y7615428D01*
X5317947Y7452969D01*
X5314645Y7450785D01*
X5310784Y7450023D01*
X4785309Y7450023D01*
X4782261Y7450480D01*
X4777994Y7452918D01*
X4769053Y7457033D01*
X4759604Y7459573D01*
X4749800Y7460437D01*
X4739995Y7459573D01*
X4730546Y7457033D01*
X4721606Y7452918D01*
X4713579Y7447280D01*
X4706620Y7440320D01*
X4700981Y7432294D01*
X4696866Y7423353D01*
X4694326Y7413904D01*
X4693462Y7404100D01*
X4694326Y7394295D01*
X4696866Y7384846D01*
X4700981Y7375906D01*
X4706620Y7367879D01*
X4713579Y7360920D01*
X4721606Y7355281D01*
X4730546Y7351166D01*
X4739995Y7348626D01*
G37*
G36*
X1855165Y7463129D02*
G01*
X1963775Y7463129D01*
X1963775Y7522718D01*
X1950415Y7522718D01*
X1936292Y7521803D01*
X1922678Y7519060D01*
X1909572Y7514640D01*
X1897176Y7508494D01*
X1885645Y7500823D01*
X1875231Y7491679D01*
X1866087Y7481265D01*
X1858416Y7469733D01*
G37*
G36*
X2176475Y7463129D02*
G01*
X2285034Y7463129D01*
X2281783Y7469733D01*
X2274112Y7481265D01*
X2264968Y7491679D01*
X2254554Y7500823D01*
X2243023Y7508494D01*
X2230628Y7514640D01*
X2217521Y7519060D01*
X2203907Y7521803D01*
X2189784Y7522718D01*
X2176475Y7522718D01*
G37*
G36*
X4749800Y7550962D02*
G01*
X4759604Y7551826D01*
X4769053Y7554366D01*
X4777994Y7558481D01*
X4782261Y7560919D01*
X4785309Y7561376D01*
X5329072Y7561376D01*
X5333542Y7561580D01*
X5337708Y7562189D01*
X5341874Y7563154D01*
X5345887Y7564526D01*
X5349748Y7566202D01*
X5353456Y7568285D01*
X5356961Y7570673D01*
X5360212Y7573365D01*
X5363210Y7576362D01*
X5365902Y7579664D01*
X5368340Y7583119D01*
X5370372Y7586827D01*
X5372100Y7590739D01*
X5373420Y7594752D01*
X5374436Y7598867D01*
X5374995Y7603083D01*
X5375198Y7607553D01*
X5375198Y7689291D01*
X5375859Y7692948D01*
X5377789Y7696047D01*
X5380685Y7698333D01*
X5385054Y7699502D01*
X5390489Y7701381D01*
X5395417Y7704480D01*
X5399481Y7708595D01*
X5402580Y7713472D01*
X5404510Y7718958D01*
X5405221Y7725257D01*
X5405221Y8024114D01*
X5404510Y8030413D01*
X5402580Y8035899D01*
X5399481Y8040776D01*
X5395417Y8044891D01*
X5390489Y8047990D01*
X5385054Y8049869D01*
X5378754Y8050580D01*
X5279847Y8050580D01*
X5273548Y8049869D01*
X5268112Y8047990D01*
X5263184Y8044891D01*
X5259120Y8040776D01*
X5256022Y8035899D01*
X5254091Y8030413D01*
X5253380Y8024114D01*
X5253380Y7725257D01*
X5254091Y7718958D01*
X5256022Y7713472D01*
X5259120Y7708595D01*
X5263184Y7704480D01*
X5268112Y7701381D01*
X5277916Y7698333D01*
X5280812Y7696047D01*
X5282742Y7692948D01*
X5283403Y7689291D01*
X5283403Y7663383D01*
X5282641Y7659471D01*
X5280406Y7656169D01*
X5277104Y7653985D01*
X5273243Y7653223D01*
X4785309Y7653223D01*
X4782261Y7653680D01*
X4777994Y7656118D01*
X4769053Y7660233D01*
X4759604Y7662773D01*
X4749800Y7663637D01*
X4739995Y7662773D01*
X4730546Y7660233D01*
X4721606Y7656118D01*
X4713579Y7650480D01*
X4706620Y7643520D01*
X4700981Y7635494D01*
X4696866Y7626553D01*
X4694326Y7617104D01*
X4693462Y7607300D01*
X4694326Y7597495D01*
X4696866Y7588046D01*
X4700981Y7579106D01*
X4706620Y7571079D01*
X4713579Y7564120D01*
X4721606Y7558481D01*
X4730546Y7554366D01*
X4739995Y7551826D01*
G37*
G36*
X3982415Y7564881D02*
G01*
X4221784Y7564881D01*
X4235907Y7565796D01*
X4249521Y7568539D01*
X4262628Y7572959D01*
X4275023Y7579106D01*
X4286554Y7586776D01*
X4296968Y7595920D01*
X4306112Y7606334D01*
X4313783Y7617866D01*
X4319930Y7630261D01*
X4324400Y7643418D01*
X4327093Y7656982D01*
X4328007Y7670800D01*
X4327093Y7684617D01*
X4324400Y7698181D01*
X4319930Y7711338D01*
X4313783Y7723733D01*
X4306112Y7735265D01*
X4296968Y7745679D01*
X4286554Y7754823D01*
X4275023Y7762494D01*
X4262628Y7768640D01*
X4249521Y7773060D01*
X4235907Y7775803D01*
X4221784Y7776718D01*
X3982415Y7776718D01*
X3968292Y7775803D01*
X3954678Y7773060D01*
X3941572Y7768640D01*
X3929176Y7762494D01*
X3917645Y7754823D01*
X3907231Y7745679D01*
X3898087Y7735265D01*
X3890416Y7723733D01*
X3884269Y7711338D01*
X3879799Y7698181D01*
X3877106Y7684617D01*
X3876192Y7670800D01*
X3877106Y7656982D01*
X3879799Y7643418D01*
X3884269Y7630261D01*
X3890416Y7617866D01*
X3898087Y7606334D01*
X3907231Y7595920D01*
X3917645Y7586776D01*
X3929176Y7579106D01*
X3941572Y7572959D01*
X3954678Y7568539D01*
X3968292Y7565796D01*
G37*
G36*
X6279845Y7698790D02*
G01*
X6297930Y7698790D01*
X6297930Y7793329D01*
X6253378Y7793329D01*
X6253378Y7725257D01*
X6254089Y7718958D01*
X6256020Y7713472D01*
X6259118Y7708595D01*
X6263182Y7704480D01*
X6268110Y7701381D01*
X6273546Y7699502D01*
G37*
G36*
X6360668Y7698790D02*
G01*
X6378752Y7698790D01*
X6385052Y7699502D01*
X6390487Y7701381D01*
X6395415Y7704480D01*
X6399479Y7708595D01*
X6402578Y7713472D01*
X6404508Y7718958D01*
X6405219Y7725257D01*
X6405219Y7793329D01*
X6360668Y7793329D01*
G37*
G36*
X5079847Y7698790D02*
G01*
X5178755Y7698790D01*
X5185054Y7699502D01*
X5190490Y7701381D01*
X5195417Y7704480D01*
X5199481Y7708595D01*
X5202580Y7713472D01*
X5204510Y7718958D01*
X5205222Y7725257D01*
X5205222Y8024114D01*
X5204510Y8030413D01*
X5202580Y8035899D01*
X5199481Y8040776D01*
X5195417Y8044891D01*
X5190490Y8047990D01*
X5185054Y8049869D01*
X5178755Y8050580D01*
X5079847Y8050580D01*
X5073548Y8049869D01*
X5068112Y8047990D01*
X5063185Y8044891D01*
X5059121Y8040776D01*
X5056022Y8035899D01*
X5054092Y8030413D01*
X5053380Y8024114D01*
X5053380Y7891119D01*
X5052618Y7887258D01*
X5050434Y7883956D01*
X5013147Y7846669D01*
X5009845Y7844485D01*
X5005984Y7843723D01*
X4785309Y7843723D01*
X4782261Y7844180D01*
X4777994Y7846618D01*
X4769053Y7850733D01*
X4759604Y7853273D01*
X4749800Y7854137D01*
X4739995Y7853273D01*
X4730546Y7850733D01*
X4721606Y7846618D01*
X4713579Y7840980D01*
X4706620Y7834020D01*
X4700981Y7825994D01*
X4696866Y7817053D01*
X4694326Y7807604D01*
X4693462Y7797800D01*
X4694326Y7787995D01*
X4696866Y7778546D01*
X4700981Y7769606D01*
X4706620Y7761579D01*
X4713579Y7754620D01*
X4721606Y7748981D01*
X4730546Y7744866D01*
X4739995Y7742326D01*
X4749800Y7741462D01*
X4759604Y7742326D01*
X4769053Y7744866D01*
X4777994Y7748981D01*
X4782261Y7751419D01*
X4785309Y7751876D01*
X5029098Y7751876D01*
X5037683Y7752689D01*
X5040782Y7753502D01*
X5044440Y7753705D01*
X5047945Y7752638D01*
X5050840Y7750352D01*
X5052720Y7747253D01*
X5053380Y7743647D01*
X5053380Y7725257D01*
X5054092Y7718958D01*
X5056022Y7713472D01*
X5059121Y7708595D01*
X5063185Y7704480D01*
X5068112Y7701381D01*
X5073548Y7699502D01*
G37*
G36*
X6479844Y7698790D02*
G01*
X6578752Y7698790D01*
X6585051Y7699502D01*
X6590487Y7701381D01*
X6595414Y7704480D01*
X6599478Y7708595D01*
X6602577Y7713472D01*
X6604508Y7718958D01*
X6605219Y7725257D01*
X6605219Y8024114D01*
X6604508Y8030413D01*
X6602577Y8035899D01*
X6599529Y8040725D01*
X6594144Y8045958D01*
X6591808Y8049310D01*
X6591046Y8053273D01*
X6591046Y8746896D01*
X6591503Y8749995D01*
X6592925Y8752789D01*
X6595109Y8755024D01*
X6602475Y8760510D01*
X6613956Y8771331D01*
X6624116Y8783472D01*
X6632803Y8796680D01*
X6639864Y8810802D01*
X6645300Y8825636D01*
X6648907Y8841028D01*
X6650786Y8856726D01*
X6650786Y8872524D01*
X6648907Y8888222D01*
X6645300Y8903563D01*
X6639864Y8918448D01*
X6632803Y8932570D01*
X6624116Y8945727D01*
X6613956Y8957868D01*
X6602475Y8968689D01*
X6589775Y8978138D01*
X6576110Y8986062D01*
X6561581Y8992311D01*
X6546443Y8996832D01*
X6530898Y8999575D01*
X6515100Y9000490D01*
X6499352Y8999575D01*
X6483756Y8996832D01*
X6468618Y8992311D01*
X6454140Y8986062D01*
X6440424Y8978138D01*
X6427774Y8968689D01*
X6416243Y8957868D01*
X6406083Y8945727D01*
X6397396Y8932570D01*
X6390335Y8918448D01*
X6384899Y8903563D01*
X6381292Y8888222D01*
X6379464Y8872524D01*
X6379464Y8856726D01*
X6381292Y8841028D01*
X6384899Y8825636D01*
X6390335Y8810802D01*
X6397396Y8796680D01*
X6406083Y8783472D01*
X6416243Y8771331D01*
X6427774Y8760510D01*
X6435090Y8755024D01*
X6437325Y8752789D01*
X6438696Y8749995D01*
X6439204Y8746896D01*
X6439255Y7886242D01*
X6440068Y7877352D01*
X6440474Y7874965D01*
X6442659Y7866329D01*
X6443421Y7863992D01*
X6447891Y7853578D01*
X6451904Y7846974D01*
X6453022Y7844434D01*
X6453378Y7841742D01*
X6453378Y7725257D01*
X6454089Y7718958D01*
X6456019Y7713472D01*
X6459118Y7708595D01*
X6463182Y7704480D01*
X6468110Y7701381D01*
X6473545Y7699502D01*
G37*
G36*
X2438400Y7792262D02*
G01*
X2448204Y7793126D01*
X2457653Y7795666D01*
X2466594Y7799781D01*
X2474620Y7805420D01*
X2481580Y7812379D01*
X2487218Y7820406D01*
X2491333Y7829346D01*
X2493873Y7838795D01*
X2494737Y7848600D01*
X2493873Y7858404D01*
X2491333Y7867853D01*
X2487218Y7876794D01*
X2481580Y7884820D01*
X2474620Y7891780D01*
X2466594Y7897418D01*
X2457653Y7901533D01*
X2450338Y7903514D01*
X2447899Y7904530D01*
X2445766Y7906156D01*
X2393391Y7958480D01*
X2386330Y7963814D01*
X2378760Y7967573D01*
X2370632Y7969859D01*
X2361742Y7970723D01*
X2291588Y7970723D01*
X2287879Y7971383D01*
X2284730Y7973364D01*
X2274112Y7989265D01*
X2264968Y7999679D01*
X2254554Y8008823D01*
X2243023Y8016494D01*
X2230628Y8022640D01*
X2217521Y8027060D01*
X2203907Y8029803D01*
X2189784Y8030718D01*
X1950415Y8030718D01*
X1936292Y8029803D01*
X1922678Y8027060D01*
X1909572Y8022640D01*
X1897176Y8016494D01*
X1885645Y8008823D01*
X1875231Y7999679D01*
X1866087Y7989265D01*
X1858416Y7977733D01*
X1852269Y7965338D01*
X1847799Y7952181D01*
X1845106Y7938617D01*
X1844192Y7924800D01*
X1845106Y7910982D01*
X1847799Y7897418D01*
X1852269Y7884261D01*
X1858416Y7871866D01*
X1866087Y7860334D01*
X1875231Y7849920D01*
X1885645Y7840776D01*
X1897176Y7833106D01*
X1909572Y7826959D01*
X1922678Y7822539D01*
X1936292Y7819796D01*
X1950415Y7818881D01*
X2189784Y7818881D01*
X2203907Y7819796D01*
X2217521Y7822539D01*
X2230628Y7826959D01*
X2243023Y7833106D01*
X2254554Y7840776D01*
X2264968Y7849920D01*
X2274112Y7860334D01*
X2284730Y7876235D01*
X2287879Y7878216D01*
X2291588Y7878876D01*
X2338984Y7878876D01*
X2342845Y7878114D01*
X2346147Y7875930D01*
X2380843Y7841234D01*
X2382469Y7839100D01*
X2383485Y7836662D01*
X2385466Y7829346D01*
X2389581Y7820406D01*
X2395220Y7812379D01*
X2402179Y7805420D01*
X2410206Y7799781D01*
X2419146Y7795666D01*
X2428595Y7793126D01*
G37*
G36*
X3982415Y7818881D02*
G01*
X4221784Y7818881D01*
X4235907Y7819796D01*
X4249521Y7822539D01*
X4262628Y7826959D01*
X4275023Y7833106D01*
X4286554Y7840776D01*
X4296968Y7849920D01*
X4306112Y7860334D01*
X4313783Y7871866D01*
X4319930Y7884261D01*
X4324400Y7897418D01*
X4327093Y7910982D01*
X4328007Y7924800D01*
X4327093Y7938617D01*
X4324400Y7952181D01*
X4319930Y7965338D01*
X4313783Y7977733D01*
X4306112Y7989265D01*
X4296968Y7999679D01*
X4286554Y8008823D01*
X4275023Y8016494D01*
X4262628Y8022640D01*
X4249521Y8027060D01*
X4235907Y8029803D01*
X4221784Y8030718D01*
X3982415Y8030718D01*
X3968292Y8029803D01*
X3954678Y8027060D01*
X3941572Y8022640D01*
X3929176Y8016494D01*
X3917645Y8008823D01*
X3907231Y7999679D01*
X3898087Y7989265D01*
X3890416Y7977733D01*
X3884269Y7965338D01*
X3879799Y7952181D01*
X3877106Y7938617D01*
X3876192Y7924800D01*
X3877106Y7910982D01*
X3879799Y7897418D01*
X3884269Y7884261D01*
X3890416Y7871866D01*
X3898087Y7860334D01*
X3907231Y7849920D01*
X3917645Y7840776D01*
X3929176Y7833106D01*
X3941572Y7826959D01*
X3954678Y7822539D01*
X3968292Y7819796D01*
G37*
G36*
X6360668Y7956042D02*
G01*
X6405219Y7956042D01*
X6405219Y8024114D01*
X6404508Y8030413D01*
X6402578Y8035899D01*
X6399479Y8040776D01*
X6395415Y8044891D01*
X6390487Y8047990D01*
X6385052Y8049869D01*
X6378752Y8050580D01*
X6360668Y8050580D01*
G37*
G36*
X6253378Y7956042D02*
G01*
X6297930Y7956042D01*
X6297930Y8050580D01*
X6279845Y8050580D01*
X6273546Y8049869D01*
X6268110Y8047990D01*
X6263182Y8044891D01*
X6259118Y8040776D01*
X6256020Y8035899D01*
X6254089Y8030413D01*
X6253378Y8024114D01*
G37*
G36*
X2565400Y7957362D02*
G01*
X2575204Y7958226D01*
X2584653Y7960766D01*
X2593594Y7964881D01*
X2601620Y7970520D01*
X2608580Y7977479D01*
X2614218Y7985506D01*
X2618333Y7994446D01*
X2620873Y8003895D01*
X2621737Y8013700D01*
X2620873Y8023504D01*
X2618333Y8032953D01*
X2614218Y8041894D01*
X2608580Y8049920D01*
X2601620Y8056880D01*
X2593594Y8062518D01*
X2584653Y8066633D01*
X2577338Y8068614D01*
X2574899Y8069630D01*
X2572766Y8071256D01*
X2431491Y8212480D01*
X2424430Y8217814D01*
X2416860Y8221573D01*
X2408732Y8223859D01*
X2399842Y8224723D01*
X2291588Y8224723D01*
X2287879Y8225383D01*
X2284730Y8227364D01*
X2274112Y8243265D01*
X2264968Y8253679D01*
X2254554Y8262823D01*
X2243023Y8270494D01*
X2230628Y8276640D01*
X2217521Y8281060D01*
X2203907Y8283803D01*
X2189784Y8284718D01*
X1950415Y8284718D01*
X1936292Y8283803D01*
X1922678Y8281060D01*
X1909572Y8276640D01*
X1897176Y8270494D01*
X1885645Y8262823D01*
X1875231Y8253679D01*
X1866087Y8243265D01*
X1858416Y8231733D01*
X1852269Y8219338D01*
X1847799Y8206181D01*
X1845106Y8192617D01*
X1844192Y8178800D01*
X1845106Y8164982D01*
X1847799Y8151418D01*
X1852269Y8138261D01*
X1858416Y8125866D01*
X1866087Y8114334D01*
X1875231Y8103920D01*
X1885645Y8094776D01*
X1897176Y8087106D01*
X1909572Y8080959D01*
X1922678Y8076539D01*
X1936292Y8073796D01*
X1950415Y8072881D01*
X2189784Y8072881D01*
X2203907Y8073796D01*
X2217521Y8076539D01*
X2230628Y8080959D01*
X2243023Y8087106D01*
X2254554Y8094776D01*
X2264968Y8103920D01*
X2274112Y8114334D01*
X2284730Y8130235D01*
X2287879Y8132216D01*
X2291588Y8132876D01*
X2377084Y8132876D01*
X2380945Y8132114D01*
X2384247Y8129930D01*
X2507843Y8006334D01*
X2509469Y8004200D01*
X2510485Y8001762D01*
X2512466Y7994446D01*
X2516581Y7985506D01*
X2522220Y7977479D01*
X2529179Y7970520D01*
X2537206Y7964881D01*
X2546146Y7960766D01*
X2555595Y7958226D01*
G37*
G36*
X3982415Y8326881D02*
G01*
X4221784Y8326881D01*
X4235907Y8327796D01*
X4249521Y8330539D01*
X4262628Y8334959D01*
X4275023Y8341106D01*
X4286554Y8348776D01*
X4296968Y8357920D01*
X4306112Y8368334D01*
X4313783Y8379866D01*
X4319930Y8392261D01*
X4324400Y8405418D01*
X4327093Y8418982D01*
X4328007Y8432800D01*
X4327093Y8446617D01*
X4324400Y8460181D01*
X4319930Y8473338D01*
X4313783Y8485733D01*
X4306112Y8497265D01*
X4296968Y8507679D01*
X4286554Y8516823D01*
X4275023Y8524494D01*
X4262628Y8530640D01*
X4249521Y8535060D01*
X4235907Y8537803D01*
X4221784Y8538718D01*
X3982415Y8538718D01*
X3968292Y8537803D01*
X3954678Y8535060D01*
X3941572Y8530640D01*
X3929176Y8524494D01*
X3917645Y8516823D01*
X3907231Y8507679D01*
X3898087Y8497265D01*
X3890416Y8485733D01*
X3884269Y8473338D01*
X3879799Y8460181D01*
X3877106Y8446617D01*
X3876192Y8432800D01*
X3877106Y8418982D01*
X3879799Y8405418D01*
X3884269Y8392261D01*
X3890416Y8379866D01*
X3898087Y8368334D01*
X3907231Y8357920D01*
X3917645Y8348776D01*
X3929176Y8341106D01*
X3941572Y8334959D01*
X3954678Y8330539D01*
X3968292Y8327796D01*
G37*
G36*
X1950415Y8326881D02*
G01*
X2189784Y8326881D01*
X2203907Y8327796D01*
X2217521Y8330539D01*
X2230628Y8334959D01*
X2243023Y8341106D01*
X2254554Y8348776D01*
X2264968Y8357920D01*
X2277262Y8372094D01*
X2280158Y8373668D01*
X2283460Y8374176D01*
X2694990Y8374176D01*
X2698038Y8373719D01*
X2702306Y8371281D01*
X2711246Y8367166D01*
X2720695Y8364626D01*
X2730500Y8363762D01*
X2740304Y8364626D01*
X2749753Y8367166D01*
X2758694Y8371281D01*
X2766720Y8376920D01*
X2773680Y8383879D01*
X2779318Y8391906D01*
X2783433Y8400846D01*
X2785973Y8410295D01*
X2786837Y8420100D01*
X2785973Y8429904D01*
X2783433Y8439353D01*
X2779318Y8448294D01*
X2773680Y8456320D01*
X2766720Y8463280D01*
X2758694Y8468918D01*
X2749753Y8473033D01*
X2740304Y8475573D01*
X2730500Y8476437D01*
X2720695Y8475573D01*
X2711246Y8473033D01*
X2702306Y8468918D01*
X2698038Y8466480D01*
X2694990Y8466023D01*
X2297684Y8466023D01*
X2293620Y8466886D01*
X2290216Y8469325D01*
X2287930Y8473338D01*
X2281783Y8485733D01*
X2274112Y8497265D01*
X2264968Y8507679D01*
X2254554Y8516823D01*
X2243023Y8524494D01*
X2230628Y8530640D01*
X2217521Y8535060D01*
X2203907Y8537803D01*
X2189784Y8538718D01*
X1950415Y8538718D01*
X1936292Y8537803D01*
X1922678Y8535060D01*
X1909572Y8530640D01*
X1897176Y8524494D01*
X1885645Y8516823D01*
X1875231Y8507679D01*
X1866087Y8497265D01*
X1858416Y8485733D01*
X1852269Y8473338D01*
X1847799Y8460181D01*
X1845106Y8446617D01*
X1844192Y8432800D01*
X1845106Y8418982D01*
X1847799Y8405418D01*
X1852269Y8392261D01*
X1858416Y8379866D01*
X1866087Y8368334D01*
X1875231Y8357920D01*
X1885645Y8348776D01*
X1897176Y8341106D01*
X1909572Y8334959D01*
X1922678Y8330539D01*
X1936292Y8327796D01*
G37*
G36*
X6701231Y8475522D02*
G01*
X6701231Y8540750D01*
X6636003Y8540750D01*
X6642353Y8529320D01*
X6652107Y8515502D01*
X6663385Y8502904D01*
X6676034Y8491626D01*
X6689801Y8481822D01*
G37*
G36*
X6328968Y8475522D02*
G01*
X6340398Y8481822D01*
X6354165Y8491626D01*
X6366814Y8502904D01*
X6378092Y8515502D01*
X6387846Y8529320D01*
X6394196Y8540750D01*
X6328968Y8540750D01*
G37*
G36*
X6191250Y8475522D02*
G01*
X6191250Y8540750D01*
X6126022Y8540750D01*
X6132322Y8529320D01*
X6142126Y8515502D01*
X6153404Y8502904D01*
X6166002Y8491626D01*
X6179820Y8481822D01*
G37*
G36*
X6838950Y8475522D02*
G01*
X6850380Y8481822D01*
X6864197Y8491626D01*
X6876796Y8502904D01*
X6888073Y8515502D01*
X6897878Y8529320D01*
X6904177Y8540750D01*
X6838950Y8540750D01*
G37*
G36*
X1950415Y8580882D02*
G01*
X1963775Y8580882D01*
X1963775Y8640470D01*
X1855165Y8640470D01*
X1858416Y8633866D01*
X1866087Y8622334D01*
X1875231Y8611920D01*
X1885645Y8602776D01*
X1897176Y8595106D01*
X1909572Y8588959D01*
X1922678Y8584539D01*
X1936292Y8581796D01*
G37*
G36*
X3982415Y8580882D02*
G01*
X3995775Y8580882D01*
X3995775Y8640470D01*
X3887165Y8640470D01*
X3890416Y8633866D01*
X3898087Y8622334D01*
X3907231Y8611920D01*
X3917645Y8602776D01*
X3929176Y8595106D01*
X3941572Y8588959D01*
X3954678Y8584539D01*
X3968292Y8581796D01*
G37*
G36*
X2176475Y8580882D02*
G01*
X2189784Y8580882D01*
X2203907Y8581796D01*
X2217521Y8584539D01*
X2230628Y8588959D01*
X2243023Y8595106D01*
X2254554Y8602776D01*
X2264968Y8611920D01*
X2274112Y8622334D01*
X2281783Y8633866D01*
X2285034Y8640470D01*
X2176475Y8640470D01*
G37*
G36*
X4208475Y8580882D02*
G01*
X4221784Y8580882D01*
X4235907Y8581796D01*
X4249521Y8584539D01*
X4262628Y8588959D01*
X4275023Y8595106D01*
X4286554Y8602776D01*
X4296968Y8611920D01*
X4306112Y8622334D01*
X4313783Y8633866D01*
X4317034Y8640470D01*
X4208475Y8640470D01*
G37*
G36*
X6636003Y8678468D02*
G01*
X6701231Y8678468D01*
X6701231Y8743696D01*
X6689801Y8737346D01*
X6676034Y8727592D01*
X6663385Y8716314D01*
X6652107Y8703665D01*
X6642353Y8689898D01*
G37*
G36*
X6328968Y8678468D02*
G01*
X6394196Y8678468D01*
X6387846Y8689898D01*
X6378092Y8703665D01*
X6366814Y8716314D01*
X6354165Y8727592D01*
X6340398Y8737346D01*
X6328968Y8743696D01*
G37*
G36*
X6126022Y8678468D02*
G01*
X6191250Y8678468D01*
X6191250Y8743696D01*
X6179820Y8737346D01*
X6166002Y8727592D01*
X6153404Y8716314D01*
X6142126Y8703665D01*
X6132322Y8689898D01*
G37*
G36*
X6838950Y8678468D02*
G01*
X6904177Y8678468D01*
X6897878Y8689898D01*
X6888073Y8703665D01*
X6876796Y8716314D01*
X6864197Y8727592D01*
X6850380Y8737346D01*
X6838950Y8743696D01*
G37*
G36*
X1855165Y8733129D02*
G01*
X1963775Y8733129D01*
X1963775Y8792718D01*
X1950415Y8792718D01*
X1936292Y8791803D01*
X1922678Y8789060D01*
X1909572Y8784640D01*
X1897176Y8778494D01*
X1885645Y8770823D01*
X1875231Y8761679D01*
X1866087Y8751265D01*
X1858416Y8739733D01*
G37*
G36*
X2176475Y8733129D02*
G01*
X2285034Y8733129D01*
X2281783Y8739733D01*
X2274112Y8751265D01*
X2264968Y8761679D01*
X2254554Y8770823D01*
X2243023Y8778494D01*
X2230628Y8784640D01*
X2217521Y8789060D01*
X2203907Y8791803D01*
X2189784Y8792718D01*
X2176475Y8792718D01*
G37*
G36*
X3887165Y8733129D02*
G01*
X3995775Y8733129D01*
X3995775Y8792718D01*
X3982415Y8792718D01*
X3968292Y8791803D01*
X3954678Y8789060D01*
X3941572Y8784640D01*
X3929176Y8778494D01*
X3917645Y8770823D01*
X3907231Y8761679D01*
X3898087Y8751265D01*
X3890416Y8739733D01*
G37*
G36*
X4208475Y8733129D02*
G01*
X4317034Y8733129D01*
X4313783Y8739733D01*
X4306112Y8751265D01*
X4296968Y8761679D01*
X4286554Y8770823D01*
X4275023Y8778494D01*
X4262628Y8784640D01*
X4249521Y8789060D01*
X4235907Y8791803D01*
X4221784Y8792718D01*
X4208475Y8792718D01*
G37*
G36*
X1949805Y8838692D02*
G01*
X2190394Y8838692D01*
X2204059Y8839606D01*
X2217166Y8842197D01*
X2229815Y8846464D01*
X2241753Y8852408D01*
X2252878Y8859824D01*
X2262886Y8868613D01*
X2271725Y8878671D01*
X2279142Y8889746D01*
X2285034Y8901734D01*
X2289352Y8914384D01*
X2291943Y8927490D01*
X2292807Y8940800D01*
X2291943Y8954109D01*
X2289352Y8967216D01*
X2285034Y8979865D01*
X2279142Y8991854D01*
X2271725Y9002928D01*
X2262886Y9012986D01*
X2252878Y9021775D01*
X2241753Y9029192D01*
X2229815Y9035135D01*
X2217166Y9039402D01*
X2204059Y9041993D01*
X2190394Y9042908D01*
X1949805Y9042908D01*
X1936140Y9041993D01*
X1923034Y9039402D01*
X1910384Y9035135D01*
X1898446Y9029192D01*
X1887321Y9021775D01*
X1877314Y9012986D01*
X1868474Y9002928D01*
X1861057Y8991854D01*
X1855165Y8979865D01*
X1850847Y8967216D01*
X1848256Y8954109D01*
X1847392Y8940800D01*
X1848256Y8927490D01*
X1850847Y8914384D01*
X1855165Y8901734D01*
X1861057Y8889746D01*
X1868474Y8878671D01*
X1877314Y8868613D01*
X1887321Y8859824D01*
X1898446Y8852408D01*
X1910384Y8846464D01*
X1923034Y8842197D01*
X1936140Y8839606D01*
G37*
G36*
X7874000Y8889492D02*
G01*
X7889392Y8890457D01*
X7904530Y8893200D01*
X7919212Y8897772D01*
X7933232Y8904122D01*
X7946440Y8912098D01*
X7958531Y8921597D01*
X7969402Y8932468D01*
X7978902Y8944559D01*
X7986877Y8957767D01*
X7993227Y8971788D01*
X7997799Y8986469D01*
X8000542Y9001607D01*
X8001508Y9017000D01*
X8000542Y9032392D01*
X7997799Y9047530D01*
X7993227Y9062212D01*
X7986877Y9076232D01*
X7978902Y9089440D01*
X7969402Y9101531D01*
X7958531Y9112402D01*
X7946440Y9121902D01*
X7933232Y9129877D01*
X7919212Y9136227D01*
X7904530Y9140799D01*
X7889392Y9143542D01*
X7874000Y9144508D01*
X7858607Y9143542D01*
X7843469Y9140799D01*
X7828788Y9136227D01*
X7814767Y9129877D01*
X7801559Y9121902D01*
X7789468Y9112402D01*
X7778597Y9101531D01*
X7769098Y9089440D01*
X7761122Y9076232D01*
X7754772Y9062212D01*
X7750200Y9047530D01*
X7747457Y9032392D01*
X7746492Y9017000D01*
X7747457Y9001607D01*
X7750200Y8986469D01*
X7754772Y8971788D01*
X7761122Y8957767D01*
X7769098Y8944559D01*
X7778597Y8932468D01*
X7789468Y8921597D01*
X7801559Y8912098D01*
X7814767Y8904122D01*
X7828788Y8897772D01*
X7843469Y8893200D01*
X7858607Y8890457D01*
G37*
G36*
X1143000Y8889492D02*
G01*
X1158392Y8890457D01*
X1173530Y8893200D01*
X1188212Y8897772D01*
X1202232Y8904122D01*
X1215440Y8912098D01*
X1227531Y8921597D01*
X1238402Y8932468D01*
X1247902Y8944559D01*
X1255877Y8957767D01*
X1262227Y8971788D01*
X1266799Y8986469D01*
X1269542Y9001607D01*
X1270508Y9017000D01*
X1269542Y9032392D01*
X1266799Y9047530D01*
X1262227Y9062212D01*
X1255877Y9076232D01*
X1247902Y9089440D01*
X1238402Y9101531D01*
X1227531Y9112402D01*
X1215440Y9121902D01*
X1202232Y9129877D01*
X1188212Y9136227D01*
X1173530Y9140799D01*
X1158392Y9143542D01*
X1143000Y9144508D01*
X1127607Y9143542D01*
X1112469Y9140799D01*
X1097788Y9136227D01*
X1083767Y9129877D01*
X1070559Y9121902D01*
X1058468Y9112402D01*
X1047597Y9101531D01*
X1038098Y9089440D01*
X1030122Y9076232D01*
X1023772Y9062212D01*
X1019200Y9047530D01*
X1016457Y9032392D01*
X1015492Y9017000D01*
X1016457Y9001607D01*
X1019200Y8986469D01*
X1023772Y8971788D01*
X1030122Y8957767D01*
X1038098Y8944559D01*
X1047597Y8932468D01*
X1058468Y8921597D01*
X1070559Y8912098D01*
X1083767Y8904122D01*
X1097788Y8897772D01*
X1112469Y8893200D01*
X1127607Y8890457D01*
G37*
G36*
X6328968Y8985504D02*
G01*
X6340398Y8991854D01*
X6354165Y9001607D01*
X6366814Y9012885D01*
X6378092Y9025534D01*
X6387846Y9039301D01*
X6394196Y9050731D01*
X6328968Y9050731D01*
G37*
G36*
X6701231Y8985504D02*
G01*
X6701231Y9050731D01*
X6636003Y9050731D01*
X6642353Y9039301D01*
X6652107Y9025534D01*
X6663385Y9012885D01*
X6676034Y9001607D01*
X6689801Y8991854D01*
G37*
G36*
X6838950Y8985504D02*
G01*
X6850380Y8991854D01*
X6864197Y9001607D01*
X6876796Y9012885D01*
X6888073Y9025534D01*
X6897878Y9039301D01*
X6904177Y9050731D01*
X6838950Y9050731D01*
G37*
G36*
X6191250Y8985504D02*
G01*
X6191250Y9050731D01*
X6126022Y9050731D01*
X6132322Y9039301D01*
X6142126Y9025534D01*
X6153404Y9012885D01*
X6166002Y9001607D01*
X6179820Y8991854D01*
G37*
G36*
X1950415Y9088882D02*
G01*
X2189784Y9088882D01*
X2203907Y9089796D01*
X2217521Y9092539D01*
X2230628Y9096959D01*
X2243023Y9103106D01*
X2254554Y9110776D01*
X2264968Y9119920D01*
X2274112Y9130334D01*
X2281783Y9141866D01*
X2287930Y9154261D01*
X2292400Y9167418D01*
X2295093Y9180982D01*
X2296007Y9194800D01*
X2295093Y9208617D01*
X2292400Y9222181D01*
X2287930Y9235338D01*
X2281783Y9247733D01*
X2274112Y9259265D01*
X2264968Y9269679D01*
X2254554Y9278823D01*
X2243023Y9286494D01*
X2230628Y9292640D01*
X2217521Y9297060D01*
X2203907Y9299803D01*
X2189784Y9300718D01*
X1950415Y9300718D01*
X1936292Y9299803D01*
X1922678Y9297060D01*
X1909572Y9292640D01*
X1897176Y9286494D01*
X1885645Y9278823D01*
X1875231Y9269679D01*
X1866087Y9259265D01*
X1858416Y9247733D01*
X1852269Y9235338D01*
X1847850Y9222181D01*
X1845106Y9208617D01*
X1844192Y9194800D01*
X1845106Y9180982D01*
X1847850Y9167418D01*
X1852269Y9154261D01*
X1858416Y9141866D01*
X1866087Y9130334D01*
X1875231Y9119920D01*
X1885645Y9110776D01*
X1897176Y9103106D01*
X1909572Y9096959D01*
X1922678Y9092539D01*
X1936292Y9089796D01*
G37*
G36*
X3982415Y9088882D02*
G01*
X4221784Y9088882D01*
X4235907Y9089796D01*
X4249521Y9092539D01*
X4262628Y9096959D01*
X4275023Y9103106D01*
X4286554Y9110776D01*
X4296968Y9119920D01*
X4306112Y9130334D01*
X4313783Y9141866D01*
X4319930Y9154261D01*
X4324400Y9167418D01*
X4327093Y9180982D01*
X4328007Y9194800D01*
X4327093Y9208617D01*
X4324400Y9222181D01*
X4319930Y9235338D01*
X4313783Y9247733D01*
X4306112Y9259265D01*
X4296968Y9269679D01*
X4286554Y9278823D01*
X4275023Y9286494D01*
X4262628Y9292640D01*
X4249521Y9297060D01*
X4235907Y9299803D01*
X4221784Y9300718D01*
X3982415Y9300718D01*
X3968292Y9299803D01*
X3954678Y9297060D01*
X3941572Y9292640D01*
X3929176Y9286494D01*
X3917645Y9278823D01*
X3907231Y9269679D01*
X3898087Y9259265D01*
X3890416Y9247733D01*
X3884269Y9235338D01*
X3879799Y9222181D01*
X3877106Y9208617D01*
X3876192Y9194800D01*
X3877106Y9180982D01*
X3879799Y9167418D01*
X3884269Y9154261D01*
X3890416Y9141866D01*
X3898087Y9130334D01*
X3907231Y9119920D01*
X3917645Y9110776D01*
X3929176Y9103106D01*
X3941572Y9096959D01*
X3954678Y9092539D01*
X3968292Y9089796D01*
G37*
G36*
X6126022Y9188450D02*
G01*
X6191250Y9188450D01*
X6191250Y9253677D01*
X6179820Y9247378D01*
X6166002Y9237573D01*
X6153404Y9226296D01*
X6142126Y9213697D01*
X6132322Y9199880D01*
G37*
G36*
X6636003Y9188450D02*
G01*
X6701231Y9188450D01*
X6701231Y9253677D01*
X6689801Y9247378D01*
X6676034Y9237573D01*
X6663385Y9226296D01*
X6652107Y9213697D01*
X6642353Y9199880D01*
G37*
G36*
X6328968Y9188450D02*
G01*
X6394196Y9188450D01*
X6387846Y9199880D01*
X6378092Y9213697D01*
X6366814Y9226296D01*
X6354165Y9237573D01*
X6340398Y9247378D01*
X6328968Y9253677D01*
G37*
G36*
X6838950Y9188450D02*
G01*
X6904177Y9188450D01*
X6897878Y9199880D01*
X6888073Y9213697D01*
X6876796Y9226296D01*
X6864197Y9237573D01*
X6850380Y9247378D01*
X6838950Y9253677D01*
G37*

%LPD*%
D10*
X3721100Y4927600D02*
G01*
X3721100Y8763000D01*
X3898900Y8940800D01*
X4102100Y8940800D01*
D11*
X4064000Y3632200D02*
G01*
X1854200Y3619500D01*
X1485900Y3987800D01*
X1485900Y5664200D01*
X1625600Y5803900D01*
X1625600Y6997700D01*
X1790700Y7162800D01*
X2070100Y7162800D01*
X4064000Y3746500D02*
G01*
X1892300Y3746500D01*
X1587500Y4051300D01*
X1587500Y5613400D01*
X1727200Y5753100D01*
X1727200Y6731000D01*
X1905000Y6908800D01*
X2070100Y6908800D01*
X4470400Y8051800D02*
G01*
X4470400Y4267200D01*
X4330700Y4127500D01*
X3594100Y4127500D01*
X2590800Y5130800D01*
X2070100Y5130800D01*
X5080000Y8432800D02*
G01*
X5753100Y8432800D01*
X6129299Y8056600D01*
X6129299Y7874685D01*
X2070100Y5384800D02*
G01*
X1879600Y5384800D01*
X1689100Y5194300D01*
X1689100Y4102100D01*
X1917700Y3873500D01*
X4241800Y3886200D01*
X4572000Y4216400D01*
X4572000Y7924800D01*
X4724400Y8318500D02*
G01*
X5651500Y8318500D01*
X5929299Y8040700D01*
X5929299Y7874688D01*
D10*
X6908800Y7200036D02*
G01*
X7073143Y7200036D01*
X7073143Y4381500D01*
X5729226Y7874762D02*
G01*
X5729226Y7681973D01*
X6211163Y7200036D01*
X6908800Y7200036D01*
X4102100Y8178800D02*
G01*
X5613400Y8178800D01*
X5729300Y8062899D01*
X5729300Y7874685D01*
X5448300Y4127500D02*
G01*
X6482079Y4129023D01*
D11*
X6482105Y4504105D02*
G01*
X6477711Y4508500D01*
X4826000Y4508500D01*
X6482105Y4504105D02*
G01*
X6713905Y4504105D01*
X6794500Y4584700D01*
X6922363Y4584700D01*
X6482110Y4379087D02*
G01*
X4836286Y4379087D01*
X4826000Y4368800D01*
X6482079Y4379213D02*
G01*
X6922261Y4381500D01*
X2070100Y4622800D02*
G01*
X2311400Y4622800D01*
X2514600Y4826000D01*
X5067300Y5245100D02*
G01*
X5778500Y5245100D01*
X6329301Y5795901D01*
X6329301Y6374711D01*
X4749800Y7797800D02*
G01*
X5029200Y7797800D01*
X5106085Y7874685D01*
X5129301Y7874685D01*
X2070100Y5638800D02*
G01*
X2425700Y5638800D01*
X3581400Y6794500D01*
X3581400Y7797800D01*
X3505200Y7023100D02*
G01*
X3505200Y7594600D01*
X3429000Y7670800D01*
X2070100Y7670800D01*
X6908800Y7049363D02*
G01*
X6477863Y7049363D01*
X6129299Y6700799D01*
X6129299Y6374711D01*
X6134100Y5791200D02*
G01*
X6129299Y5796000D01*
X6129299Y6374711D01*
X5929299Y6374711D02*
G01*
X5929299Y6081699D01*
X5918200Y6070600D01*
X5729300Y6374711D02*
G01*
X5729300Y6084900D01*
X5626100Y5981700D01*
X5329298Y6374711D02*
G01*
X5329298Y6002398D01*
X5130800Y5803900D01*
X5529300Y6374711D02*
G01*
X5529300Y6050000D01*
X5372100Y5892800D01*
X2070100Y8432800D02*
G01*
X2082800Y8420100D01*
X2730500Y8420100D01*
X2565400Y8013700D02*
G01*
X2400300Y8178800D01*
X2070100Y8178800D01*
X5529300Y7874688D02*
G01*
X5529300Y7599400D01*
X5334000Y7404100D01*
X4749800Y7404100D01*
X5329298Y7874688D02*
G01*
X5329298Y7607300D01*
X4749800Y7607300D01*
X2438400Y7848600D02*
G01*
X2362200Y7924800D01*
X2070100Y7924800D01*
X2070100Y6400800D02*
G01*
X2603500Y6400800D01*
X3314700Y7112000D01*
X3390900Y7391400D02*
G01*
X3390900Y6858000D01*
X2425700Y5892800D01*
X2070100Y5892800D01*
X2070100Y6654800D02*
G01*
X2082800Y6642100D01*
X2425700Y6642100D01*
D10*
X6529298Y7874685D02*
G01*
X6515112Y7888871D01*
X6515112Y8864612D01*
D12*
G01*
X7073024Y4381500D03*
G01*
X6922375Y4381500D03*
G01*
X7073024Y4584700D03*
G01*
X6922375Y4584700D03*
D13*
G01*
X6908800Y7200024D03*
D14*
G01*
X6908800Y7049363D03*
D15*
G01*
X6482105Y4754092D03*
D16*
G01*
X6162090Y4939106D03*
D15*
G01*
X6482105Y4629099D03*
G01*
X6482105Y4504105D03*
G01*
X6482105Y4379087D03*
G01*
X6482105Y4254093D03*
G01*
X6482105Y4129100D03*
D16*
G01*
X6162090Y3944086D03*
D17*
G01*
X2070100Y9194800D03*
D18*
G01*
X2070100Y8940800D03*
D17*
G01*
X2070100Y8686800D03*
G01*
X2070100Y8432800D03*
G01*
X2070100Y8178800D03*
G01*
X2070100Y7924800D03*
G01*
X2070100Y7670800D03*
G01*
X2070100Y7416800D03*
G01*
X2070100Y7162800D03*
G01*
X2070100Y6908800D03*
G01*
X2070100Y6654800D03*
G01*
X2070100Y6400800D03*
G01*
X2070100Y6146800D03*
G01*
X2070100Y5892800D03*
G01*
X2070100Y5638800D03*
G01*
X2070100Y5384800D03*
G01*
X2070100Y5130800D03*
G01*
X2070100Y4876800D03*
G01*
X2070100Y4622800D03*
G01*
X2070100Y4368800D03*
G01*
X4102100Y4368800D03*
G01*
X4102100Y4622800D03*
G01*
X4102100Y4876800D03*
G01*
X4102100Y5130800D03*
G01*
X4102100Y5384800D03*
G01*
X4102100Y5638800D03*
G01*
X4102100Y5892800D03*
G01*
X4102100Y6146800D03*
G01*
X4102100Y6400800D03*
G01*
X4102100Y6654800D03*
G01*
X4102100Y6908800D03*
G01*
X4102100Y7162800D03*
G01*
X4102100Y7416800D03*
G01*
X4102100Y7670800D03*
G01*
X4102100Y7924800D03*
G01*
X4102100Y8178800D03*
G01*
X4102100Y8432800D03*
G01*
X4102100Y8686800D03*
G01*
X4102100Y9194800D03*
G01*
X4102100Y8940800D03*
D19*
G01*
X6129299Y6374714D03*
G01*
X5729300Y7874685D03*
G01*
X6529298Y7874685D03*
G01*
X5529300Y7874685D03*
G01*
X5329300Y7874685D03*
G01*
X5129301Y7874685D03*
G01*
X6129299Y7874685D03*
G01*
X5929299Y7874685D03*
G01*
X6329299Y6374714D03*
G01*
X5129301Y6374714D03*
G01*
X6529298Y6374714D03*
G01*
X6329299Y7874685D03*
G01*
X5329300Y6374714D03*
G01*
X5529300Y6374714D03*
G01*
X5929299Y6374714D03*
G01*
X5729300Y6374714D03*
D20*
G01*
X6515125Y8864600D03*
D21*
G01*
X6770115Y9119590D03*
G01*
X6260109Y9119590D03*
G01*
X6260109Y8609584D03*
G01*
X6770115Y8609584D03*
D22*
G01*
X4749800Y7607300D03*
G01*
X4749800Y7404100D03*
G01*
X5918200Y6070600D03*
G01*
X5626100Y5981700D03*
G01*
X5372100Y5892800D03*
G01*
X5130800Y5803900D03*
G01*
X2730500Y8420100D03*
G01*
X3505200Y7023100D03*
G01*
X2565400Y8013700D03*
G01*
X2438400Y7848600D03*
G01*
X3314700Y7112000D03*
G01*
X3390900Y7391400D03*
G01*
X2425700Y6642100D03*
G01*
X6134100Y5791200D03*
G01*
X3721100Y4927600D03*
G01*
X5067300Y5245100D03*
G01*
X3581400Y7797800D03*
G01*
X4749800Y7797800D03*
G01*
X2514600Y4826000D03*
G01*
X4826000Y4508500D03*
G01*
X4826000Y4368800D03*
G01*
X5448300Y4127500D03*
G01*
X4470400Y8051800D03*
G01*
X4724400Y8318500D03*
G01*
X4572000Y7924800D03*
G01*
X5080000Y8432800D03*
G01*
X4064000Y3746500D03*
G01*
X4064000Y3632200D03*
M02*
