G04 Layer: BottomSilkscreenLayer*
G04 EasyEDA v6.5.23, 2023-05-23 22:52:14*
G04 b64d56a2c64b479e9c3a0f4ea2cfd69e,619bf967d5dd4da89e17e2f86567f5d7,10*
G04 Gerber Generator version 0.2*
G04 Scale: 100 percent, Rotated: No, Reflected: No *
G04 Dimensions in millimeters *
G04 leading zeros omitted , absolute positions ,4 integer and 5 decimal *
%FSLAX45Y45*%
%MOMM*%

%ADD10C,0.0001*%

%LPD*%
G36*
X6859117Y5754522D02*
G01*
X6842759Y5754217D01*
X6810095Y5752846D01*
X6797751Y5751931D01*
X6785508Y5750661D01*
X6773418Y5749137D01*
X6761480Y5747308D01*
X6749694Y5745124D01*
X6738010Y5742686D01*
X6726529Y5739942D01*
X6715150Y5736894D01*
X6703923Y5733491D01*
X6692798Y5729833D01*
X6681876Y5725871D01*
X6671056Y5721553D01*
X6660388Y5716981D01*
X6649821Y5712053D01*
X6639407Y5706821D01*
X6629146Y5701334D01*
X6618986Y5695492D01*
X6608978Y5689346D01*
X6599123Y5682894D01*
X6589318Y5676087D01*
X6579717Y5669026D01*
X6570218Y5661609D01*
X6560820Y5653938D01*
X6551574Y5645912D01*
X6537909Y5633262D01*
X6528968Y5624474D01*
X6520129Y5615330D01*
X6511290Y5605729D01*
X6502704Y5595772D01*
X6494424Y5585612D01*
X6486448Y5575249D01*
X6478727Y5564581D01*
X6471361Y5553760D01*
X6464249Y5542737D01*
X6457492Y5531510D01*
X6451092Y5520182D01*
X6444996Y5508650D01*
X6439255Y5496966D01*
X6431330Y5479288D01*
X6426504Y5467350D01*
X6422034Y5455310D01*
X6417970Y5443220D01*
X6414312Y5431078D01*
X6411010Y5418937D01*
X6408521Y5408168D01*
X6406642Y5397804D01*
X6405067Y5386273D01*
X6403797Y5373674D01*
X6402730Y5360263D01*
X6401917Y5346192D01*
X6401358Y5331612D01*
X6401054Y5301843D01*
X6401257Y5286959D01*
X6402374Y5258257D01*
X6403340Y5244744D01*
X6404508Y5232044D01*
X6405880Y5220360D01*
X6407556Y5209895D01*
X6409385Y5200751D01*
X6411468Y5193233D01*
X6419951Y5171643D01*
X6428079Y5192420D01*
X6431229Y5201005D01*
X6433820Y5209133D01*
X6435547Y5215839D01*
X6436563Y5222494D01*
X6439458Y5230825D01*
X6444691Y5243169D01*
X6451549Y5257952D01*
X6458204Y5271414D01*
X6464096Y5282387D01*
X6473342Y5298389D01*
X6479844Y5308752D01*
X6486550Y5318861D01*
X6493510Y5328716D01*
X6500672Y5338267D01*
X6508089Y5347614D01*
X6515709Y5356656D01*
X6523583Y5365445D01*
X6539890Y5382209D01*
X6548374Y5390134D01*
X6557060Y5397804D01*
X6565950Y5405221D01*
X6574993Y5412333D01*
X6584238Y5419140D01*
X6593687Y5425694D01*
X6603288Y5431942D01*
X6613093Y5437886D01*
X6623100Y5443524D01*
X6633209Y5448909D01*
X6643522Y5453938D01*
X6653987Y5458714D01*
X6664604Y5463133D01*
X6675374Y5467248D01*
X6686296Y5471058D01*
X6697370Y5474563D01*
X6708597Y5477764D01*
X6719925Y5480608D01*
X6731406Y5483148D01*
X6743039Y5485384D01*
X6754774Y5487263D01*
X6766610Y5488838D01*
X6778599Y5490057D01*
X6790690Y5490921D01*
X6802881Y5491480D01*
X6815175Y5491734D01*
X6827164Y5491530D01*
X6839254Y5490921D01*
X6851446Y5489854D01*
X6863689Y5488330D01*
X6875983Y5486450D01*
X6888225Y5484164D01*
X6900468Y5481421D01*
X6912711Y5478322D01*
X6924802Y5474868D01*
X6936892Y5471007D01*
X6948779Y5466842D01*
X6960565Y5462270D01*
X6972147Y5457393D01*
X6983577Y5452160D01*
X6994753Y5446623D01*
X7005726Y5440730D01*
X7016394Y5434584D01*
X7026757Y5428081D01*
X7036816Y5421376D01*
X7046518Y5414314D01*
X7055866Y5407050D01*
X7064806Y5399481D01*
X7093712Y5374081D01*
X7052767Y5331307D01*
X7013752Y5361025D01*
X7002932Y5368899D01*
X6992416Y5376113D01*
X6982104Y5382717D01*
X6971893Y5388711D01*
X6961682Y5394248D01*
X6951319Y5399328D01*
X6940702Y5404002D01*
X6929780Y5408320D01*
X6918401Y5412384D01*
X6906463Y5416143D01*
X6893814Y5419750D01*
X6880047Y5423357D01*
X6866128Y5426456D01*
X6852818Y5428945D01*
X6839966Y5430774D01*
X6827367Y5431942D01*
X6814972Y5432450D01*
X6802628Y5432298D01*
X6790181Y5431485D01*
X6777481Y5430012D01*
X6764477Y5427878D01*
X6750964Y5425084D01*
X6736791Y5421630D01*
X6723227Y5417870D01*
X6710934Y5414010D01*
X6698894Y5409742D01*
X6687159Y5405120D01*
X6675628Y5400141D01*
X6664350Y5394807D01*
X6653377Y5389118D01*
X6642658Y5383123D01*
X6632244Y5376773D01*
X6622135Y5370068D01*
X6612280Y5363057D01*
X6602730Y5355742D01*
X6593535Y5348122D01*
X6584594Y5340248D01*
X6576009Y5332018D01*
X6567728Y5323535D01*
X6559803Y5314797D01*
X6552234Y5305806D01*
X6544970Y5296560D01*
X6538061Y5287010D01*
X6531508Y5277256D01*
X6525361Y5267299D01*
X6519519Y5257088D01*
X6514084Y5246674D01*
X6509054Y5236006D01*
X6504381Y5225186D01*
X6500114Y5214162D01*
X6496253Y5202936D01*
X6492798Y5191556D01*
X6489700Y5180025D01*
X6487109Y5168290D01*
X6484874Y5156403D01*
X6483096Y5144414D01*
X6481724Y5132222D01*
X6480860Y5119928D01*
X6480403Y5107533D01*
X6480352Y5048859D01*
X6528765Y4998516D01*
X6538417Y4988915D01*
X6548221Y4979771D01*
X6558076Y4971084D01*
X6568084Y4962753D01*
X6578244Y4954828D01*
X6588607Y4947259D01*
X6599174Y4939995D01*
X6609994Y4933137D01*
X6621119Y4926533D01*
X6632549Y4920234D01*
X6644335Y4914188D01*
X6656476Y4908448D01*
X6669024Y4902860D01*
X6681978Y4897577D01*
X6695389Y4892446D01*
X6707936Y4887925D01*
X6718553Y4884369D01*
X6728459Y4881321D01*
X6737959Y4878781D01*
X6747357Y4876596D01*
X6756908Y4874869D01*
X6766814Y4873498D01*
X6777481Y4872431D01*
X6789013Y4871618D01*
X6801815Y4871059D01*
X6832142Y4870551D01*
X6857593Y4870602D01*
X6873189Y4870907D01*
X6887768Y4871466D01*
X6901332Y4872278D01*
X6913930Y4873294D01*
X6925513Y4874564D01*
X6936181Y4876088D01*
X6945934Y4877816D01*
X6954824Y4879848D01*
X6962851Y4882134D01*
X6975246Y4886198D01*
X6987438Y4890516D01*
X7005370Y4897475D01*
X7022846Y4905044D01*
X7034225Y4910429D01*
X7045401Y4916017D01*
X7056374Y4921910D01*
X7067143Y4928006D01*
X7077659Y4934356D01*
X7087971Y4940909D01*
X7098080Y4947767D01*
X7107936Y4954828D01*
X7122363Y4965852D01*
X7131659Y4973523D01*
X7140702Y4981397D01*
X7149541Y4989474D01*
X7158177Y4997805D01*
X7166508Y5006340D01*
X7174636Y5015128D01*
X7182510Y5024120D01*
X7190130Y5033314D01*
X7197547Y5042712D01*
X7204659Y5052314D01*
X7211517Y5062169D01*
X7218121Y5072176D01*
X7224522Y5082387D01*
X7233564Y5098135D01*
X7239253Y5108854D01*
X7244689Y5119776D01*
X7249871Y5130901D01*
X7254748Y5142230D01*
X7259370Y5153710D01*
X7263688Y5165394D01*
X7267752Y5177231D01*
X7271156Y5188864D01*
X7274407Y5202377D01*
X7277455Y5217363D01*
X7280249Y5233365D01*
X7282789Y5249976D01*
X7284974Y5266690D01*
X7286802Y5283098D01*
X7288225Y5298744D01*
X7289139Y5313172D01*
X7289596Y5325973D01*
X7289495Y5336692D01*
X7288784Y5344871D01*
X7288174Y5347817D01*
X7287412Y5350002D01*
X7286498Y5351322D01*
X7285380Y5351729D01*
X7282942Y5350611D01*
X7278014Y5347512D01*
X7261504Y5335930D01*
X7237730Y5318353D01*
X7208520Y5296154D01*
X7146899Y5248402D01*
X7120077Y5228336D01*
X7094931Y5210352D01*
X7071309Y5194401D01*
X7048906Y5180330D01*
X7038187Y5173980D01*
X7027621Y5168087D01*
X7007148Y5157571D01*
X6997192Y5152948D01*
X6987336Y5148732D01*
X6977532Y5144871D01*
X6967880Y5141366D01*
X6958228Y5138267D01*
X6948576Y5135524D01*
X6938924Y5133086D01*
X6929221Y5131003D01*
X6919468Y5129225D01*
X6909612Y5127752D01*
X6899605Y5126583D01*
X6889496Y5125669D01*
X6879183Y5125059D01*
X6868668Y5124704D01*
X6852412Y5124653D01*
X6829755Y5125364D01*
X6815886Y5126126D01*
X6801358Y5127193D01*
X6788556Y5128514D01*
X6776974Y5130139D01*
X6766356Y5132222D01*
X6756196Y5134762D01*
X6746138Y5138013D01*
X6735825Y5141925D01*
X6724802Y5146700D01*
X6712712Y5152390D01*
X6700621Y5158435D01*
X6689090Y5164836D01*
X6677253Y5171948D01*
X6665468Y5179517D01*
X6654038Y5187442D01*
X6643420Y5195316D01*
X6633819Y5202986D01*
X6625691Y5210251D01*
X6591198Y5245354D01*
X6642862Y5280812D01*
X6674205Y5250586D01*
X6683908Y5242458D01*
X6695236Y5233924D01*
X6707479Y5225440D01*
X6720027Y5217464D01*
X6732168Y5210454D01*
X6743039Y5204866D01*
X6752640Y5200396D01*
X6761480Y5196687D01*
X6770065Y5193741D01*
X6778802Y5191404D01*
X6788150Y5189677D01*
X6798411Y5188407D01*
X6810095Y5187543D01*
X6823659Y5187035D01*
X6853986Y5186680D01*
X6875576Y5187035D01*
X6885635Y5187442D01*
X6904736Y5188966D01*
X6913829Y5190134D01*
X6922770Y5191607D01*
X6931507Y5193436D01*
X6940194Y5195570D01*
X6948881Y5198160D01*
X6957568Y5201158D01*
X6966407Y5204561D01*
X6975348Y5208473D01*
X6984542Y5212943D01*
X6994042Y5217871D01*
X7003846Y5223408D01*
X7024776Y5236311D01*
X7047788Y5251805D01*
X7073341Y5270144D01*
X7102043Y5291582D01*
X7134250Y5316372D01*
X7198918Y5366816D01*
X7246874Y5403545D01*
X7261250Y5414213D01*
X7267905Y5418836D01*
X7269124Y5420309D01*
X7270089Y5422087D01*
X7270800Y5424170D01*
X7271410Y5429250D01*
X7271003Y5435498D01*
X7269734Y5442712D01*
X7267549Y5450840D01*
X7264501Y5459780D01*
X7260742Y5469483D01*
X7256272Y5479796D01*
X7251090Y5490616D01*
X7245350Y5501894D01*
X7239050Y5513476D01*
X7232243Y5525312D01*
X7224979Y5537301D01*
X7217359Y5549290D01*
X7205319Y5567172D01*
X7196937Y5578856D01*
X7188403Y5590184D01*
X7179716Y5601157D01*
X7170928Y5611672D01*
X7162139Y5621528D01*
X7153351Y5630722D01*
X7144664Y5639104D01*
X7136231Y5646521D01*
X7127544Y5653582D01*
X7118197Y5660644D01*
X7108291Y5667705D01*
X7087209Y5681573D01*
X7076135Y5688279D01*
X7059117Y5697982D01*
X7036053Y5710021D01*
X7024522Y5715558D01*
X7013092Y5720740D01*
X7001865Y5725464D01*
X6990892Y5729782D01*
X6980275Y5733592D01*
X6970115Y5736844D01*
X6960412Y5739536D01*
X6951268Y5741619D01*
X6918401Y5748324D01*
X6896100Y5753100D01*
X6889851Y5753862D01*
X6879793Y5754370D01*
G37*
G36*
X5456732Y5550966D02*
G01*
X5461152Y5053838D01*
X5484063Y5020818D01*
X5491175Y5011826D01*
X5498744Y5003444D01*
X5506720Y4995672D01*
X5515152Y4988509D01*
X5523941Y4981905D01*
X5533034Y4975910D01*
X5542483Y4970526D01*
X5552135Y4965700D01*
X5562092Y4961483D01*
X5572252Y4957826D01*
X5582564Y4954778D01*
X5593029Y4952288D01*
X5603595Y4950409D01*
X5614212Y4949088D01*
X5624931Y4948326D01*
X5635599Y4948174D01*
X5646318Y4948580D01*
X5656935Y4949596D01*
X5667451Y4951171D01*
X5677865Y4953304D01*
X5688177Y4955997D01*
X5698236Y4959299D01*
X5708091Y4963160D01*
X5717743Y4967579D01*
X5727090Y4972558D01*
X5736082Y4978146D01*
X5744768Y4984242D01*
X5753049Y4990896D01*
X5760974Y4998161D01*
X5768390Y5005984D01*
X5775350Y5014315D01*
X5781802Y5023256D01*
X5787694Y5032705D01*
X5791606Y5039868D01*
X5794756Y5046218D01*
X5797448Y5052669D01*
X5799023Y5057343D01*
X5800394Y5062524D01*
X5801614Y5068316D01*
X5802731Y5074970D01*
X5804560Y5091430D01*
X5805932Y5113324D01*
X5806998Y5142026D01*
X5807811Y5178907D01*
X5809234Y5282895D01*
X5809945Y5363565D01*
X5810097Y5451500D01*
X5809640Y5500065D01*
X5808776Y5531053D01*
X5808218Y5538673D01*
X5807862Y5540349D01*
X5804357Y5544718D01*
X5797905Y5548071D01*
X5789015Y5550204D01*
X5778195Y5550966D01*
X5752592Y5550966D01*
X5749290Y5224627D01*
X5748578Y5183987D01*
X5747715Y5151120D01*
X5746648Y5125008D01*
X5745327Y5104638D01*
X5743651Y5089093D01*
X5741670Y5077358D01*
X5740501Y5072634D01*
X5737809Y5064912D01*
X5735421Y5060035D01*
X5729528Y5050536D01*
X5726226Y5046167D01*
X5722670Y5041950D01*
X5718962Y5037988D01*
X5710936Y5030724D01*
X5706668Y5027472D01*
X5697626Y5021580D01*
X5692902Y5018938D01*
X5688025Y5016550D01*
X5677966Y5012486D01*
X5672836Y5010759D01*
X5662218Y5008016D01*
X5656834Y5006949D01*
X5645912Y5005578D01*
X5634837Y5005070D01*
X5623814Y5005476D01*
X5612790Y5006797D01*
X5601919Y5009032D01*
X5596585Y5010454D01*
X5586120Y5014010D01*
X5576011Y5018481D01*
X5566359Y5023866D01*
X5557266Y5030165D01*
X5552948Y5033619D01*
X5548833Y5037328D01*
X5541060Y5045456D01*
X5537504Y5049824D01*
X5534152Y5054447D01*
X5529986Y5060950D01*
X5526430Y5067808D01*
X5524906Y5071567D01*
X5523534Y5075783D01*
X5522315Y5080609D01*
X5521248Y5086197D01*
X5519521Y5100269D01*
X5518251Y5119370D01*
X5517388Y5144668D01*
X5516829Y5177536D01*
X5516372Y5270906D01*
X5516321Y5550966D01*
G37*
G36*
X3110026Y5545683D02*
G01*
X3038398Y5541314D01*
X3024276Y5540044D01*
X3010509Y5538368D01*
X2997200Y5536285D01*
X2984246Y5533796D01*
X2971749Y5530900D01*
X2959608Y5527548D01*
X2947822Y5523839D01*
X2936443Y5519623D01*
X2925419Y5515051D01*
X2914802Y5510022D01*
X2904490Y5504586D01*
X2894584Y5498693D01*
X2885033Y5492343D01*
X2875788Y5485587D01*
X2866898Y5478373D01*
X2858363Y5470702D01*
X2850134Y5462574D01*
X2842209Y5454040D01*
X2834640Y5444998D01*
X2827324Y5435549D01*
X2820365Y5425592D01*
X2810052Y5409234D01*
X2801924Y5394553D01*
X2798318Y5387136D01*
X2795016Y5379567D01*
X2791968Y5371846D01*
X2789174Y5363819D01*
X2786634Y5355437D01*
X2784348Y5346649D01*
X2782316Y5337352D01*
X2780487Y5327497D01*
X2778861Y5316982D01*
X2776169Y5293715D01*
X2775102Y5280812D01*
X2773476Y5252110D01*
X2772410Y5219090D01*
X2771749Y5181193D01*
X2771597Y5160162D01*
X2771546Y4954371D01*
X2829509Y4954371D01*
X2832303Y5185410D01*
X2833014Y5230926D01*
X2833878Y5266690D01*
X2835046Y5294223D01*
X2835706Y5305399D01*
X2836519Y5315102D01*
X2838551Y5330748D01*
X2839821Y5337149D01*
X2841244Y5342737D01*
X2842869Y5347817D01*
X2844698Y5352542D01*
X2847848Y5359349D01*
X2853385Y5369610D01*
X2859786Y5380431D01*
X2866542Y5390692D01*
X2873705Y5400446D01*
X2881223Y5409692D01*
X2889097Y5418429D01*
X2897276Y5426608D01*
X2905861Y5434228D01*
X2914751Y5441340D01*
X2924048Y5447944D01*
X2933649Y5453989D01*
X2943555Y5459476D01*
X2953816Y5464454D01*
X2964434Y5468874D01*
X2975406Y5472734D01*
X2986633Y5476036D01*
X2998216Y5478830D01*
X3010154Y5481015D01*
X3051149Y5486704D01*
X3051149Y4954371D01*
X3110026Y4954371D01*
G37*
G36*
X4618583Y5545632D02*
G01*
X4542840Y5541416D01*
X4528007Y5540146D01*
X4513834Y5538520D01*
X4500219Y5536387D01*
X4487164Y5533847D01*
X4474667Y5530850D01*
X4462576Y5527395D01*
X4450892Y5523382D01*
X4439615Y5518861D01*
X4428642Y5513832D01*
X4417974Y5508244D01*
X4407509Y5502046D01*
X4397248Y5495290D01*
X4387138Y5487924D01*
X4377131Y5479897D01*
X4367174Y5471261D01*
X4358284Y5462930D01*
X4350715Y5455056D01*
X4343501Y5446826D01*
X4336643Y5438190D01*
X4330090Y5429199D01*
X4323943Y5419852D01*
X4318203Y5410200D01*
X4312767Y5400243D01*
X4307687Y5389981D01*
X4303014Y5379516D01*
X4298696Y5368747D01*
X4294784Y5357825D01*
X4291177Y5346649D01*
X4288028Y5335320D01*
X4285183Y5323840D01*
X4282795Y5312257D01*
X4280712Y5300522D01*
X4279087Y5288737D01*
X4277817Y5276850D01*
X4276953Y5264912D01*
X4276373Y5248706D01*
X4334357Y5248706D01*
X4334560Y5262118D01*
X4335170Y5275427D01*
X4336288Y5288483D01*
X4337812Y5301183D01*
X4339844Y5313426D01*
X4342282Y5325110D01*
X4345178Y5336184D01*
X4348530Y5346395D01*
X4352391Y5355793D01*
X4357573Y5366461D01*
X4363262Y5376773D01*
X4369460Y5386781D01*
X4376166Y5396382D01*
X4383328Y5405678D01*
X4390999Y5414568D01*
X4399127Y5423103D01*
X4407662Y5431231D01*
X4416704Y5438952D01*
X4426153Y5446268D01*
X4436008Y5453126D01*
X4446270Y5459526D01*
X4451045Y5462168D01*
X4456277Y5464759D01*
X4467809Y5469534D01*
X4480509Y5473750D01*
X4493920Y5477306D01*
X4500829Y5478830D01*
X4514748Y5481218D01*
X4567072Y5486806D01*
X4567072Y5013299D01*
X4536592Y5013401D01*
X4525365Y5014214D01*
X4514088Y5015839D01*
X4502759Y5018227D01*
X4491431Y5021326D01*
X4480204Y5025186D01*
X4469079Y5029657D01*
X4458106Y5034788D01*
X4447336Y5040528D01*
X4436821Y5046827D01*
X4426610Y5053685D01*
X4416704Y5061051D01*
X4407204Y5068925D01*
X4398162Y5077206D01*
X4389577Y5085943D01*
X4381550Y5095087D01*
X4370527Y5109413D01*
X4364024Y5119370D01*
X4358182Y5129631D01*
X4353052Y5140147D01*
X4349191Y5149850D01*
X4345736Y5160365D01*
X4342790Y5171643D01*
X4340250Y5183530D01*
X4338167Y5195976D01*
X4336542Y5208828D01*
X4335373Y5221935D01*
X4334662Y5235295D01*
X4334357Y5248706D01*
X4276373Y5248706D01*
X4276344Y5240985D01*
X4276648Y5229047D01*
X4277360Y5217109D01*
X4278477Y5205272D01*
X4280001Y5193487D01*
X4281932Y5181752D01*
X4284268Y5170220D01*
X4287012Y5158790D01*
X4290161Y5147513D01*
X4293717Y5136388D01*
X4297730Y5125516D01*
X4302150Y5114848D01*
X4306976Y5104434D01*
X4312208Y5094274D01*
X4317898Y5084419D01*
X4324350Y5074361D01*
X4331411Y5064252D01*
X4338828Y5054549D01*
X4346549Y5045354D01*
X4354576Y5036616D01*
X4362958Y5028285D01*
X4371644Y5020462D01*
X4380687Y5013045D01*
X4390034Y5006086D01*
X4399737Y4999634D01*
X4409744Y4993589D01*
X4420108Y4987950D01*
X4430826Y4982819D01*
X4441850Y4978095D01*
X4453229Y4973878D01*
X4464964Y4970068D01*
X4477054Y4966665D01*
X4489500Y4963718D01*
X4502302Y4961229D01*
X4515459Y4959197D01*
X4528921Y4957572D01*
X4542790Y4956403D01*
X4618583Y4952390D01*
G37*
G36*
X6068263Y5543600D02*
G01*
X6068263Y5013299D01*
X5840120Y5013299D01*
X5840120Y4954371D01*
X6127089Y4954371D01*
X6127089Y5543600D01*
G37*
G36*
X4692142Y5543600D02*
G01*
X4692142Y5484672D01*
X4839309Y5484672D01*
X4839309Y4954371D01*
X4898186Y4954371D01*
X4898186Y5484672D01*
X5030673Y5484672D01*
X5030673Y5543600D01*
G37*
G36*
X3875328Y5543600D02*
G01*
X3875328Y5417769D01*
X3926738Y5417769D01*
X3926789Y5435041D01*
X3927094Y5449570D01*
X3927703Y5461558D01*
X3928821Y5471160D01*
X3929583Y5475173D01*
X3930497Y5478627D01*
X3931564Y5481624D01*
X3932834Y5484164D01*
X3934307Y5486247D01*
X3936034Y5487924D01*
X3937965Y5489194D01*
X3940149Y5490108D01*
X3942587Y5490667D01*
X3945331Y5490921D01*
X3951630Y5490565D01*
X3959301Y5489295D01*
X3991051Y5481472D01*
X4002887Y5478221D01*
X4014419Y5474360D01*
X4025595Y5469839D01*
X4036466Y5464708D01*
X4046982Y5459018D01*
X4057142Y5452719D01*
X4066895Y5445861D01*
X4076293Y5438444D01*
X4085285Y5430520D01*
X4093819Y5422087D01*
X4101947Y5413146D01*
X4109618Y5403748D01*
X4116781Y5393893D01*
X4123486Y5383631D01*
X4129684Y5372912D01*
X4135374Y5361787D01*
X4140555Y5350306D01*
X4145178Y5338419D01*
X4149191Y5326227D01*
X4152696Y5313680D01*
X4155592Y5300827D01*
X4157878Y5287670D01*
X4162501Y5256377D01*
X3926840Y5256377D01*
X3926738Y5417769D01*
X3875328Y5417769D01*
X3875328Y4954371D01*
X3926840Y4954371D01*
X3926840Y5197449D01*
X4162348Y5197449D01*
X4162348Y4954371D01*
X4213860Y4954371D01*
X4213707Y5165090D01*
X4213199Y5202732D01*
X4212285Y5235752D01*
X4210862Y5264607D01*
X4208881Y5289804D01*
X4207662Y5301234D01*
X4204665Y5322062D01*
X4202887Y5331561D01*
X4200906Y5340553D01*
X4198721Y5349087D01*
X4196334Y5357266D01*
X4193692Y5365089D01*
X4190847Y5372709D01*
X4184345Y5387441D01*
X4176776Y5401970D01*
X4172559Y5409336D01*
X4166311Y5419547D01*
X4159504Y5429453D01*
X4152188Y5439054D01*
X4144467Y5448350D01*
X4136288Y5457342D01*
X4127754Y5465978D01*
X4118762Y5474208D01*
X4109465Y5482082D01*
X4099814Y5489549D01*
X4089908Y5496610D01*
X4079646Y5503214D01*
X4069181Y5509361D01*
X4058462Y5515051D01*
X4047540Y5520232D01*
X4036466Y5524906D01*
X4025188Y5529021D01*
X4013809Y5532628D01*
X4002328Y5535625D01*
X3993184Y5537352D01*
X3981602Y5539028D01*
X3968191Y5540451D01*
X3953814Y5541619D01*
X3939184Y5542432D01*
X3925011Y5542889D01*
G37*
G36*
X3470605Y5543600D02*
G01*
X3470605Y5484672D01*
X3625138Y5484672D01*
X3625138Y4954371D01*
X3676650Y4954371D01*
X3676650Y5484672D01*
X3809136Y5484672D01*
X3809136Y5543600D01*
G37*
G36*
X3176270Y5543600D02*
G01*
X3176320Y5504484D01*
X3176727Y5497169D01*
X3177794Y5491937D01*
X3179876Y5488432D01*
X3183331Y5486298D01*
X3188360Y5485180D01*
X3195472Y5484774D01*
X3210509Y5484622D01*
X3221786Y5483910D01*
X3233013Y5482590D01*
X3244138Y5480558D01*
X3255162Y5477916D01*
X3266033Y5474614D01*
X3276752Y5470702D01*
X3287268Y5466181D01*
X3297631Y5461000D01*
X3307740Y5455259D01*
X3317595Y5448909D01*
X3327196Y5441950D01*
X3336493Y5434431D01*
X3345535Y5426354D01*
X3354476Y5417464D01*
X3363061Y5408117D01*
X3370783Y5398719D01*
X3377793Y5389118D01*
X3384143Y5379212D01*
X3389884Y5368899D01*
X3395014Y5358079D01*
X3399586Y5346598D01*
X3403701Y5334355D01*
X3407410Y5321300D01*
X3410712Y5307279D01*
X3413709Y5292191D01*
X3419703Y5256834D01*
X3238804Y5252669D01*
X3234232Y5197449D01*
X3419094Y5197449D01*
X3419094Y5013299D01*
X3176270Y5013299D01*
X3176270Y4954371D01*
X3471519Y4954371D01*
X3467963Y5239562D01*
X3467100Y5276646D01*
X3465931Y5304942D01*
X3465169Y5316321D01*
X3464255Y5326227D01*
X3463188Y5334863D01*
X3461918Y5342432D01*
X3460394Y5349189D01*
X3458718Y5355386D01*
X3456736Y5361279D01*
X3451961Y5372912D01*
X3444544Y5388660D01*
X3438347Y5400700D01*
X3431794Y5412181D01*
X3424936Y5423154D01*
X3417671Y5433618D01*
X3410051Y5443575D01*
X3402076Y5453075D01*
X3393694Y5462066D01*
X3384956Y5470601D01*
X3375761Y5478678D01*
X3366211Y5486298D01*
X3356203Y5493461D01*
X3345789Y5500166D01*
X3334969Y5506415D01*
X3323640Y5512257D01*
X3311906Y5517692D01*
X3299714Y5522722D01*
X3287014Y5527344D01*
X3274567Y5531307D01*
X3261817Y5534710D01*
X3248507Y5537708D01*
X3235350Y5540197D01*
X3222955Y5542026D01*
X3212134Y5543042D01*
X3207562Y5543245D01*
G37*
G36*
X2234336Y5543600D02*
G01*
X2234336Y5256377D01*
X2285847Y5256377D01*
X2286000Y5431586D01*
X2286304Y5451449D01*
X2286914Y5466384D01*
X2287930Y5477103D01*
X2288641Y5481116D01*
X2289454Y5484266D01*
X2290419Y5486755D01*
X2291537Y5488584D01*
X2292858Y5489905D01*
X2294331Y5490768D01*
X2296058Y5491226D01*
X2300071Y5491480D01*
X2307234Y5491073D01*
X2318715Y5489397D01*
X2332126Y5486603D01*
X2346655Y5482894D01*
X2361641Y5478526D01*
X2376373Y5473649D01*
X2390089Y5468518D01*
X2402128Y5463286D01*
X2411831Y5458206D01*
X2420772Y5452618D01*
X2429560Y5446318D01*
X2438095Y5439308D01*
X2446426Y5431688D01*
X2454452Y5423458D01*
X2462174Y5414670D01*
X2469591Y5405424D01*
X2476601Y5395671D01*
X2483205Y5385562D01*
X2489352Y5375097D01*
X2495092Y5364327D01*
X2500274Y5353304D01*
X2504998Y5342077D01*
X2509113Y5330647D01*
X2512669Y5319166D01*
X2515565Y5307584D01*
X2517851Y5295950D01*
X2523337Y5256377D01*
X2234336Y5256377D01*
X2234336Y4954371D01*
X2285847Y4954371D01*
X2285847Y5197449D01*
X2521356Y5197449D01*
X2521356Y4954371D01*
X2572867Y4954371D01*
X2575255Y5090718D01*
X2575763Y5133238D01*
X2575814Y5180177D01*
X2575356Y5213197D01*
X2574442Y5242560D01*
X2573020Y5268722D01*
X2570988Y5291988D01*
X2568295Y5312765D01*
X2564993Y5331358D01*
X2563063Y5339994D01*
X2560929Y5348224D01*
X2556103Y5363718D01*
X2550464Y5378196D01*
X2543962Y5392013D01*
X2536545Y5405577D01*
X2528163Y5419293D01*
X2520696Y5430418D01*
X2513126Y5440883D01*
X2505354Y5450738D01*
X2497378Y5459984D01*
X2489098Y5468670D01*
X2480564Y5476798D01*
X2471724Y5484368D01*
X2462530Y5491429D01*
X2452928Y5497982D01*
X2442921Y5504078D01*
X2432456Y5509768D01*
X2421534Y5515000D01*
X2410104Y5519826D01*
X2398166Y5524296D01*
X2385618Y5528411D01*
X2372461Y5532221D01*
X2363673Y5534304D01*
X2353513Y5536285D01*
X2342337Y5538114D01*
X2330500Y5539740D01*
X2306370Y5542127D01*
X2294788Y5542838D01*
X2284018Y5543143D01*
G37*
G36*
X1829612Y5543600D02*
G01*
X1829612Y5484672D01*
X1976780Y5484672D01*
X1976780Y4954371D01*
X2035657Y4954371D01*
X2035657Y5484672D01*
X2168144Y5484672D01*
X2168144Y5543600D01*
G37*
G36*
X5120690Y5542991D02*
G01*
X5114950Y5542686D01*
X5110734Y5541670D01*
X5107787Y5539790D01*
X5105908Y5536742D01*
X5104841Y5532323D01*
X5104333Y5526328D01*
X5104384Y5510377D01*
X5104993Y5504129D01*
X5106568Y5499354D01*
X5109362Y5495696D01*
X5113782Y5492800D01*
X5120284Y5490362D01*
X5129174Y5488025D01*
X5147767Y5483860D01*
X5161280Y5480354D01*
X5174234Y5476392D01*
X5186781Y5471922D01*
X5198770Y5466994D01*
X5210200Y5461609D01*
X5221071Y5455767D01*
X5231384Y5449468D01*
X5241086Y5442813D01*
X5250180Y5435701D01*
X5258612Y5428183D01*
X5266334Y5420309D01*
X5273598Y5411825D01*
X5280710Y5402173D01*
X5287619Y5391607D01*
X5294122Y5380329D01*
X5300218Y5368493D01*
X5305856Y5356352D01*
X5310936Y5344007D01*
X5315305Y5331714D01*
X5318963Y5319623D01*
X5321858Y5307990D01*
X5323840Y5296916D01*
X5324500Y5291683D01*
X5325008Y5281879D01*
X5325008Y5256377D01*
X5148427Y5256377D01*
X5148427Y5197449D01*
X5325008Y5197449D01*
X5325008Y4954371D01*
X5383885Y4954371D01*
X5383733Y5169662D01*
X5383276Y5207965D01*
X5382361Y5241391D01*
X5380990Y5270500D01*
X5380126Y5283606D01*
X5377840Y5307330D01*
X5376468Y5317998D01*
X5373166Y5337505D01*
X5369052Y5354929D01*
X5366664Y5363057D01*
X5364022Y5370830D01*
X5361178Y5378399D01*
X5358079Y5385765D01*
X5351068Y5400243D01*
X5345074Y5411216D01*
X5340045Y5419699D01*
X5333847Y5429097D01*
X5327091Y5438241D01*
X5319826Y5447182D01*
X5312105Y5455869D01*
X5303875Y5464251D01*
X5295239Y5472328D01*
X5286197Y5480100D01*
X5276799Y5487517D01*
X5267045Y5494578D01*
X5256936Y5501233D01*
X5246573Y5507482D01*
X5235956Y5513273D01*
X5225084Y5518658D01*
X5214061Y5523585D01*
X5202834Y5528005D01*
X5191455Y5531866D01*
X5179923Y5535269D01*
X5169255Y5537809D01*
X5157724Y5539841D01*
X5145278Y5541518D01*
X5133441Y5542584D01*
G37*
G36*
X2646426Y5013299D02*
G01*
X2646527Y4974386D01*
X2646934Y4967173D01*
X2647950Y4961940D01*
X2649829Y4958384D01*
X2652826Y4956149D01*
X2657246Y4954981D01*
X2663342Y4954473D01*
X2671318Y4954371D01*
X2677312Y4954625D01*
X2682595Y4955387D01*
X2687269Y4956708D01*
X2691282Y4958588D01*
X2694736Y4961128D01*
X2697632Y4964379D01*
X2700020Y4968290D01*
X2701950Y4973015D01*
X2703372Y4978552D01*
X2704338Y4984953D01*
X2704947Y4992217D01*
X2705201Y5000396D01*
X2704896Y5003901D01*
X2703931Y5006695D01*
X2702052Y5008930D01*
X2699258Y5010658D01*
X2695346Y5011877D01*
X2690215Y5012690D01*
X2683764Y5013147D01*
G37*
G36*
X1790700Y8026400D02*
G01*
X7277100Y8026400D01*
X7277100Y7162800D01*
X1790700Y7162800D01*
G37*
M02*
