G04 Layer: TopSolderMaskLayer*
G04 EasyEDA v6.5.23, 2023-05-23 22:52:14*
G04 b64d56a2c64b479e9c3a0f4ea2cfd69e,619bf967d5dd4da89e17e2f86567f5d7,10*
G04 Gerber Generator version 0.2*
G04 Scale: 100 percent, Rotated: No, Reflected: No *
G04 Dimensions in millimeters *
G04 leading zeros omitted , absolute positions ,4 integer and 5 decimal *
%FSLAX45Y45*%
%MOMM*%

%AMMACRO1*1,1,$1,$2,$3*1,1,$1,$4,$5*1,1,$1,0-$2,0-$3*1,1,$1,0-$4,0-$5*20,1,$1,$2,$3,$4,$5,0*20,1,$1,$4,$5,0-$2,0-$3,0*20,1,$1,0-$2,0-$3,0-$4,0-$5,0*20,1,$1,0-$4,0-$5,$2,$3,0*4,1,4,$2,$3,$4,$5,0-$2,0-$3,0-$4,0-$5,$2,$3,0*%
%ADD10MACRO1,0.1016X-0.4032X-0.432X-0.4032X0.432*%
%ADD11MACRO1,0.1016X0.4032X-0.432X0.4032X0.432*%
%ADD12MACRO1,0.1016X0.432X-0.4032X-0.432X-0.4032*%
%ADD13MACRO1,0.1016X0.432X0.4032X-0.432X0.4032*%
%ADD14C,2.3016*%
%ADD15C,2.6016*%
%ADD16MACRO1,0.2032X0.85X0.3X0.85X-0.3*%
%ADD17MACRO1,0.2032X1.35X0.5X1.35X-0.5*%
%ADD18O,4.203192X1.8031968*%
%ADD19O,4.139691999999999X1.7272*%
%ADD20MACRO1,0.1016X-0.5X-1.5X-0.5X1.5*%

%LPD*%
D10*
G01*
X7073024Y4381500D03*
D11*
G01*
X6922375Y4381500D03*
D10*
G01*
X7073024Y4584700D03*
D11*
G01*
X6922375Y4584700D03*
D12*
G01*
X6908800Y7200024D03*
D13*
G01*
X6908800Y7049375D03*
D14*
G01*
X6515125Y8864600D03*
D15*
G01*
X6770115Y9119590D03*
G01*
X6260109Y9119590D03*
G01*
X6260109Y8609584D03*
G01*
X6770115Y8609584D03*
D16*
G01*
X6482100Y4754100D03*
D17*
G01*
X6162100Y4939098D03*
D16*
G01*
X6482100Y4629099D03*
G01*
X6482100Y4504100D03*
G01*
X6482100Y4379099D03*
G01*
X6482100Y4254101D03*
G01*
X6482100Y4129100D03*
D17*
G01*
X6162100Y3944099D03*
D18*
G01*
X2070100Y9194800D03*
D19*
G01*
X2070100Y8940800D03*
D18*
G01*
X2070100Y8686800D03*
G01*
X2070100Y8432800D03*
G01*
X2070100Y8178800D03*
G01*
X2070100Y7924800D03*
G01*
X2070100Y7670800D03*
G01*
X2070100Y7416800D03*
G01*
X2070100Y7162800D03*
G01*
X2070100Y6908800D03*
G01*
X2070100Y6654800D03*
G01*
X2070100Y6400800D03*
G01*
X2070100Y6146800D03*
G01*
X2070100Y5892800D03*
G01*
X2070100Y5638800D03*
G01*
X2070100Y5384800D03*
G01*
X2070100Y5130800D03*
G01*
X2070100Y4876800D03*
G01*
X2070100Y4622800D03*
G01*
X2070100Y4368800D03*
G01*
X4102100Y4368800D03*
G01*
X4102100Y4622800D03*
G01*
X4102100Y4876800D03*
G01*
X4102100Y5130800D03*
G01*
X4102100Y5384800D03*
G01*
X4102100Y5638800D03*
G01*
X4102100Y5892800D03*
G01*
X4102100Y6146800D03*
G01*
X4102100Y6400800D03*
G01*
X4102100Y6654800D03*
G01*
X4102100Y6908800D03*
G01*
X4102100Y7162800D03*
G01*
X4102100Y7416800D03*
G01*
X4102100Y7670800D03*
G01*
X4102100Y7924800D03*
G01*
X4102100Y8178800D03*
G01*
X4102100Y8432800D03*
G01*
X4102100Y8686800D03*
G01*
X4102100Y9194800D03*
G01*
X4102100Y8940800D03*
D20*
G01*
X6129299Y6374714D03*
G01*
X5729300Y7874685D03*
G01*
X6529298Y7874685D03*
G01*
X5529300Y7874685D03*
G01*
X5329300Y7874685D03*
G01*
X5129301Y7874685D03*
G01*
X6129299Y7874685D03*
G01*
X5929299Y7874685D03*
G01*
X6329299Y6374714D03*
G01*
X5129301Y6374714D03*
G01*
X6529298Y6374714D03*
G01*
X6329299Y7874685D03*
G01*
X5329300Y6374714D03*
G01*
X5529300Y6374714D03*
G01*
X5929299Y6374714D03*
G01*
X5729300Y6374714D03*
M02*
