G04 Layer: TopSilkscreenLayer*
G04 EasyEDA v6.5.23, 2023-05-23 22:52:14*
G04 b64d56a2c64b479e9c3a0f4ea2cfd69e,619bf967d5dd4da89e17e2f86567f5d7,10*
G04 Gerber Generator version 0.2*
G04 Scale: 100 percent, Rotated: No, Reflected: No *
G04 Dimensions in millimeters *
G04 leading zeros omitted , absolute positions ,4 integer and 5 decimal *
%FSLAX45Y45*%
%MOMM*%

%ADD10C,0.2032*%
%ADD11C,0.1524*%
%ADD12C,0.1501*%
%ADD13C,0.2540*%
%ADD14C,0.1270*%
%ADD15C,0.4064*%
%ADD16C,0.0128*%

%LPD*%
D10*
X2184400Y3595878D02*
G01*
X2184400Y3402076D01*
X2184400Y3402076D02*
G01*
X2295143Y3402076D01*
X2356104Y3531362D02*
G01*
X2356104Y3438905D01*
X2365502Y3411220D01*
X2383790Y3402076D01*
X2411729Y3402076D01*
X2430018Y3411220D01*
X2457704Y3438905D01*
X2457704Y3531362D02*
G01*
X2457704Y3402076D01*
X2592577Y3595878D02*
G01*
X2574290Y3595878D01*
X2555747Y3586734D01*
X2546350Y3559047D01*
X2546350Y3402076D01*
X2518663Y3531362D02*
G01*
X2583434Y3531362D01*
X2681224Y3595878D02*
G01*
X2681224Y3438905D01*
X2690622Y3411220D01*
X2708909Y3402076D01*
X2727452Y3402076D01*
X2653538Y3531362D02*
G01*
X2718308Y3531362D01*
X2899409Y3595878D02*
G01*
X2899409Y3402076D01*
X2899409Y3503676D02*
G01*
X2880868Y3521963D01*
X2862325Y3531362D01*
X2834640Y3531362D01*
X2816097Y3521963D01*
X2797809Y3503676D01*
X2788411Y3475989D01*
X2788411Y3457447D01*
X2797809Y3429762D01*
X2816097Y3411220D01*
X2834640Y3402076D01*
X2862325Y3402076D01*
X2880868Y3411220D01*
X2899409Y3429762D01*
X3071113Y3531362D02*
G01*
X3071113Y3402076D01*
X3071113Y3503676D02*
G01*
X3052572Y3521963D01*
X3034029Y3531362D01*
X3006343Y3531362D01*
X2988056Y3521963D01*
X2969513Y3503676D01*
X2960370Y3475989D01*
X2960370Y3457447D01*
X2969513Y3429762D01*
X2988056Y3411220D01*
X3006343Y3402076D01*
X3034029Y3402076D01*
X3052572Y3411220D01*
X3071113Y3429762D01*
X3159759Y3595878D02*
G01*
X3159759Y3438905D01*
X3168904Y3411220D01*
X3187445Y3402076D01*
X3205988Y3402076D01*
X3132074Y3531362D02*
G01*
X3196590Y3531362D01*
X3266947Y3475989D02*
G01*
X3377691Y3475989D01*
X3377691Y3494278D01*
X3368547Y3512820D01*
X3359150Y3521963D01*
X3340861Y3531362D01*
X3313175Y3531362D01*
X3294634Y3521963D01*
X3276091Y3503676D01*
X3266947Y3475989D01*
X3266947Y3457447D01*
X3276091Y3429762D01*
X3294634Y3411220D01*
X3313175Y3402076D01*
X3340861Y3402076D01*
X3359150Y3411220D01*
X3377691Y3429762D01*
X3438652Y3531362D02*
G01*
X3438652Y3402076D01*
X3438652Y3494278D02*
G01*
X3466338Y3521963D01*
X3484879Y3531362D01*
X3512565Y3531362D01*
X3531108Y3521963D01*
X3540252Y3494278D01*
X3540252Y3402076D01*
X3610609Y3448050D02*
G01*
X3601211Y3438905D01*
X3610609Y3429762D01*
X3619754Y3438905D01*
X3610609Y3448050D01*
X3791458Y3531362D02*
G01*
X3791458Y3402076D01*
X3791458Y3503676D02*
G01*
X3773170Y3521963D01*
X3754627Y3531362D01*
X3726941Y3531362D01*
X3708400Y3521963D01*
X3689858Y3503676D01*
X3680713Y3475989D01*
X3680713Y3457447D01*
X3689858Y3429762D01*
X3708400Y3411220D01*
X3726941Y3402076D01*
X3754627Y3402076D01*
X3773170Y3411220D01*
X3791458Y3429762D01*
X3880104Y3595878D02*
G01*
X3880104Y3438905D01*
X3889502Y3411220D01*
X3907790Y3402076D01*
X3926331Y3402076D01*
X3852418Y3531362D02*
G01*
X3917188Y3531362D01*
X4203445Y3595878D02*
G01*
X4129531Y3402076D01*
X4203445Y3595878D02*
G01*
X4277359Y3402076D01*
X4157218Y3466592D02*
G01*
X4249674Y3466592D01*
X4338320Y3595878D02*
G01*
X4347463Y3586734D01*
X4356861Y3595878D01*
X4347463Y3605276D01*
X4338320Y3595878D01*
X4347463Y3531362D02*
G01*
X4347463Y3402076D01*
X4417822Y3531362D02*
G01*
X4417822Y3402076D01*
X4417822Y3475989D02*
G01*
X4426965Y3503676D01*
X4445508Y3521963D01*
X4464050Y3531362D01*
X4491736Y3531362D01*
X4824222Y3568192D02*
G01*
X4805679Y3586734D01*
X4777993Y3595878D01*
X4740909Y3595878D01*
X4713224Y3586734D01*
X4694936Y3568192D01*
X4694936Y3549650D01*
X4704079Y3531362D01*
X4713224Y3521963D01*
X4731765Y3512820D01*
X4787138Y3494278D01*
X4805679Y3485134D01*
X4814824Y3475989D01*
X4824222Y3457447D01*
X4824222Y3429762D01*
X4805679Y3411220D01*
X4777993Y3402076D01*
X4740909Y3402076D01*
X4713224Y3411220D01*
X4694936Y3429762D01*
X4912868Y3595878D02*
G01*
X4912868Y3438905D01*
X4922011Y3411220D01*
X4940554Y3402076D01*
X4959095Y3402076D01*
X4885181Y3531362D02*
G01*
X4949697Y3531362D01*
X5130800Y3531362D02*
G01*
X5130800Y3402076D01*
X5130800Y3503676D02*
G01*
X5112258Y3521963D01*
X5093970Y3531362D01*
X5066029Y3531362D01*
X5047741Y3521963D01*
X5029200Y3503676D01*
X5020056Y3475989D01*
X5020056Y3457447D01*
X5029200Y3429762D01*
X5047741Y3411220D01*
X5066029Y3402076D01*
X5093970Y3402076D01*
X5112258Y3411220D01*
X5130800Y3429762D01*
X5219445Y3595878D02*
G01*
X5219445Y3438905D01*
X5228590Y3411220D01*
X5247131Y3402076D01*
X5265674Y3402076D01*
X5191759Y3531362D02*
G01*
X5256529Y3531362D01*
X5326634Y3595878D02*
G01*
X5335777Y3586734D01*
X5345175Y3595878D01*
X5335777Y3605276D01*
X5326634Y3595878D01*
X5335777Y3531362D02*
G01*
X5335777Y3402076D01*
X5452109Y3531362D02*
G01*
X5433822Y3521963D01*
X5415279Y3503676D01*
X5406136Y3475989D01*
X5406136Y3457447D01*
X5415279Y3429762D01*
X5433822Y3411220D01*
X5452109Y3402076D01*
X5480050Y3402076D01*
X5498338Y3411220D01*
X5516879Y3429762D01*
X5526024Y3457447D01*
X5526024Y3475989D01*
X5516879Y3503676D01*
X5498338Y3521963D01*
X5480050Y3531362D01*
X5452109Y3531362D01*
X5586984Y3531362D02*
G01*
X5586984Y3402076D01*
X5586984Y3494278D02*
G01*
X5614670Y3521963D01*
X5633211Y3531362D01*
X5660897Y3531362D01*
X5679440Y3521963D01*
X5688584Y3494278D01*
X5688584Y3402076D01*
X5891784Y3595878D02*
G01*
X5965697Y3402076D01*
X6039611Y3595878D02*
G01*
X5965697Y3402076D01*
X6119113Y3595878D02*
G01*
X6220713Y3595878D01*
X6165341Y3521963D01*
X6193027Y3521963D01*
X6211570Y3512820D01*
X6220713Y3503676D01*
X6229858Y3475989D01*
X6229858Y3457447D01*
X6220713Y3429762D01*
X6202172Y3411220D01*
X6174486Y3402076D01*
X6146800Y3402076D01*
X6119113Y3411220D01*
X6109970Y3420363D01*
X6100572Y3438905D01*
X6591300Y3487673D02*
G01*
X6591300Y3398520D01*
X6591300Y3449320D02*
G01*
X6597650Y3468623D01*
X6610350Y3481323D01*
X6623050Y3487673D01*
X6642100Y3487673D01*
X6684263Y3449320D02*
G01*
X6760463Y3449320D01*
X6760463Y3462273D01*
X6754113Y3474973D01*
X6747763Y3481323D01*
X6735063Y3487673D01*
X6716013Y3487673D01*
X6703313Y3481323D01*
X6690613Y3468623D01*
X6684263Y3449320D01*
X6684263Y3436620D01*
X6690613Y3417570D01*
X6703313Y3404870D01*
X6716013Y3398520D01*
X6735063Y3398520D01*
X6747763Y3404870D01*
X6760463Y3417570D01*
X6802627Y3487673D02*
G01*
X6840727Y3398520D01*
X6878827Y3487673D02*
G01*
X6840727Y3398520D01*
X7016495Y3500373D02*
G01*
X7010145Y3513073D01*
X6997191Y3525773D01*
X6984491Y3532123D01*
X6959091Y3532123D01*
X6946391Y3525773D01*
X6933691Y3513073D01*
X6927341Y3500373D01*
X6920991Y3481323D01*
X6920991Y3449320D01*
X6927341Y3430270D01*
X6933691Y3417570D01*
X6946391Y3404870D01*
X6959091Y3398520D01*
X6984491Y3398520D01*
X6997191Y3404870D01*
X7010145Y3417570D01*
X7016495Y3430270D01*
X3275075Y4940554D02*
G01*
X3376929Y4940554D01*
X3395979Y4933950D01*
X3402329Y4927600D01*
X3408679Y4914900D01*
X3408679Y4902200D01*
X3402329Y4889500D01*
X3395979Y4883150D01*
X3376929Y4876800D01*
X3364229Y4876800D01*
X3275075Y4982463D02*
G01*
X3408679Y4982463D01*
X3408679Y4982463D02*
G01*
X3408679Y5058918D01*
X3306825Y5196331D02*
G01*
X3294125Y5189981D01*
X3281425Y5177281D01*
X3275075Y5164328D01*
X3275075Y5138928D01*
X3281425Y5126228D01*
X3294125Y5113528D01*
X3306825Y5107178D01*
X3325875Y5100828D01*
X3357879Y5100828D01*
X3376929Y5107178D01*
X3389629Y5113528D01*
X3402329Y5126228D01*
X3408679Y5138928D01*
X3408679Y5164328D01*
X3402329Y5177281D01*
X3389629Y5189981D01*
X3376929Y5196331D01*
X3275075Y5301995D02*
G01*
X3376929Y5301995D01*
X3395979Y5295645D01*
X3402329Y5289042D01*
X3408679Y5276342D01*
X3408679Y5263642D01*
X3402329Y5250942D01*
X3395979Y5244592D01*
X3376929Y5238242D01*
X3364229Y5238242D01*
X3275075Y5343905D02*
G01*
X3408679Y5343905D01*
X3408679Y5343905D02*
G01*
X3408679Y5420360D01*
X3306825Y5557773D02*
G01*
X3294125Y5551423D01*
X3281425Y5538723D01*
X3275075Y5525770D01*
X3275075Y5500370D01*
X3281425Y5487670D01*
X3294125Y5474970D01*
X3306825Y5468620D01*
X3325875Y5462270D01*
X3357879Y5462270D01*
X3376929Y5468620D01*
X3389629Y5474970D01*
X3402329Y5487670D01*
X3408679Y5500370D01*
X3408679Y5525770D01*
X3402329Y5538723D01*
X3389629Y5551423D01*
X3376929Y5557773D01*
X3275075Y5663437D02*
G01*
X3376929Y5663437D01*
X3395979Y5657087D01*
X3402329Y5650737D01*
X3408679Y5637784D01*
X3408679Y5625084D01*
X3402329Y5612384D01*
X3395979Y5606034D01*
X3376929Y5599684D01*
X3364229Y5599684D01*
X3275075Y5705347D02*
G01*
X3408679Y5705347D01*
X3408679Y5705347D02*
G01*
X3408679Y5781802D01*
X3306825Y5919215D02*
G01*
X3294125Y5912865D01*
X3281425Y5900165D01*
X3275075Y5887465D01*
X3275075Y5861812D01*
X3281425Y5849112D01*
X3294125Y5836412D01*
X3306825Y5830062D01*
X3325875Y5823712D01*
X3357879Y5823712D01*
X3376929Y5830062D01*
X3389629Y5836412D01*
X3402329Y5849112D01*
X3408679Y5861812D01*
X3408679Y5887465D01*
X3402329Y5900165D01*
X3389629Y5912865D01*
X3376929Y5919215D01*
X3275075Y6024879D02*
G01*
X3376929Y6024879D01*
X3395979Y6018529D01*
X3402329Y6012179D01*
X3408679Y5999226D01*
X3408679Y5986526D01*
X3402329Y5973826D01*
X3395979Y5967476D01*
X3376929Y5961126D01*
X3364229Y5961126D01*
X3275075Y6066789D02*
G01*
X3408679Y6066789D01*
X3408679Y6066789D02*
G01*
X3408679Y6143244D01*
X3306825Y6280657D02*
G01*
X3294125Y6274307D01*
X3281425Y6261607D01*
X3275075Y6248907D01*
X3275075Y6223254D01*
X3281425Y6210554D01*
X3294125Y6197854D01*
X3306825Y6191504D01*
X3325875Y6185154D01*
X3357879Y6185154D01*
X3376929Y6191504D01*
X3389629Y6197854D01*
X3402329Y6210554D01*
X3408679Y6223254D01*
X3408679Y6248907D01*
X3402329Y6261607D01*
X3389629Y6274307D01*
X3376929Y6280657D01*
D11*
X7213600Y4446015D02*
G01*
X7213600Y4337050D01*
X7213600Y4446015D02*
G01*
X7260336Y4446015D01*
X7275829Y4440936D01*
X7281163Y4435602D01*
X7286243Y4425187D01*
X7286243Y4414773D01*
X7281163Y4404360D01*
X7275829Y4399279D01*
X7260336Y4394200D01*
X7213600Y4394200D01*
X7249922Y4394200D02*
G01*
X7286243Y4337050D01*
X7325868Y4420107D02*
G01*
X7325868Y4425187D01*
X7330947Y4435602D01*
X7336281Y4440936D01*
X7346695Y4446015D01*
X7367270Y4446015D01*
X7377684Y4440936D01*
X7383018Y4435602D01*
X7388097Y4425187D01*
X7388097Y4414773D01*
X7383018Y4404360D01*
X7372604Y4388865D01*
X7320534Y4337050D01*
X7393431Y4337050D01*
X7213600Y4649215D02*
G01*
X7213600Y4540250D01*
X7213600Y4649215D02*
G01*
X7260336Y4649215D01*
X7275829Y4644136D01*
X7281163Y4638802D01*
X7286243Y4628387D01*
X7286243Y4617973D01*
X7281163Y4607560D01*
X7275829Y4602479D01*
X7260336Y4597400D01*
X7213600Y4597400D01*
X7249922Y4597400D02*
G01*
X7286243Y4540250D01*
X7330947Y4649215D02*
G01*
X7388097Y4649215D01*
X7357109Y4607560D01*
X7372604Y4607560D01*
X7383018Y4602479D01*
X7388097Y4597400D01*
X7393431Y4581652D01*
X7393431Y4571237D01*
X7388097Y4555744D01*
X7377684Y4545329D01*
X7362190Y4540250D01*
X7346695Y4540250D01*
X7330947Y4545329D01*
X7325868Y4550410D01*
X7320534Y4560823D01*
X6973315Y6921500D02*
G01*
X6864350Y6921500D01*
X6973315Y6921500D02*
G01*
X6973315Y6874763D01*
X6968236Y6859270D01*
X6962902Y6853936D01*
X6952488Y6848855D01*
X6942074Y6848855D01*
X6931659Y6853936D01*
X6926579Y6859270D01*
X6921500Y6874763D01*
X6921500Y6921500D01*
X6921500Y6885178D02*
G01*
X6864350Y6848855D01*
X6952488Y6814565D02*
G01*
X6957822Y6804152D01*
X6973315Y6788404D01*
X6864350Y6788404D01*
X7050519Y9272003D02*
G01*
X6941553Y9272003D01*
X7050519Y9272003D02*
G01*
X7050519Y9225267D01*
X7045439Y9209773D01*
X7040105Y9204439D01*
X7029691Y9199359D01*
X7019277Y9199359D01*
X7008863Y9204439D01*
X7003783Y9209773D01*
X6998703Y9225267D01*
X6998703Y9272003D01*
X6998703Y9235681D02*
G01*
X6941553Y9199359D01*
X7050519Y9165069D02*
G01*
X6941553Y9165069D01*
X7050519Y9165069D02*
G01*
X7050519Y9097505D01*
X6998703Y9165069D02*
G01*
X6998703Y9123413D01*
X7029691Y9063215D02*
G01*
X7035025Y9052801D01*
X7050519Y9037053D01*
X6941553Y9037053D01*
X6770115Y4037329D02*
G01*
X6687058Y4037329D01*
X6671309Y4042663D01*
X6666229Y4047744D01*
X6661150Y4058157D01*
X6661150Y4068571D01*
X6666229Y4078986D01*
X6671309Y4084320D01*
X6687058Y4089400D01*
X6697472Y4089400D01*
X6749288Y4003039D02*
G01*
X6754622Y3992879D01*
X6770115Y3977131D01*
X6661150Y3977131D01*
X3060700Y9640315D02*
G01*
X3060700Y9562337D01*
X3065779Y9546844D01*
X3076193Y9536429D01*
X3091941Y9531350D01*
X3102356Y9531350D01*
X3117850Y9536429D01*
X3128263Y9546844D01*
X3133343Y9562337D01*
X3133343Y9640315D01*
X3167634Y9619487D02*
G01*
X3178047Y9624821D01*
X3193795Y9640315D01*
X3193795Y9531350D01*
X6833615Y6540500D02*
G01*
X6755638Y6540500D01*
X6740143Y6535420D01*
X6729729Y6525005D01*
X6724650Y6509257D01*
X6724650Y6498844D01*
X6729729Y6483350D01*
X6740143Y6472936D01*
X6755638Y6467855D01*
X6833615Y6467855D01*
X6807708Y6428231D02*
G01*
X6812788Y6428231D01*
X6823202Y6423152D01*
X6828536Y6417818D01*
X6833615Y6407404D01*
X6833615Y6386829D01*
X6828536Y6376415D01*
X6823202Y6371081D01*
X6812788Y6366002D01*
X6802374Y6366002D01*
X6791959Y6371081D01*
X6776465Y6381495D01*
X6724650Y6433565D01*
X6724650Y6360668D01*
G36*
X7653528Y8450021D02*
G01*
X7642047Y8337092D01*
X7616545Y8329625D01*
X7591958Y8319516D01*
X7568692Y8306663D01*
X7480706Y8378393D01*
X7420406Y8318093D01*
X7492136Y8230108D01*
X7479334Y8206841D01*
X7469124Y8182254D01*
X7461758Y8156702D01*
X7348829Y8145272D01*
X7348829Y8059928D01*
X7461758Y8048498D01*
X7469124Y8022945D01*
X7479334Y7998358D01*
X7492136Y7975092D01*
X7420406Y7887106D01*
X7480706Y7826806D01*
X7568692Y7898536D01*
X7586014Y7888681D01*
X7604099Y7880299D01*
X7654340Y8001558D01*
X7642758Y8007146D01*
X7631938Y8014106D01*
X7621981Y8022285D01*
X7613040Y8031581D01*
X7605217Y8041843D01*
X7598714Y8052968D01*
X7593584Y8064753D01*
X7589875Y8077047D01*
X7587589Y8089747D01*
X7586827Y8102600D01*
X7587640Y8116062D01*
X7590129Y8129320D01*
X7594244Y8142173D01*
X7599883Y8154466D01*
X7606995Y8165896D01*
X7615428Y8176412D01*
X7625181Y8185759D01*
X7635951Y8193887D01*
X7647635Y8200593D01*
X7660081Y8205876D01*
X7673035Y8209483D01*
X7686395Y8211566D01*
X7699908Y8211921D01*
X7713268Y8210651D01*
X7726476Y8207705D01*
X7739176Y8203184D01*
X7751267Y8197138D01*
X7762443Y8189620D01*
X7772653Y8180831D01*
X7781747Y8170773D01*
X7789468Y8159750D01*
X7795818Y8147812D01*
X7800594Y8135213D01*
X7803845Y8122107D01*
X7805420Y8108746D01*
X7805318Y8095234D01*
X7803591Y8081873D01*
X7800238Y8068767D01*
X7795259Y8056270D01*
X7788808Y8044383D01*
X7780934Y8033461D01*
X7771790Y8023555D01*
X7761478Y8014868D01*
X7750200Y8007502D01*
X7738059Y8001558D01*
X7788300Y7880299D01*
X7806385Y7888681D01*
X7823708Y7898536D01*
X7911693Y7826806D01*
X7971993Y7887106D01*
X7900263Y7975092D01*
X7913065Y7998358D01*
X7923275Y8022945D01*
X7930642Y8048498D01*
X8043570Y8059928D01*
X8043570Y8145272D01*
X7930642Y8156702D01*
X7923275Y8182254D01*
X7913065Y8206841D01*
X7900263Y8230108D01*
X7971993Y8318093D01*
X7911693Y8378393D01*
X7823708Y8306663D01*
X7800441Y8319516D01*
X7775854Y8329625D01*
X7750352Y8337092D01*
X7738872Y8450021D01*
G37*
G36*
X5003800Y6297015D02*
G01*
X4999329Y6296710D01*
X4994859Y6295898D01*
X4990592Y6294526D01*
X4986528Y6292596D01*
X4982667Y6290157D01*
X4979212Y6287262D01*
X4976114Y6284010D01*
X4973472Y6280353D01*
X4971288Y6276390D01*
X4969611Y6272174D01*
X4968494Y6267805D01*
X4967935Y6263335D01*
X4967935Y6258864D01*
X4968494Y6254394D01*
X4969611Y6250025D01*
X4971288Y6245809D01*
X4973472Y6241846D01*
X4976114Y6238240D01*
X4979212Y6234938D01*
X4982667Y6232042D01*
X4986528Y6229604D01*
X4990592Y6227673D01*
X4994859Y6226302D01*
X4999329Y6225489D01*
X5003800Y6225184D01*
X5008270Y6225489D01*
X5012740Y6226302D01*
X5017008Y6227673D01*
X5021072Y6229604D01*
X5024932Y6232042D01*
X5028387Y6234938D01*
X5031486Y6238240D01*
X5034127Y6241846D01*
X5036312Y6245809D01*
X5037988Y6250025D01*
X5039106Y6254394D01*
X5039664Y6258864D01*
X5039664Y6263335D01*
X5039106Y6267805D01*
X5037988Y6272174D01*
X5036312Y6276390D01*
X5034127Y6280353D01*
X5031486Y6284010D01*
X5028387Y6287262D01*
X5024932Y6290157D01*
X5021072Y6292596D01*
X5017008Y6294526D01*
X5012740Y6295898D01*
X5008270Y6296710D01*
G37*
X7040321Y4315439D02*
G01*
X7136208Y4315439D01*
X7136208Y4447560D01*
X7040321Y4447560D01*
X6955078Y4315439D02*
G01*
X6859191Y4315439D01*
X6859191Y4447560D01*
X6955078Y4447560D01*
X7040321Y4518639D02*
G01*
X7136208Y4518639D01*
X7136208Y4650760D01*
X7040321Y4650760D01*
X6955078Y4518639D02*
G01*
X6859191Y4518639D01*
X6859191Y4650760D01*
X6955078Y4650760D01*
X6974860Y7167321D02*
G01*
X6974860Y7263208D01*
X6842739Y7263208D01*
X6842739Y7167321D01*
X6974860Y7082078D02*
G01*
X6974860Y6986191D01*
X6842739Y6986191D01*
X6842739Y7082078D01*
D12*
X7823708Y7898536D02*
G01*
X7911668Y7826806D01*
X7971993Y7887131D01*
X7900263Y7975092D01*
X7930667Y8048472D02*
G01*
X8043595Y8059953D01*
X8043595Y8145246D01*
X7930667Y8156727D01*
X7900263Y8230108D02*
G01*
X7971993Y8318068D01*
X7911668Y8378393D01*
X7823708Y8306663D01*
X7750327Y8337067D02*
G01*
X7738846Y8449995D01*
X7653553Y8449995D01*
X7642072Y8337067D01*
X7568691Y8306663D02*
G01*
X7480731Y8378393D01*
X7420406Y8318068D01*
X7492136Y8230108D01*
X7461732Y8156727D02*
G01*
X7348804Y8145246D01*
X7348804Y8059953D01*
X7461732Y8048472D01*
X7492136Y7975092D02*
G01*
X7420406Y7887131D01*
X7480731Y7826806D01*
X7568691Y7898536D01*
X7604099Y7880299D02*
G01*
X7654340Y8001558D01*
X7738059Y8001558D02*
G01*
X7788300Y7880299D01*
D13*
X6511869Y10030203D02*
G01*
X6235702Y10030203D01*
X6235702Y9265688D01*
X6511869Y10030203D02*
G01*
X6794502Y10030203D01*
X6794502Y9265688D01*
X6858002Y8728750D02*
G01*
X6858002Y8991602D01*
X6368717Y8509002D02*
G01*
X6661487Y8509002D01*
X6172202Y9000454D02*
G01*
X6172202Y8728750D01*
X6661487Y9220202D02*
G01*
X6368717Y9220202D01*
X6785102Y9921486D02*
G01*
X6245103Y9921486D01*
X6245103Y9856170D02*
G01*
X6785102Y9920516D01*
X6785102Y9856170D02*
G01*
X6245103Y9856170D01*
X6245103Y9789043D02*
G01*
X6785102Y9853388D01*
X6785102Y9789043D02*
G01*
X6245103Y9789043D01*
X6245103Y9723729D02*
G01*
X6785102Y9788075D01*
X6785102Y9723729D02*
G01*
X6245103Y9723729D01*
X6245103Y9660229D02*
G01*
X6785102Y9724575D01*
X6785102Y9660229D02*
G01*
X6245103Y9660229D01*
X6245103Y9594913D02*
G01*
X6785102Y9659259D01*
X6785102Y9594913D02*
G01*
X6245103Y9594913D01*
X6245103Y9531413D02*
G01*
X6785102Y9595759D01*
X6785102Y9531413D02*
G01*
X6245103Y9531413D01*
X6785102Y9460656D02*
G01*
X6245103Y9460656D01*
X6245103Y9460656D02*
G01*
X6785102Y9525002D01*
X6007100Y4079100D02*
G01*
X6052101Y4078630D01*
X6007100Y4804105D02*
G01*
X5782106Y4804105D01*
X5782106Y4079112D01*
X6007100Y4079112D01*
X6007100Y4104106D01*
X6007100Y4804100D02*
G01*
X6052101Y4804100D01*
X6007100Y4804100D02*
G01*
X6007100Y4104098D01*
X5932098Y4754097D02*
G01*
X5932098Y4704097D01*
X5782099Y4704097D01*
X5932098Y4754097D02*
G01*
X5782099Y4754097D01*
X6003985Y4979101D02*
G01*
X5732099Y4979101D01*
X5732099Y3904099D01*
X6003985Y3904099D01*
X6332100Y3904099D02*
G01*
X6457099Y3904099D01*
X6457099Y4054099D01*
X6332100Y4979101D02*
G01*
X6457099Y4979101D01*
X6457099Y4829098D01*
X6052101Y4834097D02*
G01*
X6052101Y4049100D01*
X2036089Y9331807D02*
G01*
X4136085Y9331807D01*
X4136085Y4231817D01*
X2036089Y4231817D01*
X2036089Y9331807D01*
X2686100Y9461804D02*
G01*
X3486099Y9461804D01*
X3486099Y8861805D01*
X2686100Y8861805D01*
X2686100Y9461804D01*
D14*
X5029301Y6324701D02*
G01*
X5029301Y7924698D01*
X6629298Y6324701D02*
G01*
X6629298Y7924698D01*
D12*
G75*
G01*
X7788300Y7880299D02*
G03*
X7823708Y7898536I-92094J222292D01*
G75*
G01*
X7900264Y7975092D02*
G03*
X7930667Y8048473I-204039J127528D01*
G75*
G01*
X7930667Y8156727D02*
G03*
X7900264Y8230108I-234442J-54147D01*
G75*
G01*
X7823708Y8306664D02*
G03*
X7750327Y8337067I-127528J-204039D01*
G75*
G01*
X7642073Y8337067D02*
G03*
X7568692Y8306664I54147J-234442D01*
G75*
G01*
X7492136Y8230108D02*
G03*
X7461733Y8156727I204039J-127528D01*
G75*
G01*
X7461733Y8048473D02*
G03*
X7492136Y7975092I234442J54147D01*
G75*
G01*
X7568692Y7898536D02*
G03*
X7604100Y7880299I127502J204055D01*
G75*
G01*
X7654341Y8001559D02*
G02*
X7586828Y8102600I41859J101045D01*
G75*
G01*
X7586828Y8102600D02*
G02*
X7738059Y8001559I109372J4D01*
D14*
G75*
G01*
X5229301Y6774713D02*
G03*
X5229835Y6774688I-2111J-49942D01*
D15*
G75*
G01
X6557493Y5054092D02*
G03X6557493Y5054092I-25400J0D01*
D13*
G75*
G01
X2621102Y9131808D02*
G03X2621102Y9131808I-105004J0D01*
G75*
G01
X3761105Y9131808D02*
G03X3761105Y9131808I-105004J0D01*
G75*
G01
X2621102Y4431792D02*
G03X2621102Y4431792I-105004J0D01*
G75*
G01
X3761105Y4431792D02*
G03X3761105Y4431792I-105004J0D01*
M02*
