G04 Layer: BottomLayer*
G04 EasyEDA v6.5.23, 2023-05-23 22:52:14*
G04 b64d56a2c64b479e9c3a0f4ea2cfd69e,619bf967d5dd4da89e17e2f86567f5d7,10*
G04 Gerber Generator version 0.2*
G04 Scale: 100 percent, Rotated: No, Reflected: No *
G04 Dimensions in millimeters *
G04 leading zeros omitted , absolute positions ,4 integer and 5 decimal *
%FSLAX45Y45*%
%MOMM*%

%ADD10C,1.0000*%
%ADD11C,0.4000*%
%ADD12C,2.2000*%
%ADD13C,2.5000*%
%ADD14C,0.6096*%
%ADD15C,0.0106*%

%LPD*%
G36*
X736092Y3125978D02*
G01*
X732180Y3126740D01*
X728929Y3128975D01*
X726694Y3132226D01*
X725932Y3136138D01*
X725932Y9363964D01*
X726694Y9367875D01*
X728929Y9371126D01*
X732180Y9373362D01*
X736092Y9374124D01*
X8263890Y9374124D01*
X8267801Y9373362D01*
X8271052Y9371126D01*
X8273288Y9367875D01*
X8274050Y9363964D01*
X8274050Y3136138D01*
X8273288Y3132226D01*
X8271052Y3128975D01*
X8267801Y3126740D01*
X8263890Y3125978D01*
G37*

%LPC*%
G36*
X7874000Y3301492D02*
G01*
X7889392Y3302457D01*
X7904530Y3305200D01*
X7919212Y3309772D01*
X7933232Y3316122D01*
X7946440Y3324098D01*
X7958531Y3333597D01*
X7969402Y3344468D01*
X7978902Y3356559D01*
X7986877Y3369767D01*
X7993227Y3383787D01*
X7997799Y3398469D01*
X8000542Y3413607D01*
X8001508Y3429000D01*
X8000542Y3444392D01*
X7997799Y3459530D01*
X7993227Y3474212D01*
X7986877Y3488232D01*
X7978902Y3501440D01*
X7969402Y3513531D01*
X7958531Y3524402D01*
X7946440Y3533901D01*
X7933232Y3541877D01*
X7919212Y3548227D01*
X7904530Y3552799D01*
X7889392Y3555542D01*
X7874000Y3556508D01*
X7858607Y3555542D01*
X7843469Y3552799D01*
X7828788Y3548227D01*
X7814767Y3541877D01*
X7801559Y3533901D01*
X7789468Y3524402D01*
X7778597Y3513531D01*
X7769098Y3501440D01*
X7761122Y3488232D01*
X7754772Y3474212D01*
X7750200Y3459530D01*
X7747457Y3444392D01*
X7746492Y3429000D01*
X7747457Y3413607D01*
X7750200Y3398469D01*
X7754772Y3383787D01*
X7761122Y3369767D01*
X7769098Y3356559D01*
X7778597Y3344468D01*
X7789468Y3333597D01*
X7801559Y3324098D01*
X7814767Y3316122D01*
X7828788Y3309772D01*
X7843469Y3305200D01*
X7858607Y3302457D01*
G37*
G36*
X1143000Y3301492D02*
G01*
X1158392Y3302457D01*
X1173530Y3305200D01*
X1188212Y3309772D01*
X1202232Y3316122D01*
X1215440Y3324098D01*
X1227531Y3333597D01*
X1238402Y3344468D01*
X1247902Y3356559D01*
X1255877Y3369767D01*
X1262227Y3383787D01*
X1266799Y3398469D01*
X1269542Y3413607D01*
X1270508Y3429000D01*
X1269542Y3444392D01*
X1266799Y3459530D01*
X1262227Y3474212D01*
X1255877Y3488232D01*
X1247902Y3501440D01*
X1238402Y3513531D01*
X1227531Y3524402D01*
X1215440Y3533901D01*
X1202232Y3541877D01*
X1188212Y3548227D01*
X1173530Y3552799D01*
X1158392Y3555542D01*
X1143000Y3556508D01*
X1127607Y3555542D01*
X1112469Y3552799D01*
X1097788Y3548227D01*
X1083767Y3541877D01*
X1070559Y3533901D01*
X1058468Y3524402D01*
X1047597Y3513531D01*
X1038098Y3501440D01*
X1030122Y3488232D01*
X1023772Y3474212D01*
X1019200Y3459530D01*
X1016457Y3444392D01*
X1015492Y3429000D01*
X1016457Y3413607D01*
X1019200Y3398469D01*
X1023772Y3383787D01*
X1030122Y3369767D01*
X1038098Y3356559D01*
X1047597Y3344468D01*
X1058468Y3333597D01*
X1070559Y3324098D01*
X1083767Y3316122D01*
X1097788Y3309772D01*
X1112469Y3305200D01*
X1127607Y3302457D01*
G37*
G36*
X4064000Y3575862D02*
G01*
X4073804Y3576726D01*
X4083253Y3579266D01*
X4092194Y3583381D01*
X4100220Y3589020D01*
X4107179Y3595979D01*
X4112818Y3604006D01*
X4116933Y3612946D01*
X4118914Y3620262D01*
X4119930Y3622700D01*
X4121556Y3624834D01*
X4807204Y4310481D01*
X4810912Y4312818D01*
X4815281Y4313377D01*
X4826000Y4312462D01*
X4835804Y4313326D01*
X4845253Y4315866D01*
X4854194Y4319981D01*
X4862220Y4325620D01*
X4869180Y4332579D01*
X4874818Y4340606D01*
X4878933Y4349546D01*
X4881473Y4358995D01*
X4882337Y4368800D01*
X4881473Y4378604D01*
X4878933Y4388053D01*
X4874818Y4396994D01*
X4869180Y4405020D01*
X4862220Y4411980D01*
X4854194Y4417618D01*
X4845253Y4421733D01*
X4835804Y4424273D01*
X4830775Y4424730D01*
X4827066Y4425797D01*
X4824069Y4428083D01*
X4822088Y4431385D01*
X4821478Y4435144D01*
X4822342Y4438853D01*
X4824476Y4442053D01*
X4833366Y4450943D01*
X4835499Y4452569D01*
X4837938Y4453585D01*
X4845253Y4455566D01*
X4854194Y4459681D01*
X4862220Y4465320D01*
X4869180Y4472279D01*
X4874818Y4480306D01*
X4878933Y4489246D01*
X4881473Y4498695D01*
X4882337Y4508500D01*
X4881473Y4518304D01*
X4878933Y4527753D01*
X4874818Y4536694D01*
X4869180Y4544720D01*
X4862220Y4551680D01*
X4854194Y4557318D01*
X4845253Y4561433D01*
X4835804Y4563973D01*
X4826000Y4564837D01*
X4816195Y4563973D01*
X4806746Y4561433D01*
X4797806Y4557318D01*
X4789779Y4551680D01*
X4782820Y4544720D01*
X4777181Y4536694D01*
X4773066Y4527753D01*
X4771085Y4520438D01*
X4770069Y4517999D01*
X4768443Y4515866D01*
X4056634Y3804056D01*
X4054500Y3802430D01*
X4052062Y3801414D01*
X4044746Y3799433D01*
X4035806Y3795318D01*
X4027779Y3789679D01*
X4020820Y3782720D01*
X4015181Y3774694D01*
X4011066Y3765753D01*
X4008526Y3756304D01*
X4007662Y3746500D01*
X4008526Y3736695D01*
X4011066Y3727246D01*
X4015181Y3718306D01*
X4020820Y3710279D01*
X4027779Y3703320D01*
X4035856Y3697681D01*
X4038549Y3694887D01*
X4040022Y3691280D01*
X4040022Y3687419D01*
X4038549Y3683812D01*
X4035856Y3681018D01*
X4027779Y3675379D01*
X4020820Y3668420D01*
X4015181Y3660394D01*
X4011066Y3651453D01*
X4008526Y3642004D01*
X4007662Y3632200D01*
X4008526Y3622395D01*
X4011066Y3612946D01*
X4015181Y3604006D01*
X4020820Y3595979D01*
X4027779Y3589020D01*
X4035806Y3583381D01*
X4044746Y3579266D01*
X4054195Y3576726D01*
G37*
G36*
X5442610Y4051808D02*
G01*
X5453989Y4051808D01*
X5465165Y4053535D01*
X5476036Y4056887D01*
X5486247Y4061764D01*
X5495594Y4068165D01*
X5503926Y4075887D01*
X5510987Y4084777D01*
X5516676Y4094581D01*
X5520791Y4105148D01*
X5523331Y4116171D01*
X5524195Y4127855D01*
X5524144Y4269841D01*
X5523331Y4278680D01*
X5522925Y4281119D01*
X5520791Y4289755D01*
X5520029Y4292092D01*
X5516626Y4300321D01*
X5515508Y4302506D01*
X5510885Y4310126D01*
X5503824Y4318965D01*
X5017465Y4805324D01*
X5008626Y4812385D01*
X5001006Y4817008D01*
X4998821Y4818126D01*
X4990592Y4821529D01*
X4988255Y4822291D01*
X4979619Y4824425D01*
X4977180Y4824831D01*
X4968341Y4825644D01*
X3934561Y4825695D01*
X3930650Y4826457D01*
X3927348Y4828692D01*
X3775049Y4980990D01*
X3766159Y4988661D01*
X3756558Y4994706D01*
X3746144Y4999228D01*
X3735222Y5002174D01*
X3723944Y5003444D01*
X3712616Y5002987D01*
X3701440Y5000904D01*
X3690772Y4997145D01*
X3680714Y4991862D01*
X3671620Y4985105D01*
X3663594Y4977079D01*
X3656837Y4967986D01*
X3651554Y4957927D01*
X3647795Y4947259D01*
X3645712Y4936083D01*
X3645255Y4924755D01*
X3646525Y4913477D01*
X3649472Y4902555D01*
X3653993Y4892141D01*
X3660038Y4882540D01*
X3667709Y4873650D01*
X3847134Y4694275D01*
X3855974Y4687214D01*
X3863594Y4682591D01*
X3865778Y4681474D01*
X3874008Y4678070D01*
X3876344Y4677308D01*
X3884980Y4675174D01*
X3887419Y4674768D01*
X3896258Y4673955D01*
X4930038Y4673904D01*
X4933950Y4673142D01*
X4937252Y4670907D01*
X5369407Y4238752D01*
X5371642Y4235450D01*
X5372404Y4231538D01*
X5372404Y4127855D01*
X5373268Y4116171D01*
X5375808Y4105148D01*
X5379923Y4094581D01*
X5385612Y4084777D01*
X5392674Y4075887D01*
X5401005Y4068165D01*
X5410352Y4061764D01*
X5420563Y4056887D01*
X5431434Y4053535D01*
G37*
G36*
X2514600Y4769662D02*
G01*
X2524404Y4770526D01*
X2533853Y4773066D01*
X2542794Y4777181D01*
X2550820Y4782820D01*
X2557780Y4789779D01*
X2563418Y4797806D01*
X2567533Y4806746D01*
X2569514Y4814062D01*
X2570530Y4816500D01*
X2572156Y4818634D01*
X2949752Y5196230D01*
X2953054Y5198414D01*
X2956915Y5199176D01*
X5031790Y5199176D01*
X5034838Y5198719D01*
X5039106Y5196281D01*
X5048046Y5192166D01*
X5057495Y5189626D01*
X5067300Y5188762D01*
X5077104Y5189626D01*
X5086553Y5192166D01*
X5095494Y5196281D01*
X5103520Y5201920D01*
X5110480Y5208879D01*
X5116118Y5216906D01*
X5120233Y5225846D01*
X5122773Y5235295D01*
X5123637Y5245100D01*
X5122773Y5254904D01*
X5120233Y5264353D01*
X5116118Y5273294D01*
X5110480Y5281320D01*
X5103520Y5288280D01*
X5095494Y5293918D01*
X5086553Y5298033D01*
X5077104Y5300573D01*
X5067300Y5301437D01*
X5057495Y5300573D01*
X5048046Y5298033D01*
X5039106Y5293918D01*
X5034838Y5291480D01*
X5031790Y5291023D01*
X2931922Y5290972D01*
X2923184Y5289753D01*
X2915158Y5287060D01*
X2907792Y5282946D01*
X2900883Y5277205D01*
X2507234Y4883556D01*
X2505100Y4881930D01*
X2502662Y4880914D01*
X2495346Y4878933D01*
X2486406Y4874818D01*
X2478379Y4869180D01*
X2471420Y4862220D01*
X2465781Y4854194D01*
X2461666Y4845253D01*
X2459126Y4835804D01*
X2458262Y4826000D01*
X2459126Y4816195D01*
X2461666Y4806746D01*
X2465781Y4797806D01*
X2471420Y4789779D01*
X2478379Y4782820D01*
X2486406Y4777181D01*
X2495346Y4773066D01*
X2504795Y4770526D01*
G37*
G36*
X3594557Y5427776D02*
G01*
X5831078Y5427827D01*
X5839815Y5429046D01*
X5847842Y5431739D01*
X5855208Y5435854D01*
X5862116Y5441594D01*
X6163818Y5743295D01*
X6170320Y5748020D01*
X6177280Y5754979D01*
X6182918Y5763006D01*
X6187033Y5771946D01*
X6189573Y5781395D01*
X6190437Y5791200D01*
X6189573Y5801004D01*
X6187033Y5810453D01*
X6182918Y5819394D01*
X6177280Y5827420D01*
X6170320Y5834380D01*
X6162294Y5840018D01*
X6153353Y5844133D01*
X6143904Y5846673D01*
X6134100Y5847537D01*
X6124295Y5846673D01*
X6114846Y5844133D01*
X6105906Y5840018D01*
X6097879Y5834380D01*
X6090920Y5827420D01*
X6085281Y5819394D01*
X6081166Y5810453D01*
X6078626Y5801004D01*
X6077661Y5790387D01*
X6076746Y5786932D01*
X6074765Y5784088D01*
X5813247Y5522569D01*
X5809945Y5520385D01*
X5806084Y5519623D01*
X3617315Y5519623D01*
X3613454Y5520385D01*
X3610152Y5522569D01*
X2483256Y6649466D01*
X2481630Y6651599D01*
X2480614Y6654038D01*
X2478633Y6661353D01*
X2474518Y6670294D01*
X2468880Y6678320D01*
X2461920Y6685280D01*
X2453894Y6690918D01*
X2444953Y6695033D01*
X2435504Y6697573D01*
X2425700Y6698437D01*
X2415895Y6697573D01*
X2406446Y6695033D01*
X2397506Y6690918D01*
X2389479Y6685280D01*
X2382520Y6678320D01*
X2376881Y6670294D01*
X2372766Y6661353D01*
X2370226Y6651904D01*
X2369362Y6642100D01*
X2370226Y6632295D01*
X2372766Y6622846D01*
X2376881Y6613906D01*
X2382520Y6605879D01*
X2389479Y6598920D01*
X2397506Y6593281D01*
X2406446Y6589166D01*
X2413762Y6587185D01*
X2416200Y6586169D01*
X2418334Y6584543D01*
X3562908Y5440019D01*
X3569970Y5434685D01*
X3577539Y5430926D01*
X3585667Y5428640D01*
G37*
G36*
X5130800Y5747562D02*
G01*
X5140604Y5748426D01*
X5150053Y5750966D01*
X5158994Y5755081D01*
X5167020Y5760720D01*
X5173980Y5767679D01*
X5179618Y5775706D01*
X5183733Y5784646D01*
X5186273Y5794095D01*
X5187137Y5803900D01*
X5186273Y5813704D01*
X5183733Y5823153D01*
X5179415Y5832449D01*
X5178501Y5836361D01*
X5179161Y5840374D01*
X5181346Y5843778D01*
X5184648Y5846064D01*
X5188661Y5846876D01*
X5336590Y5846876D01*
X5339638Y5846419D01*
X5343906Y5843981D01*
X5352846Y5839866D01*
X5362295Y5837326D01*
X5372100Y5836462D01*
X5381904Y5837326D01*
X5391353Y5839866D01*
X5400294Y5843981D01*
X5408320Y5849620D01*
X5415280Y5856579D01*
X5420918Y5864606D01*
X5425033Y5873546D01*
X5427573Y5882995D01*
X5428437Y5892800D01*
X5427573Y5902604D01*
X5425033Y5912053D01*
X5420715Y5921349D01*
X5419801Y5925261D01*
X5420461Y5929274D01*
X5422646Y5932678D01*
X5425948Y5934964D01*
X5429961Y5935776D01*
X5590590Y5935776D01*
X5593638Y5935319D01*
X5597906Y5932881D01*
X5606846Y5928766D01*
X5616295Y5926226D01*
X5626100Y5925362D01*
X5635904Y5926226D01*
X5645353Y5928766D01*
X5654294Y5932881D01*
X5662320Y5938520D01*
X5669280Y5945479D01*
X5674918Y5953506D01*
X5679033Y5962446D01*
X5681573Y5971895D01*
X5682437Y5981700D01*
X5681573Y5991504D01*
X5679033Y6000953D01*
X5674715Y6010249D01*
X5673801Y6014161D01*
X5674461Y6018174D01*
X5676646Y6021578D01*
X5679948Y6023864D01*
X5683961Y6024676D01*
X5882690Y6024676D01*
X5885738Y6024219D01*
X5890006Y6021781D01*
X5898946Y6017666D01*
X5908395Y6015126D01*
X5918200Y6014262D01*
X5928004Y6015126D01*
X5937453Y6017666D01*
X5946394Y6021781D01*
X5954420Y6027420D01*
X5961380Y6034379D01*
X5967018Y6042406D01*
X5971133Y6051346D01*
X5973673Y6060795D01*
X5974537Y6070600D01*
X5973673Y6080404D01*
X5971133Y6089853D01*
X5967018Y6098794D01*
X5961380Y6106820D01*
X5954420Y6113780D01*
X5946394Y6119418D01*
X5937453Y6123533D01*
X5928004Y6126073D01*
X5918200Y6126937D01*
X5908395Y6126073D01*
X5898946Y6123533D01*
X5890006Y6119418D01*
X5885738Y6116980D01*
X5882690Y6116523D01*
X4480915Y6116523D01*
X4477054Y6117285D01*
X4473752Y6119469D01*
X3562756Y7030466D01*
X3561130Y7032599D01*
X3560114Y7035038D01*
X3558133Y7042353D01*
X3554018Y7051294D01*
X3548379Y7059320D01*
X3541420Y7066280D01*
X3533394Y7071918D01*
X3524453Y7076033D01*
X3515004Y7078573D01*
X3505200Y7079437D01*
X3495395Y7078573D01*
X3485946Y7076033D01*
X3477006Y7071918D01*
X3468979Y7066280D01*
X3462020Y7059320D01*
X3456381Y7051294D01*
X3452266Y7042353D01*
X3449726Y7032904D01*
X3448862Y7023100D01*
X3449726Y7013295D01*
X3452266Y7003846D01*
X3456381Y6994906D01*
X3462020Y6986879D01*
X3468979Y6979920D01*
X3477006Y6974281D01*
X3485946Y6970166D01*
X3493262Y6968185D01*
X3495700Y6967169D01*
X3497834Y6965543D01*
X4418431Y6044946D01*
X4420616Y6041644D01*
X4421378Y6037783D01*
X4420616Y6033871D01*
X4418431Y6030569D01*
X4415129Y6028385D01*
X4411218Y6027623D01*
X4290415Y6027623D01*
X4286554Y6028385D01*
X4283252Y6030569D01*
X3173069Y7140752D01*
X3170885Y7144054D01*
X3170123Y7147915D01*
X3170072Y8015478D01*
X3168853Y8024215D01*
X3166160Y8032242D01*
X3162046Y8039608D01*
X3156305Y8046516D01*
X2789834Y8412988D01*
X2787853Y8415832D01*
X2786938Y8419287D01*
X2785973Y8429904D01*
X2783433Y8439353D01*
X2779318Y8448294D01*
X2773680Y8456320D01*
X2766720Y8463280D01*
X2758694Y8468918D01*
X2749753Y8473033D01*
X2740304Y8475573D01*
X2730500Y8476437D01*
X2720695Y8475573D01*
X2711246Y8473033D01*
X2702306Y8468918D01*
X2694279Y8463280D01*
X2687320Y8456320D01*
X2681681Y8448294D01*
X2677566Y8439353D01*
X2675026Y8429904D01*
X2674162Y8420100D01*
X2675026Y8410295D01*
X2677566Y8400846D01*
X2681681Y8391906D01*
X2687320Y8383879D01*
X2694279Y8376920D01*
X2700782Y8372195D01*
X3075330Y7997647D01*
X3077514Y7994345D01*
X3078276Y7990484D01*
X3078327Y7122922D01*
X3079546Y7114184D01*
X3082239Y7106158D01*
X3086354Y7098792D01*
X3092094Y7091883D01*
X4227931Y5956046D01*
X4230116Y5952744D01*
X4230878Y5948883D01*
X4230116Y5944971D01*
X4227931Y5941669D01*
X4224629Y5939485D01*
X4220718Y5938723D01*
X4214215Y5938723D01*
X4210354Y5939485D01*
X4207052Y5941669D01*
X2614269Y7534452D01*
X2612085Y7537754D01*
X2611323Y7541615D01*
X2611323Y7978190D01*
X2611780Y7981238D01*
X2614218Y7985506D01*
X2618333Y7994446D01*
X2620873Y8003895D01*
X2621737Y8013700D01*
X2620873Y8023504D01*
X2618333Y8032953D01*
X2614218Y8041894D01*
X2608580Y8049920D01*
X2601620Y8056880D01*
X2593594Y8062518D01*
X2584653Y8066633D01*
X2575204Y8069173D01*
X2565400Y8070037D01*
X2555595Y8069173D01*
X2546146Y8066633D01*
X2537206Y8062518D01*
X2529179Y8056880D01*
X2522220Y8049920D01*
X2516581Y8041894D01*
X2512466Y8032953D01*
X2509926Y8023504D01*
X2509062Y8013700D01*
X2509926Y8003895D01*
X2512466Y7994446D01*
X2516581Y7985506D01*
X2519019Y7981238D01*
X2519476Y7978190D01*
X2519476Y7539481D01*
X2518714Y7535570D01*
X2516530Y7532268D01*
X2513228Y7530084D01*
X2509316Y7529322D01*
X2505456Y7530084D01*
X2502154Y7532268D01*
X2487269Y7547152D01*
X2485085Y7550454D01*
X2484323Y7554315D01*
X2484323Y7813090D01*
X2484780Y7816138D01*
X2487218Y7820406D01*
X2491333Y7829346D01*
X2493873Y7838795D01*
X2494737Y7848600D01*
X2493873Y7858404D01*
X2491333Y7867853D01*
X2487218Y7876794D01*
X2481580Y7884820D01*
X2474620Y7891780D01*
X2466594Y7897418D01*
X2457653Y7901533D01*
X2448204Y7904073D01*
X2438400Y7904937D01*
X2428595Y7904073D01*
X2419146Y7901533D01*
X2410206Y7897418D01*
X2402179Y7891780D01*
X2395220Y7884820D01*
X2389581Y7876794D01*
X2385466Y7867853D01*
X2382926Y7858404D01*
X2382062Y7848600D01*
X2382926Y7838795D01*
X2385466Y7829346D01*
X2389581Y7820406D01*
X2392019Y7816138D01*
X2392476Y7813090D01*
X2392527Y7529322D01*
X2393746Y7520584D01*
X2396439Y7512558D01*
X2400554Y7505192D01*
X2406294Y7498283D01*
X4134408Y5770219D01*
X4141470Y5764885D01*
X4149039Y5761126D01*
X4157167Y5758840D01*
X4166057Y5757976D01*
X5095290Y5757976D01*
X5098338Y5757519D01*
X5102606Y5755081D01*
X5111546Y5750966D01*
X5120995Y5748426D01*
G37*
G36*
X3314700Y7055662D02*
G01*
X3324504Y7056526D01*
X3333953Y7059066D01*
X3342894Y7063181D01*
X3350920Y7068820D01*
X3357879Y7075779D01*
X3363518Y7083806D01*
X3367633Y7092746D01*
X3370021Y7101636D01*
X3370986Y7103973D01*
X3372510Y7106005D01*
X3610711Y7355078D01*
X3614064Y7357364D01*
X3618077Y7358176D01*
X4714290Y7358176D01*
X4717338Y7357719D01*
X4721606Y7355281D01*
X4730546Y7351166D01*
X4739995Y7348626D01*
X4749800Y7347762D01*
X4759604Y7348626D01*
X4769053Y7351166D01*
X4777994Y7355281D01*
X4786020Y7360920D01*
X4792980Y7367879D01*
X4798618Y7375906D01*
X4802733Y7384846D01*
X4805273Y7394295D01*
X4806137Y7404100D01*
X4805273Y7413904D01*
X4802733Y7423353D01*
X4798618Y7432294D01*
X4792980Y7440320D01*
X4786020Y7447280D01*
X4777994Y7452918D01*
X4769053Y7457033D01*
X4759604Y7459573D01*
X4749800Y7460437D01*
X4739995Y7459573D01*
X4730546Y7457033D01*
X4721606Y7452918D01*
X4717338Y7450480D01*
X4714290Y7450023D01*
X3591102Y7449921D01*
X3585565Y7449210D01*
X3582720Y7448550D01*
X3577386Y7446873D01*
X3574745Y7445705D01*
X3569817Y7443063D01*
X3567429Y7441438D01*
X3563112Y7437932D01*
X3306013Y7169302D01*
X3303828Y7167575D01*
X3301288Y7166508D01*
X3295446Y7164933D01*
X3286506Y7160818D01*
X3278479Y7155180D01*
X3271520Y7148220D01*
X3265881Y7140194D01*
X3261766Y7131253D01*
X3259226Y7121804D01*
X3258362Y7112000D01*
X3259226Y7102195D01*
X3261766Y7092746D01*
X3265881Y7083806D01*
X3271520Y7075779D01*
X3278479Y7068820D01*
X3286506Y7063181D01*
X3295446Y7059066D01*
X3304895Y7056526D01*
G37*
G36*
X3390900Y7335062D02*
G01*
X3400704Y7335926D01*
X3410153Y7338466D01*
X3419094Y7342581D01*
X3427120Y7348220D01*
X3434079Y7355179D01*
X3439718Y7363206D01*
X3443833Y7372146D01*
X3445814Y7379462D01*
X3446830Y7381900D01*
X3448456Y7384034D01*
X3622852Y7558430D01*
X3626154Y7560614D01*
X3630015Y7561376D01*
X4714290Y7561376D01*
X4717338Y7560919D01*
X4721606Y7558481D01*
X4730546Y7554366D01*
X4739995Y7551826D01*
X4749800Y7550962D01*
X4759604Y7551826D01*
X4769053Y7554366D01*
X4777994Y7558481D01*
X4786020Y7564120D01*
X4792980Y7571079D01*
X4798618Y7579106D01*
X4802733Y7588046D01*
X4805273Y7597495D01*
X4806137Y7607300D01*
X4805273Y7617104D01*
X4802733Y7626553D01*
X4798618Y7635494D01*
X4792980Y7643520D01*
X4786020Y7650480D01*
X4777994Y7656118D01*
X4769053Y7660233D01*
X4759604Y7662773D01*
X4749800Y7663637D01*
X4739995Y7662773D01*
X4730546Y7660233D01*
X4721606Y7656118D01*
X4717338Y7653680D01*
X4714290Y7653223D01*
X3605022Y7653172D01*
X3596284Y7651953D01*
X3588258Y7649260D01*
X3580892Y7645146D01*
X3573983Y7639405D01*
X3383534Y7448956D01*
X3381400Y7447330D01*
X3378962Y7446314D01*
X3371646Y7444333D01*
X3362706Y7440218D01*
X3354679Y7434580D01*
X3347720Y7427620D01*
X3342081Y7419594D01*
X3337966Y7410653D01*
X3335426Y7401204D01*
X3334562Y7391400D01*
X3335426Y7381595D01*
X3337966Y7372146D01*
X3342081Y7363206D01*
X3347720Y7355179D01*
X3354679Y7348220D01*
X3362706Y7342581D01*
X3371646Y7338466D01*
X3381095Y7335926D01*
G37*
G36*
X3581400Y7741462D02*
G01*
X3591204Y7742326D01*
X3600653Y7744866D01*
X3609594Y7748981D01*
X3613861Y7751419D01*
X3616909Y7751876D01*
X4714290Y7751876D01*
X4717338Y7751419D01*
X4721606Y7748981D01*
X4730546Y7744866D01*
X4739995Y7742326D01*
X4749800Y7741462D01*
X4759604Y7742326D01*
X4769053Y7744866D01*
X4777994Y7748981D01*
X4786020Y7754620D01*
X4792980Y7761579D01*
X4798618Y7769606D01*
X4802733Y7778546D01*
X4805273Y7787995D01*
X4806137Y7797800D01*
X4805273Y7807604D01*
X4802733Y7817053D01*
X4798618Y7825994D01*
X4792980Y7834020D01*
X4786020Y7840980D01*
X4777994Y7846618D01*
X4769053Y7850733D01*
X4759604Y7853273D01*
X4749800Y7854137D01*
X4739995Y7853273D01*
X4730546Y7850733D01*
X4721606Y7846618D01*
X4717338Y7844180D01*
X4714290Y7843723D01*
X3616909Y7843723D01*
X3613861Y7844180D01*
X3609594Y7846618D01*
X3600653Y7850733D01*
X3591204Y7853273D01*
X3581400Y7854137D01*
X3571595Y7853273D01*
X3562146Y7850733D01*
X3553206Y7846618D01*
X3545179Y7840980D01*
X3538220Y7834020D01*
X3532581Y7825994D01*
X3528466Y7817053D01*
X3525926Y7807604D01*
X3525062Y7797800D01*
X3525926Y7787995D01*
X3528466Y7778546D01*
X3532581Y7769606D01*
X3538220Y7761579D01*
X3545179Y7754620D01*
X3553206Y7748981D01*
X3562146Y7744866D01*
X3571595Y7742326D01*
G37*
G36*
X4572000Y7868462D02*
G01*
X4581804Y7869326D01*
X4591253Y7871866D01*
X4600194Y7875981D01*
X4608220Y7881620D01*
X4615180Y7888579D01*
X4620818Y7896606D01*
X4624933Y7905546D01*
X4626914Y7912862D01*
X4627930Y7915300D01*
X4629556Y7917434D01*
X5087366Y8375243D01*
X5089499Y8376869D01*
X5091938Y8377885D01*
X5099253Y8379866D01*
X5108194Y8383981D01*
X5116220Y8389620D01*
X5123180Y8396579D01*
X5128818Y8404606D01*
X5132933Y8413546D01*
X5135473Y8422995D01*
X5136337Y8432800D01*
X5135473Y8442604D01*
X5132933Y8452053D01*
X5128818Y8460994D01*
X5123180Y8469020D01*
X5116220Y8475980D01*
X5108194Y8481618D01*
X5099253Y8485733D01*
X5089804Y8488273D01*
X5080000Y8489137D01*
X5070195Y8488273D01*
X5060746Y8485733D01*
X5051806Y8481618D01*
X5043779Y8475980D01*
X5036820Y8469020D01*
X5031181Y8460994D01*
X5027066Y8452053D01*
X5025085Y8444738D01*
X5024069Y8442299D01*
X5022443Y8440166D01*
X4564634Y7982356D01*
X4562500Y7980730D01*
X4560062Y7979714D01*
X4552746Y7977733D01*
X4543806Y7973618D01*
X4535779Y7967980D01*
X4528820Y7961020D01*
X4523181Y7952994D01*
X4519066Y7944053D01*
X4516526Y7934604D01*
X4515662Y7924800D01*
X4516526Y7914995D01*
X4519066Y7905546D01*
X4523181Y7896606D01*
X4528820Y7888579D01*
X4535779Y7881620D01*
X4543806Y7875981D01*
X4552746Y7871866D01*
X4562195Y7869326D01*
G37*
G36*
X4470400Y7995462D02*
G01*
X4480204Y7996326D01*
X4489653Y7998866D01*
X4498594Y8002981D01*
X4506620Y8008620D01*
X4513580Y8015579D01*
X4519218Y8023606D01*
X4523333Y8032546D01*
X4525873Y8041995D01*
X4526838Y8052612D01*
X4527753Y8056067D01*
X4529734Y8058912D01*
X4731766Y8260943D01*
X4733899Y8262569D01*
X4736338Y8263585D01*
X4743653Y8265566D01*
X4752594Y8269681D01*
X4760620Y8275320D01*
X4767580Y8282279D01*
X4773218Y8290306D01*
X4777333Y8299246D01*
X4779873Y8308695D01*
X4780737Y8318500D01*
X4779873Y8328304D01*
X4777333Y8337753D01*
X4773218Y8346694D01*
X4767580Y8354720D01*
X4760620Y8361680D01*
X4752594Y8367318D01*
X4743653Y8371433D01*
X4734204Y8373973D01*
X4724400Y8374837D01*
X4714595Y8373973D01*
X4705146Y8371433D01*
X4696206Y8367318D01*
X4688179Y8361680D01*
X4681220Y8354720D01*
X4675581Y8346694D01*
X4671466Y8337753D01*
X4669485Y8330438D01*
X4668469Y8327999D01*
X4666843Y8325866D01*
X4440682Y8099704D01*
X4434179Y8094980D01*
X4427220Y8088020D01*
X4421581Y8079994D01*
X4417466Y8071053D01*
X4414926Y8061604D01*
X4414062Y8051800D01*
X4414926Y8041995D01*
X4417466Y8032546D01*
X4421581Y8023606D01*
X4427220Y8015579D01*
X4434179Y8008620D01*
X4442206Y8002981D01*
X4451146Y7998866D01*
X4460595Y7996326D01*
G37*
G36*
X6328968Y8475522D02*
G01*
X6340398Y8481822D01*
X6354165Y8491626D01*
X6366814Y8502904D01*
X6378092Y8515502D01*
X6387846Y8529320D01*
X6394196Y8540750D01*
X6328968Y8540750D01*
G37*
G36*
X6701231Y8475522D02*
G01*
X6701231Y8540750D01*
X6636003Y8540750D01*
X6642353Y8529320D01*
X6652107Y8515502D01*
X6663385Y8502904D01*
X6676034Y8491626D01*
X6689801Y8481822D01*
G37*
G36*
X6838950Y8475522D02*
G01*
X6850380Y8481822D01*
X6864197Y8491626D01*
X6876796Y8502904D01*
X6888073Y8515502D01*
X6897878Y8529320D01*
X6904177Y8540750D01*
X6838950Y8540750D01*
G37*
G36*
X6191250Y8475522D02*
G01*
X6191250Y8540750D01*
X6126022Y8540750D01*
X6132322Y8529320D01*
X6142126Y8515502D01*
X6153404Y8502904D01*
X6166002Y8491626D01*
X6179820Y8481822D01*
G37*
G36*
X6636003Y8678468D02*
G01*
X6701231Y8678468D01*
X6701231Y8743696D01*
X6689801Y8737346D01*
X6676034Y8727592D01*
X6663385Y8716314D01*
X6652107Y8703665D01*
X6642353Y8689898D01*
G37*
G36*
X6328968Y8678468D02*
G01*
X6394196Y8678468D01*
X6387846Y8689898D01*
X6378092Y8703665D01*
X6366814Y8716314D01*
X6354165Y8727592D01*
X6340398Y8737346D01*
X6328968Y8743696D01*
G37*
G36*
X6126022Y8678468D02*
G01*
X6191250Y8678468D01*
X6191250Y8743696D01*
X6179820Y8737346D01*
X6166002Y8727592D01*
X6153404Y8716314D01*
X6142126Y8703665D01*
X6132322Y8689898D01*
G37*
G36*
X6838950Y8678468D02*
G01*
X6904177Y8678468D01*
X6897878Y8689898D01*
X6888073Y8703665D01*
X6876796Y8716314D01*
X6864197Y8727592D01*
X6850380Y8737346D01*
X6838950Y8743696D01*
G37*
G36*
X6515100Y8728710D02*
G01*
X6530898Y8729624D01*
X6546443Y8732367D01*
X6561581Y8736888D01*
X6576110Y8743188D01*
X6589775Y8751062D01*
X6602475Y8760510D01*
X6613956Y8771331D01*
X6624116Y8783472D01*
X6632803Y8796680D01*
X6639864Y8810802D01*
X6645300Y8825636D01*
X6648907Y8841028D01*
X6650786Y8856726D01*
X6650786Y8872524D01*
X6648907Y8888222D01*
X6645300Y8903563D01*
X6639864Y8918448D01*
X6632803Y8932570D01*
X6624116Y8945727D01*
X6613956Y8957868D01*
X6602475Y8968689D01*
X6589775Y8978138D01*
X6576110Y8986062D01*
X6561581Y8992311D01*
X6546443Y8996832D01*
X6530898Y8999575D01*
X6515100Y9000490D01*
X6499352Y8999575D01*
X6483756Y8996832D01*
X6468618Y8992311D01*
X6454140Y8986062D01*
X6440424Y8978138D01*
X6427774Y8968689D01*
X6416243Y8957868D01*
X6406083Y8945727D01*
X6397396Y8932570D01*
X6390335Y8918448D01*
X6384899Y8903563D01*
X6381292Y8888222D01*
X6379464Y8872524D01*
X6379464Y8856726D01*
X6381292Y8841028D01*
X6384899Y8825636D01*
X6390335Y8810802D01*
X6397396Y8796680D01*
X6406083Y8783472D01*
X6416243Y8771331D01*
X6427774Y8760510D01*
X6440424Y8751062D01*
X6454140Y8743188D01*
X6468618Y8736888D01*
X6483756Y8732367D01*
X6499352Y8729624D01*
G37*
G36*
X7874000Y8889492D02*
G01*
X7889392Y8890457D01*
X7904530Y8893200D01*
X7919212Y8897772D01*
X7933232Y8904122D01*
X7946440Y8912098D01*
X7958531Y8921597D01*
X7969402Y8932468D01*
X7978902Y8944559D01*
X7986877Y8957767D01*
X7993227Y8971788D01*
X7997799Y8986469D01*
X8000542Y9001607D01*
X8001508Y9017000D01*
X8000542Y9032392D01*
X7997799Y9047530D01*
X7993227Y9062212D01*
X7986877Y9076232D01*
X7978902Y9089440D01*
X7969402Y9101531D01*
X7958531Y9112402D01*
X7946440Y9121902D01*
X7933232Y9129877D01*
X7919212Y9136227D01*
X7904530Y9140799D01*
X7889392Y9143542D01*
X7874000Y9144508D01*
X7858607Y9143542D01*
X7843469Y9140799D01*
X7828788Y9136227D01*
X7814767Y9129877D01*
X7801559Y9121902D01*
X7789468Y9112402D01*
X7778597Y9101531D01*
X7769098Y9089440D01*
X7761122Y9076232D01*
X7754772Y9062212D01*
X7750200Y9047530D01*
X7747457Y9032392D01*
X7746492Y9017000D01*
X7747457Y9001607D01*
X7750200Y8986469D01*
X7754772Y8971788D01*
X7761122Y8957767D01*
X7769098Y8944559D01*
X7778597Y8932468D01*
X7789468Y8921597D01*
X7801559Y8912098D01*
X7814767Y8904122D01*
X7828788Y8897772D01*
X7843469Y8893200D01*
X7858607Y8890457D01*
G37*
G36*
X1143000Y8889492D02*
G01*
X1158392Y8890457D01*
X1173530Y8893200D01*
X1188212Y8897772D01*
X1202232Y8904122D01*
X1215440Y8912098D01*
X1227531Y8921597D01*
X1238402Y8932468D01*
X1247902Y8944559D01*
X1255877Y8957767D01*
X1262227Y8971788D01*
X1266799Y8986469D01*
X1269542Y9001607D01*
X1270508Y9017000D01*
X1269542Y9032392D01*
X1266799Y9047530D01*
X1262227Y9062212D01*
X1255877Y9076232D01*
X1247902Y9089440D01*
X1238402Y9101531D01*
X1227531Y9112402D01*
X1215440Y9121902D01*
X1202232Y9129877D01*
X1188212Y9136227D01*
X1173530Y9140799D01*
X1158392Y9143542D01*
X1143000Y9144508D01*
X1127607Y9143542D01*
X1112469Y9140799D01*
X1097788Y9136227D01*
X1083767Y9129877D01*
X1070559Y9121902D01*
X1058468Y9112402D01*
X1047597Y9101531D01*
X1038098Y9089440D01*
X1030122Y9076232D01*
X1023772Y9062212D01*
X1019200Y9047530D01*
X1016457Y9032392D01*
X1015492Y9017000D01*
X1016457Y9001607D01*
X1019200Y8986469D01*
X1023772Y8971788D01*
X1030122Y8957767D01*
X1038098Y8944559D01*
X1047597Y8932468D01*
X1058468Y8921597D01*
X1070559Y8912098D01*
X1083767Y8904122D01*
X1097788Y8897772D01*
X1112469Y8893200D01*
X1127607Y8890457D01*
G37*
G36*
X6191250Y8985504D02*
G01*
X6191250Y9050731D01*
X6126022Y9050731D01*
X6132322Y9039301D01*
X6142126Y9025534D01*
X6153404Y9012885D01*
X6166002Y9001607D01*
X6179820Y8991854D01*
G37*
G36*
X6838950Y8985504D02*
G01*
X6850380Y8991854D01*
X6864197Y9001607D01*
X6876796Y9012885D01*
X6888073Y9025534D01*
X6897878Y9039301D01*
X6904177Y9050731D01*
X6838950Y9050731D01*
G37*
G36*
X6701231Y8985504D02*
G01*
X6701231Y9050731D01*
X6636003Y9050731D01*
X6642353Y9039301D01*
X6652107Y9025534D01*
X6663385Y9012885D01*
X6676034Y9001607D01*
X6689801Y8991854D01*
G37*
G36*
X6328968Y8985504D02*
G01*
X6340398Y8991854D01*
X6354165Y9001607D01*
X6366814Y9012885D01*
X6378092Y9025534D01*
X6387846Y9039301D01*
X6394196Y9050731D01*
X6328968Y9050731D01*
G37*
G36*
X6636003Y9188450D02*
G01*
X6701231Y9188450D01*
X6701231Y9253677D01*
X6689801Y9247378D01*
X6676034Y9237573D01*
X6663385Y9226296D01*
X6652107Y9213697D01*
X6642353Y9199880D01*
G37*
G36*
X6328968Y9188450D02*
G01*
X6394196Y9188450D01*
X6387846Y9199880D01*
X6378092Y9213697D01*
X6366814Y9226296D01*
X6354165Y9237573D01*
X6340398Y9247378D01*
X6328968Y9253677D01*
G37*
G36*
X6838950Y9188450D02*
G01*
X6904177Y9188450D01*
X6897878Y9199880D01*
X6888073Y9213697D01*
X6876796Y9226296D01*
X6864197Y9237573D01*
X6850380Y9247378D01*
X6838950Y9253677D01*
G37*
G36*
X6126022Y9188450D02*
G01*
X6191250Y9188450D01*
X6191250Y9253677D01*
X6179820Y9247378D01*
X6166002Y9237573D01*
X6153404Y9226296D01*
X6142126Y9213697D01*
X6132322Y9199880D01*
G37*

%LPD*%
D10*
X3721100Y4927600D02*
G01*
X3898900Y4749800D01*
X4965700Y4749800D01*
X5448300Y4267200D01*
X5448300Y4127500D01*
D11*
X4826000Y4508500D02*
G01*
X4064000Y3746500D01*
X4826000Y4368800D02*
G01*
X4800600Y4368800D01*
X4064000Y3632200D01*
X4572000Y7924800D02*
G01*
X5080000Y8432800D01*
X4470400Y8051800D02*
G01*
X4470400Y8064500D01*
X4724400Y8318500D01*
X5067300Y5245100D02*
G01*
X2933700Y5245100D01*
X2514600Y4826000D01*
X5626100Y5981700D02*
G01*
X4267200Y5981700D01*
X3124200Y7124700D01*
X3124200Y8013700D01*
X2730500Y8407400D01*
X2730500Y8420100D01*
X3581400Y7797800D02*
G01*
X4749800Y7797800D01*
X5918200Y6070600D02*
G01*
X4457700Y6070600D01*
X3505200Y7023100D01*
X4749800Y7404100D02*
G01*
X3594100Y7404100D01*
X3314700Y7112000D01*
X4749800Y7607300D02*
G01*
X3606800Y7607300D01*
X3390900Y7391400D01*
X5372100Y5892800D02*
G01*
X4191000Y5892800D01*
X2565400Y7518400D01*
X2565400Y8013700D01*
X5130800Y5803900D02*
G01*
X4165600Y5803900D01*
X2438400Y7531100D01*
X2438400Y7848600D01*
X2425700Y6642100D02*
G01*
X3594100Y5473700D01*
X5829300Y5473700D01*
X6134100Y5778500D01*
X6134100Y5791200D01*
D12*
G01*
X6515125Y8864600D03*
D13*
G01*
X6770115Y9119590D03*
G01*
X6260109Y9119590D03*
G01*
X6260109Y8609584D03*
G01*
X6770115Y8609584D03*
D14*
G01*
X4749800Y7607300D03*
G01*
X4749800Y7404100D03*
G01*
X5918200Y6070600D03*
G01*
X5626100Y5981700D03*
G01*
X5372100Y5892800D03*
G01*
X5130800Y5803900D03*
G01*
X2730500Y8420100D03*
G01*
X3505200Y7023100D03*
G01*
X2565400Y8013700D03*
G01*
X2438400Y7848600D03*
G01*
X3314700Y7112000D03*
G01*
X3390900Y7391400D03*
G01*
X2425700Y6642100D03*
G01*
X6134100Y5791200D03*
G01*
X3721100Y4927600D03*
G01*
X5067300Y5245100D03*
G01*
X3581400Y7797800D03*
G01*
X4749800Y7797800D03*
G01*
X2514600Y4826000D03*
G01*
X4826000Y4508500D03*
G01*
X4826000Y4368800D03*
G01*
X5448300Y4127500D03*
G01*
X4470400Y8051800D03*
G01*
X4724400Y8318500D03*
G01*
X4572000Y7924800D03*
G01*
X5080000Y8432800D03*
G01*
X4064000Y3746500D03*
G01*
X4064000Y3632200D03*
M02*
